%TF.GenerationSoftware,KiCad,Pcbnew,8.0.8+dfsg-1*%
%TF.CreationDate,2025-06-25T18:22:30+01:00*%
%TF.ProjectId,WOARCWSPR,574f4152-4357-4535-9052-2e6b69636164,rev?*%
%TF.SameCoordinates,Original*%
%TF.FileFunction,Legend,Bot*%
%TF.FilePolarity,Positive*%
%FSLAX46Y46*%
G04 Gerber Fmt 4.6, Leading zero omitted, Abs format (unit mm)*
G04 Created by KiCad (PCBNEW 8.0.8+dfsg-1) date 2025-06-25 18:22:30*
%MOMM*%
%LPD*%
G01*
G04 APERTURE LIST*
G04 Aperture macros list*
%AMRoundRect*
0 Rectangle with rounded corners*
0 $1 Rounding radius*
0 $2 $3 $4 $5 $6 $7 $8 $9 X,Y pos of 4 corners*
0 Add a 4 corners polygon primitive as box body*
4,1,4,$2,$3,$4,$5,$6,$7,$8,$9,$2,$3,0*
0 Add four circle primitives for the rounded corners*
1,1,$1+$1,$2,$3*
1,1,$1+$1,$4,$5*
1,1,$1+$1,$6,$7*
1,1,$1+$1,$8,$9*
0 Add four rect primitives between the rounded corners*
20,1,$1+$1,$2,$3,$4,$5,0*
20,1,$1+$1,$4,$5,$6,$7,0*
20,1,$1+$1,$6,$7,$8,$9,0*
20,1,$1+$1,$8,$9,$2,$3,0*%
G04 Aperture macros list end*
%ADD10C,0.100000*%
%ADD11C,0.200000*%
%ADD12C,2.700000*%
%ADD13R,1.600000X1.600000*%
%ADD14C,1.600000*%
%ADD15O,1.600000X1.600000*%
%ADD16R,1.700000X1.700000*%
%ADD17O,1.700000X1.700000*%
%ADD18C,2.000000*%
%ADD19C,1.620000*%
%ADD20O,2.000000X2.000000*%
%ADD21RoundRect,0.250000X-1.600000X0.425000X-1.600000X-0.425000X1.600000X-0.425000X1.600000X0.425000X0*%
%ADD22O,1.500000X1.050000*%
%ADD23R,1.500000X1.050000*%
G04 APERTURE END LIST*
D10*
G36*
X206508098Y-56216225D02*
G01*
X206561232Y-56223051D01*
X206610589Y-56234428D01*
X206663396Y-56253454D01*
X206711060Y-56278674D01*
X206735946Y-56295584D01*
X206775548Y-56328978D01*
X206810125Y-56367211D01*
X206839675Y-56410282D01*
X206864200Y-56458192D01*
X206867296Y-56465420D01*
X206886213Y-56518169D01*
X206898595Y-56566377D01*
X206907439Y-56617351D01*
X206912746Y-56671089D01*
X206914515Y-56727592D01*
X206914465Y-56737293D01*
X206912107Y-56793885D01*
X206906211Y-56847712D01*
X206896777Y-56898774D01*
X206883805Y-56947071D01*
X206864200Y-56999923D01*
X206850801Y-57028240D01*
X206823405Y-57073901D01*
X206790982Y-57114606D01*
X206753534Y-57150356D01*
X206711060Y-57181151D01*
X206663466Y-57206276D01*
X206610869Y-57225229D01*
X206561805Y-57236564D01*
X206509066Y-57243364D01*
X206452651Y-57245631D01*
X206397682Y-57243364D01*
X206346165Y-57236564D01*
X206298100Y-57225229D01*
X206246387Y-57206276D01*
X206199371Y-57181151D01*
X206174566Y-57164172D01*
X206134902Y-57130621D01*
X206100007Y-57092185D01*
X206069880Y-57048863D01*
X206044521Y-57000655D01*
X206041291Y-56993381D01*
X206021547Y-56940266D01*
X206008624Y-56891689D01*
X205999394Y-56840295D01*
X205993855Y-56786084D01*
X205992009Y-56729057D01*
X205992013Y-56728325D01*
X206125122Y-56728325D01*
X206126347Y-56775341D01*
X206131323Y-56830506D01*
X206140128Y-56881663D01*
X206155747Y-56937763D01*
X206176879Y-56988092D01*
X206203524Y-57032651D01*
X206218994Y-57052468D01*
X206254829Y-57086254D01*
X206297190Y-57112242D01*
X206346076Y-57130435D01*
X206401489Y-57140830D01*
X206452651Y-57143538D01*
X206473460Y-57143104D01*
X206531694Y-57136607D01*
X206583644Y-57122313D01*
X206629308Y-57100223D01*
X206668686Y-57070335D01*
X206701779Y-57032651D01*
X206724788Y-56995919D01*
X206747250Y-56946552D01*
X206764097Y-56891414D01*
X206773847Y-56841058D01*
X206779697Y-56786695D01*
X206781646Y-56728325D01*
X206780391Y-56681335D01*
X206775290Y-56626279D01*
X206766266Y-56575313D01*
X206750257Y-56519554D01*
X206728599Y-56469686D01*
X206701290Y-56425708D01*
X206685397Y-56406109D01*
X206648920Y-56372696D01*
X206606193Y-56346993D01*
X206557215Y-56329001D01*
X206501985Y-56318720D01*
X206451186Y-56316043D01*
X206430355Y-56316471D01*
X206372143Y-56322897D01*
X206320354Y-56337033D01*
X206274988Y-56358881D01*
X206236044Y-56388439D01*
X206203524Y-56425708D01*
X206180937Y-56461947D01*
X206158887Y-56510834D01*
X206142349Y-56565611D01*
X206132778Y-56615758D01*
X206127036Y-56669996D01*
X206125122Y-56728325D01*
X205992013Y-56728325D01*
X205992061Y-56719357D01*
X205994522Y-56662800D01*
X206000676Y-56609059D01*
X206010522Y-56558134D01*
X206024060Y-56510026D01*
X206044521Y-56457459D01*
X206058428Y-56429329D01*
X206086511Y-56384014D01*
X206119363Y-56343678D01*
X206156983Y-56308320D01*
X206199371Y-56277941D01*
X206246316Y-56253007D01*
X206297819Y-56234197D01*
X206345593Y-56222948D01*
X206396715Y-56216199D01*
X206451186Y-56213949D01*
X206508098Y-56216225D01*
G37*
G36*
X205437822Y-56464054D02*
G01*
X205392393Y-56466496D01*
X205349651Y-56473579D01*
X205365038Y-56586175D01*
X205404849Y-56577138D01*
X205446127Y-56573475D01*
X205495040Y-56579552D01*
X205541335Y-56597785D01*
X205554082Y-56605226D01*
X205594226Y-56637871D01*
X205624555Y-56676891D01*
X205634438Y-56694131D01*
X205652745Y-56739491D01*
X205662602Y-56790210D01*
X205664480Y-56826999D01*
X205664480Y-57230000D01*
X205787822Y-57230000D01*
X205787822Y-56479685D01*
X205686950Y-56479685D01*
X205673028Y-56615729D01*
X205667411Y-56615729D01*
X205639909Y-56575237D01*
X205607443Y-56538728D01*
X205573621Y-56508995D01*
X205531679Y-56483408D01*
X205484772Y-56468443D01*
X205437822Y-56464054D01*
G37*
G36*
X205147418Y-56198318D02*
G01*
X205100549Y-56214847D01*
X205097836Y-56217124D01*
X205076863Y-56262036D01*
X205076099Y-56276475D01*
X205088326Y-56324103D01*
X205097836Y-56335094D01*
X205143932Y-56354557D01*
X205147418Y-56354633D01*
X205195173Y-56338586D01*
X205199197Y-56335094D01*
X205219463Y-56290443D01*
X205220202Y-56276475D01*
X205208387Y-56227886D01*
X205199197Y-56217124D01*
X205153102Y-56198483D01*
X205147418Y-56198318D01*
G37*
G36*
X205087090Y-56479685D02*
G01*
X205087090Y-57230000D01*
X205210432Y-57230000D01*
X205210432Y-56479685D01*
X205087090Y-56479685D01*
G37*
G36*
X204627467Y-56466648D02*
G01*
X204683303Y-56478995D01*
X204733201Y-56501510D01*
X204777163Y-56534193D01*
X204810118Y-56570300D01*
X204829295Y-56597956D01*
X204853266Y-56643778D01*
X204871484Y-56694802D01*
X204883949Y-56751031D01*
X204889942Y-56801863D01*
X204891939Y-56856308D01*
X204890661Y-56901073D01*
X204885467Y-56953445D01*
X204876278Y-57001833D01*
X204859978Y-57054641D01*
X204837925Y-57101713D01*
X204810118Y-57143049D01*
X204777111Y-57177911D01*
X204732959Y-57209467D01*
X204682730Y-57231205D01*
X204634840Y-57242025D01*
X204582484Y-57245631D01*
X204526533Y-57241595D01*
X204476284Y-57229488D01*
X204424866Y-57205162D01*
X204381209Y-57169849D01*
X204349965Y-57130837D01*
X204344591Y-57130837D01*
X204347278Y-57176022D01*
X204348743Y-57225359D01*
X204348743Y-57255401D01*
X204349231Y-57273849D01*
X204356540Y-57324712D01*
X204374949Y-57373341D01*
X204404187Y-57413670D01*
X204414899Y-57424059D01*
X204455848Y-57451307D01*
X204504859Y-57467202D01*
X204555861Y-57471800D01*
X204576465Y-57471567D01*
X204626061Y-57468948D01*
X204681971Y-57461964D01*
X204733949Y-57450790D01*
X204781995Y-57435426D01*
X204833077Y-57412205D01*
X204833077Y-57527243D01*
X204819714Y-57532892D01*
X204769248Y-57549794D01*
X204721415Y-57560727D01*
X204669356Y-57568381D01*
X204613074Y-57572755D01*
X204562944Y-57573893D01*
X204552271Y-57573814D01*
X204501550Y-57571017D01*
X204446509Y-57562387D01*
X204397823Y-57548005D01*
X204349053Y-57523954D01*
X204308932Y-57492072D01*
X204276955Y-57452430D01*
X204252832Y-57405098D01*
X204238407Y-57358406D01*
X204229751Y-57306065D01*
X204226866Y-57248073D01*
X204226866Y-56854842D01*
X204347278Y-56854842D01*
X204347278Y-56884396D01*
X204349756Y-56940529D01*
X204357189Y-56989462D01*
X204371752Y-57036571D01*
X204399057Y-57082233D01*
X204416741Y-57099894D01*
X204461125Y-57126236D01*
X204511348Y-57139706D01*
X204564166Y-57143538D01*
X204582161Y-57142889D01*
X204631176Y-57133165D01*
X204676890Y-57108674D01*
X204713398Y-57069776D01*
X204719579Y-57060270D01*
X204742461Y-57011163D01*
X204756020Y-56958818D01*
X204762650Y-56906305D01*
X204764445Y-56856308D01*
X204764394Y-56847654D01*
X204761209Y-56790591D01*
X204753067Y-56739676D01*
X204737695Y-56689015D01*
X204712665Y-56641618D01*
X204702587Y-56628131D01*
X204663661Y-56592754D01*
X204616530Y-56572117D01*
X204567096Y-56566147D01*
X204533148Y-56567781D01*
X204484933Y-56577192D01*
X204439669Y-56597779D01*
X204400523Y-56633070D01*
X204385184Y-56656130D01*
X204366049Y-56701956D01*
X204354766Y-56751070D01*
X204349150Y-56799865D01*
X204347278Y-56854842D01*
X204226866Y-56854842D01*
X204226866Y-56479685D01*
X204324808Y-56479685D01*
X204341660Y-56578115D01*
X204348743Y-56578115D01*
X204370847Y-56551142D01*
X204408125Y-56517608D01*
X204450348Y-56492386D01*
X204484912Y-56478690D01*
X204534663Y-56467402D01*
X204583949Y-56464054D01*
X204627467Y-56466648D01*
G37*
G36*
X203926203Y-56198318D02*
G01*
X203879334Y-56214847D01*
X203876622Y-56217124D01*
X203855649Y-56262036D01*
X203854884Y-56276475D01*
X203867112Y-56324103D01*
X203876622Y-56335094D01*
X203922718Y-56354557D01*
X203926203Y-56354633D01*
X203973958Y-56338586D01*
X203977983Y-56335094D01*
X203998249Y-56290443D01*
X203998988Y-56276475D01*
X203987172Y-56227886D01*
X203977983Y-56217124D01*
X203931888Y-56198483D01*
X203926203Y-56198318D01*
G37*
G36*
X203865875Y-56479685D02*
G01*
X203865875Y-57230000D01*
X203989218Y-57230000D01*
X203989218Y-56479685D01*
X203865875Y-56479685D01*
G37*
G36*
X203267480Y-56464054D02*
G01*
X203211853Y-56467174D01*
X203162514Y-56476536D01*
X203113826Y-56494877D01*
X203068868Y-56525255D01*
X203064515Y-56529267D01*
X203031338Y-56572325D01*
X203010963Y-56621303D01*
X203000172Y-56672424D01*
X202996150Y-56722381D01*
X202995882Y-56740293D01*
X202995882Y-57230000D01*
X203117759Y-57230000D01*
X203117759Y-56747620D01*
X203121856Y-56695340D01*
X203137587Y-56644301D01*
X203170851Y-56600882D01*
X203220173Y-56574831D01*
X203275231Y-56566325D01*
X203285554Y-56566147D01*
X203336465Y-56569513D01*
X203385603Y-56581603D01*
X203429352Y-56605715D01*
X203457990Y-56636489D01*
X203480895Y-56680945D01*
X203494962Y-56728667D01*
X203503105Y-56784114D01*
X203505373Y-56838967D01*
X203505373Y-57230000D01*
X203628715Y-57230000D01*
X203628715Y-56479685D01*
X203529309Y-56479685D01*
X203510990Y-56580558D01*
X203504152Y-56580558D01*
X203472908Y-56540636D01*
X203433764Y-56509163D01*
X203403279Y-56492875D01*
X203353958Y-56475312D01*
X203302712Y-56465855D01*
X203267480Y-56464054D01*
G37*
G36*
X202515853Y-56465275D02*
G01*
X202568679Y-56471687D01*
X202619993Y-56483593D01*
X202640535Y-56489896D01*
X202689759Y-56508125D01*
X202736008Y-56530732D01*
X202698150Y-56628185D01*
X202692353Y-56625184D01*
X202647173Y-56604010D01*
X202598988Y-56585198D01*
X202585589Y-56580733D01*
X202537310Y-56569794D01*
X202486880Y-56566147D01*
X202464500Y-56567102D01*
X202414014Y-56578512D01*
X202372086Y-56605226D01*
X202347379Y-56643008D01*
X202334749Y-56692847D01*
X202331542Y-56744445D01*
X202331542Y-56792316D01*
X202458792Y-56792316D01*
X202470163Y-56792375D01*
X202524228Y-56794446D01*
X202582967Y-56800834D01*
X202635008Y-56811482D01*
X202687257Y-56829287D01*
X202730390Y-56852889D01*
X202764746Y-56881725D01*
X202796519Y-56925978D01*
X202813051Y-56972094D01*
X202818562Y-57024591D01*
X202816922Y-57058757D01*
X202807477Y-57107269D01*
X202786815Y-57152796D01*
X202751395Y-57192142D01*
X202729553Y-57207551D01*
X202680752Y-57230535D01*
X202630999Y-57242288D01*
X202582135Y-57245631D01*
X202531819Y-57243255D01*
X202479190Y-57233896D01*
X202432903Y-57215589D01*
X202402946Y-57196102D01*
X202364266Y-57162064D01*
X202330076Y-57122777D01*
X202324459Y-57122777D01*
X202300523Y-57230000D01*
X202211130Y-57230000D01*
X202211130Y-56935687D01*
X202332763Y-56935687D01*
X202333317Y-56955079D01*
X202341624Y-57007460D01*
X202362547Y-57055464D01*
X202395778Y-57092735D01*
X202407876Y-57101814D01*
X202452298Y-57125628D01*
X202503016Y-57139519D01*
X202554047Y-57143538D01*
X202557781Y-57143509D01*
X202608757Y-57136149D01*
X202652721Y-57113984D01*
X202655095Y-57112104D01*
X202683925Y-57070072D01*
X202691311Y-57021172D01*
X202689414Y-56995386D01*
X202672282Y-56947353D01*
X202637334Y-56910041D01*
X202595202Y-56889176D01*
X202542926Y-56877004D01*
X202492864Y-56871865D01*
X202443405Y-56870474D01*
X202332763Y-56870474D01*
X202332763Y-56935687D01*
X202211130Y-56935687D01*
X202211130Y-56717090D01*
X202213440Y-56670063D01*
X202223706Y-56615215D01*
X202245071Y-56564241D01*
X202276831Y-56524626D01*
X202285324Y-56517291D01*
X202330457Y-56490140D01*
X202380080Y-56474051D01*
X202430839Y-56466183D01*
X202479797Y-56464054D01*
X202515853Y-56465275D01*
G37*
G36*
X201855268Y-57230000D02*
G01*
X201978611Y-57230000D01*
X201978611Y-56167055D01*
X201855268Y-56167055D01*
X201855268Y-57230000D01*
G37*
G36*
X200809420Y-56316043D02*
G01*
X200867375Y-56319933D01*
X200920520Y-56331602D01*
X200968857Y-56351051D01*
X201012386Y-56378279D01*
X201051106Y-56413287D01*
X201062944Y-56426685D01*
X201094320Y-56471052D01*
X201119204Y-56521172D01*
X201137597Y-56577046D01*
X201147965Y-56628002D01*
X201153826Y-56682953D01*
X201155268Y-56729790D01*
X201153169Y-56787533D01*
X201146872Y-56841388D01*
X201136378Y-56891355D01*
X201118242Y-56946184D01*
X201094062Y-56995414D01*
X201069295Y-57032163D01*
X201033941Y-57070013D01*
X200992541Y-57100032D01*
X200945097Y-57122220D01*
X200891608Y-57136577D01*
X200842416Y-57142559D01*
X200810886Y-57143538D01*
X200758514Y-57141643D01*
X200708561Y-57135959D01*
X200686322Y-57132058D01*
X200635378Y-57120938D01*
X200585556Y-57107668D01*
X200571528Y-57103482D01*
X200571528Y-57208506D01*
X200621169Y-57223379D01*
X200672213Y-57234232D01*
X200687055Y-57236594D01*
X200739107Y-57242445D01*
X200789133Y-57245066D01*
X200828960Y-57245631D01*
X200884435Y-57243407D01*
X200936373Y-57236735D01*
X200984773Y-57225616D01*
X201036769Y-57207021D01*
X201083949Y-57182372D01*
X201126172Y-57152149D01*
X201163510Y-57116829D01*
X201195963Y-57076414D01*
X201223530Y-57030903D01*
X201237090Y-57002609D01*
X201256980Y-56949580D01*
X201270140Y-56901020D01*
X201279712Y-56849592D01*
X201285694Y-56795295D01*
X201288086Y-56738131D01*
X201288136Y-56728325D01*
X201286196Y-56672700D01*
X201280374Y-56619583D01*
X201270671Y-56568973D01*
X201257087Y-56520871D01*
X201236333Y-56467920D01*
X201232937Y-56460635D01*
X201206275Y-56412309D01*
X201174587Y-56368845D01*
X201137874Y-56330243D01*
X201096135Y-56296503D01*
X201070027Y-56279406D01*
X201020588Y-56253901D01*
X200974695Y-56237025D01*
X200925557Y-56224752D01*
X200873172Y-56217081D01*
X200817542Y-56214013D01*
X200807955Y-56213949D01*
X200750112Y-56215864D01*
X200695103Y-56221609D01*
X200642928Y-56231183D01*
X200593586Y-56244586D01*
X200547078Y-56261820D01*
X200532205Y-56268415D01*
X200582519Y-56378569D01*
X200628278Y-56357149D01*
X200675055Y-56338997D01*
X200685589Y-56335338D01*
X200733362Y-56322845D01*
X200784602Y-56316721D01*
X200809420Y-56316043D01*
G37*
G36*
X200020516Y-56464054D02*
G01*
X199975087Y-56466496D01*
X199932344Y-56473579D01*
X199947732Y-56586175D01*
X199987543Y-56577138D01*
X200028820Y-56573475D01*
X200077734Y-56579552D01*
X200124029Y-56597785D01*
X200136775Y-56605226D01*
X200176920Y-56637871D01*
X200207248Y-56676891D01*
X200217131Y-56694131D01*
X200235438Y-56739491D01*
X200245296Y-56790210D01*
X200247173Y-56826999D01*
X200247173Y-57230000D01*
X200370516Y-57230000D01*
X200370516Y-56479685D01*
X200269644Y-56479685D01*
X200255722Y-56615729D01*
X200250104Y-56615729D01*
X200222603Y-56575237D01*
X200190137Y-56538728D01*
X200156315Y-56508995D01*
X200114372Y-56483408D01*
X200067466Y-56468443D01*
X200020516Y-56464054D01*
G37*
G36*
X199561033Y-56465223D02*
G01*
X199612871Y-56473217D01*
X199660844Y-56488784D01*
X199704954Y-56511926D01*
X199727563Y-56527811D01*
X199764112Y-56561453D01*
X199795329Y-56601587D01*
X199821214Y-56648213D01*
X199826212Y-56659432D01*
X199842981Y-56707036D01*
X199854590Y-56759007D01*
X199860516Y-56808062D01*
X199862491Y-56860460D01*
X199862446Y-56868238D01*
X199859651Y-56920574D01*
X199851133Y-56975865D01*
X199836937Y-57026331D01*
X199817062Y-57071974D01*
X199801906Y-57097950D01*
X199770178Y-57139447D01*
X199732732Y-57174183D01*
X199689567Y-57202156D01*
X199652590Y-57219096D01*
X199601578Y-57234762D01*
X199552959Y-57242914D01*
X199501256Y-57245631D01*
X199468601Y-57245082D01*
X199417299Y-57241584D01*
X199368387Y-57234152D01*
X199350803Y-57230254D01*
X199301248Y-57216042D01*
X199254815Y-57198492D01*
X199254815Y-57091514D01*
X199273126Y-57099160D01*
X199319953Y-57116304D01*
X199369120Y-57130348D01*
X199394041Y-57135488D01*
X199444416Y-57141683D01*
X199495638Y-57143538D01*
X199535927Y-57141159D01*
X199584195Y-57130588D01*
X199631053Y-57108587D01*
X199670027Y-57075882D01*
X199700347Y-57032938D01*
X199719383Y-56986559D01*
X199730969Y-56932455D01*
X199734996Y-56878778D01*
X199221109Y-56878778D01*
X199221109Y-56804284D01*
X199221689Y-56779043D01*
X199221932Y-56776685D01*
X199350069Y-56776685D01*
X199732309Y-56776685D01*
X199730927Y-56764459D01*
X199720715Y-56713648D01*
X199701710Y-56665257D01*
X199671493Y-56621835D01*
X199631872Y-56590130D01*
X199583536Y-56571586D01*
X199532030Y-56566147D01*
X199478349Y-56571872D01*
X199430705Y-56591392D01*
X199395010Y-56624766D01*
X199389740Y-56632200D01*
X199366620Y-56677999D01*
X199354217Y-56726848D01*
X199350069Y-56776685D01*
X199221932Y-56776685D01*
X199227236Y-56725209D01*
X199238656Y-56675471D01*
X199258234Y-56625010D01*
X199263001Y-56615559D01*
X199290611Y-56572368D01*
X199324519Y-56535951D01*
X199364724Y-56506308D01*
X199382489Y-56496405D01*
X199430607Y-56477423D01*
X199478442Y-56467396D01*
X199530565Y-56464054D01*
X199561033Y-56465223D01*
G37*
G36*
X198531123Y-56466252D02*
G01*
X198531040Y-56473174D01*
X198527704Y-56522916D01*
X198527284Y-56527305D01*
X198522819Y-56576650D01*
X198531123Y-56576650D01*
X198542609Y-56562271D01*
X198580035Y-56525753D01*
X198621737Y-56496782D01*
X198663409Y-56478149D01*
X198712528Y-56467250D01*
X198763642Y-56464054D01*
X198797768Y-56465603D01*
X198853336Y-56475771D01*
X198903622Y-56495430D01*
X198948625Y-56524578D01*
X198988346Y-56563217D01*
X199012762Y-56596518D01*
X199036598Y-56642589D01*
X199054476Y-56695322D01*
X199064821Y-56744357D01*
X199071029Y-56798019D01*
X199073098Y-56856308D01*
X199071785Y-56903287D01*
X199066452Y-56957781D01*
X199057016Y-57007576D01*
X199040278Y-57061128D01*
X199017632Y-57107914D01*
X198989078Y-57147934D01*
X198961457Y-57176079D01*
X198918198Y-57207468D01*
X198869587Y-57229507D01*
X198815623Y-57242196D01*
X198765108Y-57245631D01*
X198718061Y-57242984D01*
X198667487Y-57232560D01*
X198621004Y-57212170D01*
X198603998Y-57201297D01*
X198564916Y-57169846D01*
X198531123Y-57130837D01*
X198525750Y-57130837D01*
X198507431Y-57230000D01*
X198408025Y-57230000D01*
X198408025Y-56857773D01*
X198529902Y-56857773D01*
X198529902Y-56880244D01*
X198531602Y-56927533D01*
X198539158Y-56983267D01*
X198552759Y-57030634D01*
X198578262Y-57078080D01*
X198595027Y-57096938D01*
X198638934Y-57125064D01*
X198690278Y-57139446D01*
X198745324Y-57143538D01*
X198763789Y-57142883D01*
X198813800Y-57133062D01*
X198859896Y-57108327D01*
X198896022Y-57069043D01*
X198899072Y-57064313D01*
X198922168Y-57016417D01*
X198936113Y-56965797D01*
X198943231Y-56915294D01*
X198945603Y-56858995D01*
X198945555Y-56850697D01*
X198942504Y-56795568D01*
X198934709Y-56745604D01*
X198919989Y-56694828D01*
X198896022Y-56645771D01*
X198886244Y-56631541D01*
X198847356Y-56594218D01*
X198798784Y-56572446D01*
X198746789Y-56566147D01*
X198709777Y-56567990D01*
X198658521Y-56578603D01*
X198612571Y-56601819D01*
X198576064Y-56641618D01*
X198570474Y-56651278D01*
X198549782Y-56701100D01*
X198537520Y-56754113D01*
X198531525Y-56807235D01*
X198529902Y-56857773D01*
X198408025Y-56857773D01*
X198408025Y-56167055D01*
X198531123Y-56167055D01*
X198531123Y-56466252D01*
G37*
G36*
X198107362Y-56198318D02*
G01*
X198060493Y-56214847D01*
X198057780Y-56217124D01*
X198036807Y-56262036D01*
X198036043Y-56276475D01*
X198048270Y-56324103D01*
X198057780Y-56335094D01*
X198103876Y-56354557D01*
X198107362Y-56354633D01*
X198155117Y-56338586D01*
X198159141Y-56335094D01*
X198179408Y-56290443D01*
X198180146Y-56276475D01*
X198168331Y-56227886D01*
X198159141Y-56217124D01*
X198113046Y-56198483D01*
X198107362Y-56198318D01*
G37*
G36*
X198047034Y-56479685D02*
G01*
X198047034Y-57230000D01*
X198170376Y-57230000D01*
X198170376Y-56479685D01*
X198047034Y-56479685D01*
G37*
G36*
X197559281Y-57143538D02*
G01*
X197509192Y-57139985D01*
X197501884Y-57138897D01*
X197454256Y-57128394D01*
X197454256Y-57223405D01*
X197501353Y-57237697D01*
X197510188Y-57239281D01*
X197558957Y-57245011D01*
X197580286Y-57245631D01*
X197629894Y-57241798D01*
X197679310Y-57229182D01*
X197688729Y-57225603D01*
X197731133Y-57200104D01*
X197765380Y-57161618D01*
X197769330Y-57155505D01*
X197789255Y-57108173D01*
X197798181Y-57057732D01*
X197800104Y-57015066D01*
X197800104Y-56581779D01*
X197906350Y-56581779D01*
X197906350Y-56519497D01*
X197798639Y-56469672D01*
X197749546Y-56307739D01*
X197676762Y-56307739D01*
X197676762Y-56479685D01*
X197459874Y-56479685D01*
X197459874Y-56581779D01*
X197676762Y-56581779D01*
X197676762Y-57010669D01*
X197671360Y-57059993D01*
X197649882Y-57104651D01*
X197644033Y-57111053D01*
X197600988Y-57137320D01*
X197559281Y-57143538D01*
G37*
G36*
X197322854Y-56557843D02*
G01*
X197314894Y-56508891D01*
X197297697Y-56484815D01*
X197252426Y-56465047D01*
X197237613Y-56464054D01*
X197188932Y-56475732D01*
X197175331Y-56484815D01*
X197151970Y-56528148D01*
X197149441Y-56557843D01*
X197158568Y-56607077D01*
X197175331Y-56629651D01*
X197220073Y-56650259D01*
X197237613Y-56651632D01*
X197286223Y-56638216D01*
X197297697Y-56629651D01*
X197320397Y-56586160D01*
X197322854Y-56557843D01*
G37*
G36*
X197322854Y-57151109D02*
G01*
X197313985Y-57100964D01*
X197297697Y-57079057D01*
X197252426Y-57059058D01*
X197237613Y-57058053D01*
X197188932Y-57069868D01*
X197175331Y-57079057D01*
X197151970Y-57122034D01*
X197149441Y-57151109D01*
X197158568Y-57200751D01*
X197175331Y-57223405D01*
X197220073Y-57244242D01*
X197237613Y-57245631D01*
X197286223Y-57232065D01*
X197297697Y-57223405D01*
X197320397Y-57179684D01*
X197322854Y-57151109D01*
G37*
G36*
X195401395Y-56229581D02*
G01*
X195667376Y-57230000D01*
X195794626Y-57230000D01*
X195989288Y-56583977D01*
X196002629Y-56536411D01*
X196011758Y-56503866D01*
X196024716Y-56455184D01*
X196030076Y-56432791D01*
X196039846Y-56389316D01*
X196048547Y-56439141D01*
X196054501Y-56466008D01*
X196066265Y-56514441D01*
X196080125Y-56564487D01*
X196087229Y-56588129D01*
X196276273Y-57230000D01*
X196403768Y-57230000D01*
X196668283Y-56229581D01*
X196536636Y-56229581D01*
X196381297Y-56842142D01*
X196369379Y-56890067D01*
X196358096Y-56940590D01*
X196352721Y-56967194D01*
X196343184Y-57018672D01*
X196335517Y-57067532D01*
X196333670Y-57081011D01*
X196326330Y-57031223D01*
X196317087Y-56981558D01*
X196312909Y-56961577D01*
X196301701Y-56913446D01*
X196289325Y-56866139D01*
X196280425Y-56835059D01*
X196104082Y-56229581D01*
X195973900Y-56229581D01*
X195790474Y-56839455D01*
X195776609Y-56887747D01*
X195764325Y-56935901D01*
X195757013Y-56967927D01*
X195746712Y-57017461D01*
X195737832Y-57068505D01*
X195736008Y-57081011D01*
X195728187Y-57030253D01*
X195718757Y-56979296D01*
X195716468Y-56967927D01*
X195705464Y-56917469D01*
X195694089Y-56869389D01*
X195686915Y-56840676D01*
X195533042Y-56229581D01*
X195401395Y-56229581D01*
G37*
G36*
X194681123Y-56960355D02*
G01*
X194685751Y-57016488D01*
X194699636Y-57066918D01*
X194722777Y-57111644D01*
X194755174Y-57150666D01*
X194777843Y-57170404D01*
X194823265Y-57199716D01*
X194875116Y-57221829D01*
X194924675Y-57235052D01*
X194978957Y-57242986D01*
X195027800Y-57245558D01*
X195037962Y-57245631D01*
X195089258Y-57244486D01*
X195138120Y-57241051D01*
X195189060Y-57234629D01*
X195193545Y-57233907D01*
X195243702Y-57224027D01*
X195293798Y-57209288D01*
X195312491Y-57201912D01*
X195312491Y-57083454D01*
X195263624Y-57102701D01*
X195214371Y-57117860D01*
X195187194Y-57124975D01*
X195135066Y-57135543D01*
X195081784Y-57141725D01*
X195032344Y-57143538D01*
X194979863Y-57140790D01*
X194929068Y-57131130D01*
X194882872Y-57112239D01*
X194863817Y-57099574D01*
X194829138Y-57062239D01*
X194810465Y-57016180D01*
X194806908Y-56980628D01*
X194813554Y-56929795D01*
X194827913Y-56897096D01*
X194861126Y-56860251D01*
X194900209Y-56833838D01*
X194944092Y-56811558D01*
X194989215Y-56792257D01*
X195036474Y-56774315D01*
X195042114Y-56772288D01*
X195087735Y-56753964D01*
X195135424Y-56730720D01*
X195182628Y-56701693D01*
X195222047Y-56670041D01*
X195234822Y-56657494D01*
X195266227Y-56615261D01*
X195287355Y-56565222D01*
X195297506Y-56514191D01*
X195299790Y-56471870D01*
X195294999Y-56419060D01*
X195280627Y-56371791D01*
X195259246Y-56333628D01*
X195224407Y-56294290D01*
X195184687Y-56264747D01*
X195146650Y-56245212D01*
X195099366Y-56228726D01*
X195047884Y-56218346D01*
X194997961Y-56214224D01*
X194980565Y-56213949D01*
X194930328Y-56215333D01*
X194878208Y-56220050D01*
X194829378Y-56228115D01*
X194779690Y-56240011D01*
X194729892Y-56255766D01*
X194704815Y-56265484D01*
X194743893Y-56375882D01*
X194791097Y-56355366D01*
X194837943Y-56338994D01*
X194856734Y-56333384D01*
X194906994Y-56322156D01*
X194958946Y-56316652D01*
X194983496Y-56316043D01*
X195032601Y-56319250D01*
X195082700Y-56331880D01*
X195124912Y-56356587D01*
X195157303Y-56396899D01*
X195171555Y-56447308D01*
X195172295Y-56463565D01*
X195166436Y-56513046D01*
X195151535Y-56548806D01*
X195117206Y-56586711D01*
X195082903Y-56609867D01*
X195038643Y-56632422D01*
X194992502Y-56652640D01*
X194953942Y-56667997D01*
X194906510Y-56686793D01*
X194858882Y-56708584D01*
X194812663Y-56733656D01*
X194804954Y-56738339D01*
X194763349Y-56768644D01*
X194727734Y-56806203D01*
X194712630Y-56828464D01*
X194692231Y-56875564D01*
X194682631Y-56926913D01*
X194681123Y-56960355D01*
G37*
G36*
X194480111Y-57230000D02*
G01*
X194354082Y-57230000D01*
X194354082Y-56839211D01*
X194239288Y-56839211D01*
X194202831Y-56838513D01*
X194151794Y-56834846D01*
X194097787Y-56826596D01*
X194049740Y-56814069D01*
X194002128Y-56794515D01*
X193986132Y-56785893D01*
X193943475Y-56757145D01*
X193905460Y-56720127D01*
X193877320Y-56677766D01*
X193872824Y-56668719D01*
X193854697Y-56622251D01*
X193843820Y-56573731D01*
X193840580Y-56528534D01*
X193970621Y-56528534D01*
X193971716Y-56555897D01*
X193980478Y-56604440D01*
X194003753Y-56653527D01*
X194040718Y-56689734D01*
X194049734Y-56695472D01*
X194097343Y-56716711D01*
X194149329Y-56729297D01*
X194202279Y-56735452D01*
X194253210Y-56737117D01*
X194354082Y-56737117D01*
X194354082Y-56331674D01*
X194226831Y-56331674D01*
X194179430Y-56333392D01*
X194130488Y-56339736D01*
X194077627Y-56354763D01*
X194032170Y-56380523D01*
X194024717Y-56386825D01*
X193992319Y-56428516D01*
X193975489Y-56476735D01*
X193970621Y-56528534D01*
X193840580Y-56528534D01*
X193840195Y-56523161D01*
X193841595Y-56489215D01*
X193850787Y-56434529D01*
X193868557Y-56385851D01*
X193894905Y-56343181D01*
X193929832Y-56306517D01*
X193953905Y-56288485D01*
X194004041Y-56262715D01*
X194055126Y-56246486D01*
X194103416Y-56237094D01*
X194156906Y-56231459D01*
X194215596Y-56229581D01*
X194480111Y-56229581D01*
X194480111Y-57230000D01*
G37*
G36*
X193633077Y-57230000D02*
G01*
X193507048Y-57230000D01*
X193507048Y-56816252D01*
X193308234Y-56816252D01*
X193066189Y-57230000D01*
X192919155Y-57230000D01*
X193193440Y-56783035D01*
X193187170Y-56780694D01*
X193141360Y-56759850D01*
X193097697Y-56733210D01*
X193086534Y-56724936D01*
X193051492Y-56690688D01*
X193022714Y-56648213D01*
X193008428Y-56616039D01*
X192996653Y-56566648D01*
X192993359Y-56517787D01*
X193123586Y-56517787D01*
X193123805Y-56529694D01*
X193130195Y-56578741D01*
X193147674Y-56624537D01*
X193179518Y-56664333D01*
X193211605Y-56686132D01*
X193257557Y-56703211D01*
X193307161Y-56711774D01*
X193357327Y-56714159D01*
X193507048Y-56714159D01*
X193507048Y-56331674D01*
X193364166Y-56331674D01*
X193334398Y-56332342D01*
X193280909Y-56337685D01*
X193230368Y-56350082D01*
X193182449Y-56374417D01*
X193175321Y-56379957D01*
X193144338Y-56418581D01*
X193128242Y-56465664D01*
X193123586Y-56517787D01*
X192993359Y-56517787D01*
X192993161Y-56514856D01*
X192994550Y-56480147D01*
X193003666Y-56424861D01*
X193021291Y-56376517D01*
X193047424Y-56335115D01*
X193082065Y-56300655D01*
X193099591Y-56287954D01*
X193147147Y-56263175D01*
X193195333Y-56247349D01*
X193250370Y-56236522D01*
X193301469Y-56231316D01*
X193357327Y-56229581D01*
X193633077Y-56229581D01*
X193633077Y-57230000D01*
G37*
G36*
X191251221Y-56229581D02*
G01*
X191517201Y-57230000D01*
X191644452Y-57230000D01*
X191839113Y-56583977D01*
X191852455Y-56536411D01*
X191861584Y-56503866D01*
X191874542Y-56455184D01*
X191879902Y-56432791D01*
X191889672Y-56389316D01*
X191898373Y-56439141D01*
X191904326Y-56466008D01*
X191916090Y-56514441D01*
X191929951Y-56564487D01*
X191937055Y-56588129D01*
X192126099Y-57230000D01*
X192253593Y-57230000D01*
X192518108Y-56229581D01*
X192386461Y-56229581D01*
X192231123Y-56842142D01*
X192219205Y-56890067D01*
X192207921Y-56940590D01*
X192202547Y-56967194D01*
X192193010Y-57018672D01*
X192185343Y-57067532D01*
X192183496Y-57081011D01*
X192176156Y-57031223D01*
X192166913Y-56981558D01*
X192162735Y-56961577D01*
X192151527Y-56913446D01*
X192139150Y-56866139D01*
X192130251Y-56835059D01*
X191953907Y-56229581D01*
X191823726Y-56229581D01*
X191640300Y-56839455D01*
X191626435Y-56887747D01*
X191614150Y-56935901D01*
X191606838Y-56967927D01*
X191596538Y-57017461D01*
X191587658Y-57068505D01*
X191585833Y-57081011D01*
X191578012Y-57030253D01*
X191568582Y-56979296D01*
X191566294Y-56967927D01*
X191555289Y-56917469D01*
X191543915Y-56869389D01*
X191536741Y-56840676D01*
X191382868Y-56229581D01*
X191251221Y-56229581D01*
G37*
G36*
X191051674Y-56198318D02*
G01*
X191004805Y-56214847D01*
X191002093Y-56217124D01*
X190981120Y-56262036D01*
X190980355Y-56276475D01*
X190992583Y-56324103D01*
X191002093Y-56335094D01*
X191048189Y-56354557D01*
X191051674Y-56354633D01*
X191099430Y-56338586D01*
X191103454Y-56335094D01*
X191123720Y-56290443D01*
X191124459Y-56276475D01*
X191112643Y-56227886D01*
X191103454Y-56217124D01*
X191057359Y-56198483D01*
X191051674Y-56198318D01*
G37*
G36*
X190991346Y-56479685D02*
G01*
X190991346Y-57230000D01*
X191114689Y-57230000D01*
X191114689Y-56479685D01*
X190991346Y-56479685D01*
G37*
G36*
X190503593Y-57143538D02*
G01*
X190453504Y-57139985D01*
X190446196Y-57138897D01*
X190398569Y-57128394D01*
X190398569Y-57223405D01*
X190445666Y-57237697D01*
X190454501Y-57239281D01*
X190503270Y-57245011D01*
X190524598Y-57245631D01*
X190574206Y-57241798D01*
X190623622Y-57229182D01*
X190633042Y-57225603D01*
X190675446Y-57200104D01*
X190709692Y-57161618D01*
X190713642Y-57155505D01*
X190733568Y-57108173D01*
X190742493Y-57057732D01*
X190744417Y-57015066D01*
X190744417Y-56581779D01*
X190850662Y-56581779D01*
X190850662Y-56519497D01*
X190742951Y-56469672D01*
X190693859Y-56307739D01*
X190621074Y-56307739D01*
X190621074Y-56479685D01*
X190404187Y-56479685D01*
X190404187Y-56581779D01*
X190621074Y-56581779D01*
X190621074Y-57010669D01*
X190615673Y-57059993D01*
X190594195Y-57104651D01*
X190588346Y-57111053D01*
X190545301Y-57137320D01*
X190503593Y-57143538D01*
G37*
G36*
X190125750Y-56477487D02*
G01*
X190127306Y-56528192D01*
X190132397Y-56578964D01*
X190132833Y-56582023D01*
X190124528Y-56582023D01*
X190093594Y-56542261D01*
X190055377Y-56510536D01*
X190025854Y-56493852D01*
X189977517Y-56475694D01*
X189926295Y-56465916D01*
X189890544Y-56464054D01*
X189841565Y-56466355D01*
X189790502Y-56474857D01*
X189740157Y-56492244D01*
X189698361Y-56517813D01*
X189684891Y-56529511D01*
X189651715Y-56572492D01*
X189631339Y-56621271D01*
X189620549Y-56672118D01*
X189616527Y-56721766D01*
X189616259Y-56739560D01*
X189616259Y-57230000D01*
X189738136Y-57230000D01*
X189738136Y-56747620D01*
X189742233Y-56695340D01*
X189757964Y-56644301D01*
X189791228Y-56600882D01*
X189840550Y-56574831D01*
X189895608Y-56566325D01*
X189905931Y-56566147D01*
X189957282Y-56569548D01*
X190006696Y-56581764D01*
X190050462Y-56606127D01*
X190078855Y-56637222D01*
X190101524Y-56682032D01*
X190115446Y-56729972D01*
X190123506Y-56785545D01*
X190125750Y-56840432D01*
X190125750Y-57230000D01*
X190249092Y-57230000D01*
X190249092Y-56167055D01*
X190125750Y-56167055D01*
X190125750Y-56477487D01*
G37*
G36*
X189097590Y-56464450D02*
G01*
X189154091Y-56470389D01*
X189205851Y-56483455D01*
X189252872Y-56503648D01*
X189295152Y-56530968D01*
X189332693Y-56565415D01*
X189359713Y-56599107D01*
X189386091Y-56645062D01*
X189405874Y-56697046D01*
X189417323Y-56744970D01*
X189424193Y-56797081D01*
X189426482Y-56853377D01*
X189426308Y-56868864D01*
X189422947Y-56920782D01*
X189415308Y-56969148D01*
X189401341Y-57020073D01*
X189381786Y-57066357D01*
X189366943Y-57092803D01*
X189336198Y-57135206D01*
X189300276Y-57170924D01*
X189259176Y-57199958D01*
X189234374Y-57213115D01*
X189187055Y-57231180D01*
X189136297Y-57242018D01*
X189082100Y-57245631D01*
X189062211Y-57245230D01*
X189005683Y-57239220D01*
X188953859Y-57225996D01*
X188906741Y-57205560D01*
X188864329Y-57177911D01*
X188826622Y-57143049D01*
X188799392Y-57108929D01*
X188772807Y-57062538D01*
X188752869Y-57010205D01*
X188741331Y-56962056D01*
X188734408Y-56909779D01*
X188732100Y-56853377D01*
X188732104Y-56852644D01*
X188859351Y-56852644D01*
X188859403Y-56860971D01*
X188862678Y-56916209D01*
X188871050Y-56966117D01*
X188886857Y-57016630D01*
X188912595Y-57065136D01*
X188934675Y-57091780D01*
X188975715Y-57121410D01*
X189026260Y-57138637D01*
X189079169Y-57143538D01*
X189120027Y-57140781D01*
X189167693Y-57128531D01*
X189212011Y-57103035D01*
X189246475Y-57065136D01*
X189252834Y-57055118D01*
X189274167Y-57010696D01*
X189288936Y-56959314D01*
X189296475Y-56908644D01*
X189298988Y-56852644D01*
X189298937Y-56844320D01*
X189295751Y-56789217D01*
X189287610Y-56739655D01*
X189272238Y-56689795D01*
X189247208Y-56642351D01*
X189225575Y-56616454D01*
X189184819Y-56587654D01*
X189134093Y-56570910D01*
X189080635Y-56566147D01*
X189039751Y-56568826D01*
X188991971Y-56580733D01*
X188947414Y-56605514D01*
X188912595Y-56642351D01*
X188909320Y-56647170D01*
X188884517Y-56695631D01*
X188869542Y-56746396D01*
X188861898Y-56796750D01*
X188859351Y-56852644D01*
X188732104Y-56852644D01*
X188732143Y-56845599D01*
X188734863Y-56793263D01*
X188743152Y-56737972D01*
X188756967Y-56687506D01*
X188776308Y-56641863D01*
X188790869Y-56615839D01*
X188821228Y-56574016D01*
X188856918Y-56538645D01*
X188897941Y-56509727D01*
X188927926Y-56494206D01*
X188976122Y-56476944D01*
X189028183Y-56466909D01*
X189077704Y-56464054D01*
X189097590Y-56464450D01*
G37*
G36*
X187910223Y-56479685D02*
G01*
X187910223Y-57230000D01*
X188011095Y-57230000D01*
X188029169Y-57132302D01*
X188034787Y-57132302D01*
X188066031Y-57172019D01*
X188105174Y-57202873D01*
X188135659Y-57218520D01*
X188185038Y-57235041D01*
X188236821Y-57243937D01*
X188272679Y-57245631D01*
X188328877Y-57242511D01*
X188378647Y-57233149D01*
X188427656Y-57214808D01*
X188472755Y-57184430D01*
X188477110Y-57180418D01*
X188510287Y-57137573D01*
X188530662Y-57089140D01*
X188541453Y-57038773D01*
X188545475Y-56989665D01*
X188545743Y-56972079D01*
X188545743Y-56479685D01*
X188421179Y-56479685D01*
X188421179Y-56963775D01*
X188417112Y-57015562D01*
X188401496Y-57066120D01*
X188368474Y-57109130D01*
X188319510Y-57134936D01*
X188264853Y-57143362D01*
X188254605Y-57143538D01*
X188203755Y-57140183D01*
X188154571Y-57128135D01*
X188110624Y-57104108D01*
X188081681Y-57073440D01*
X188058304Y-57029004D01*
X188043947Y-56981331D01*
X188035635Y-56925964D01*
X188033321Y-56871207D01*
X188033321Y-56479685D01*
X187910223Y-56479685D01*
G37*
G36*
X187422226Y-57143538D02*
G01*
X187372137Y-57139985D01*
X187364829Y-57138897D01*
X187317201Y-57128394D01*
X187317201Y-57223405D01*
X187364298Y-57237697D01*
X187373133Y-57239281D01*
X187421902Y-57245011D01*
X187443230Y-57245631D01*
X187492838Y-57241798D01*
X187542255Y-57229182D01*
X187551674Y-57225603D01*
X187594078Y-57200104D01*
X187628325Y-57161618D01*
X187632274Y-57155505D01*
X187652200Y-57108173D01*
X187661126Y-57057732D01*
X187663049Y-57015066D01*
X187663049Y-56581779D01*
X187769295Y-56581779D01*
X187769295Y-56519497D01*
X187661584Y-56469672D01*
X187612491Y-56307739D01*
X187539706Y-56307739D01*
X187539706Y-56479685D01*
X187322819Y-56479685D01*
X187322819Y-56581779D01*
X187539706Y-56581779D01*
X187539706Y-57010669D01*
X187534305Y-57059993D01*
X187512827Y-57104651D01*
X187506978Y-57111053D01*
X187463933Y-57137320D01*
X187422226Y-57143538D01*
G37*
G36*
X186471144Y-57230000D02*
G01*
X186596929Y-57230000D01*
X186596929Y-56331674D01*
X186909316Y-56331674D01*
X186909316Y-56229581D01*
X186160223Y-56229581D01*
X186160223Y-56331674D01*
X186471144Y-56331674D01*
X186471144Y-57230000D01*
G37*
G36*
X185864871Y-56465223D02*
G01*
X185916709Y-56473217D01*
X185964683Y-56488784D01*
X186008792Y-56511926D01*
X186031401Y-56527811D01*
X186067951Y-56561453D01*
X186099167Y-56601587D01*
X186125052Y-56648213D01*
X186130050Y-56659432D01*
X186146819Y-56707036D01*
X186158428Y-56759007D01*
X186164354Y-56808062D01*
X186166329Y-56860460D01*
X186166285Y-56868238D01*
X186163490Y-56920574D01*
X186154972Y-56975865D01*
X186140775Y-57026331D01*
X186120900Y-57071974D01*
X186105744Y-57097950D01*
X186074017Y-57139447D01*
X186036570Y-57174183D01*
X185993405Y-57202156D01*
X185956428Y-57219096D01*
X185905416Y-57234762D01*
X185856797Y-57242914D01*
X185805094Y-57245631D01*
X185772439Y-57245082D01*
X185721137Y-57241584D01*
X185672226Y-57234152D01*
X185654641Y-57230254D01*
X185605086Y-57216042D01*
X185558653Y-57198492D01*
X185558653Y-57091514D01*
X185576964Y-57099160D01*
X185623791Y-57116304D01*
X185672958Y-57130348D01*
X185697879Y-57135488D01*
X185748254Y-57141683D01*
X185799476Y-57143538D01*
X185839765Y-57141159D01*
X185888033Y-57130588D01*
X185934891Y-57108587D01*
X185973866Y-57075882D01*
X186004185Y-57032938D01*
X186023221Y-56986559D01*
X186034807Y-56932455D01*
X186038834Y-56878778D01*
X185524947Y-56878778D01*
X185524947Y-56804284D01*
X185525527Y-56779043D01*
X185525770Y-56776685D01*
X185653907Y-56776685D01*
X186036147Y-56776685D01*
X186034765Y-56764459D01*
X186024553Y-56713648D01*
X186005548Y-56665257D01*
X185975331Y-56621835D01*
X185935710Y-56590130D01*
X185887374Y-56571586D01*
X185835868Y-56566147D01*
X185782187Y-56571872D01*
X185734544Y-56591392D01*
X185698848Y-56624766D01*
X185693578Y-56632200D01*
X185670458Y-56677999D01*
X185658055Y-56726848D01*
X185653907Y-56776685D01*
X185525770Y-56776685D01*
X185531074Y-56725209D01*
X185542494Y-56675471D01*
X185562072Y-56625010D01*
X185566839Y-56615559D01*
X185594450Y-56572368D01*
X185628357Y-56535951D01*
X185668562Y-56506308D01*
X185686327Y-56496405D01*
X185734446Y-56477423D01*
X185782280Y-56467396D01*
X185834403Y-56464054D01*
X185864871Y-56465223D01*
G37*
G36*
X185086684Y-56465275D02*
G01*
X185139509Y-56471687D01*
X185190823Y-56483593D01*
X185211365Y-56489896D01*
X185260590Y-56508125D01*
X185306838Y-56530732D01*
X185268981Y-56628185D01*
X185263184Y-56625184D01*
X185218004Y-56604010D01*
X185169818Y-56585198D01*
X185156419Y-56580733D01*
X185108140Y-56569794D01*
X185057711Y-56566147D01*
X185035330Y-56567102D01*
X184984844Y-56578512D01*
X184942916Y-56605226D01*
X184918210Y-56643008D01*
X184905579Y-56692847D01*
X184902372Y-56744445D01*
X184902372Y-56792316D01*
X185029623Y-56792316D01*
X185040994Y-56792375D01*
X185095059Y-56794446D01*
X185153797Y-56800834D01*
X185205838Y-56811482D01*
X185258088Y-56829287D01*
X185301221Y-56852889D01*
X185335577Y-56881725D01*
X185367349Y-56925978D01*
X185383882Y-56972094D01*
X185389392Y-57024591D01*
X185387753Y-57058757D01*
X185378307Y-57107269D01*
X185357646Y-57152796D01*
X185322226Y-57192142D01*
X185300383Y-57207551D01*
X185251582Y-57230535D01*
X185201829Y-57242288D01*
X185152965Y-57245631D01*
X185102650Y-57243255D01*
X185050021Y-57233896D01*
X185003733Y-57215589D01*
X184973776Y-57196102D01*
X184935096Y-57162064D01*
X184900907Y-57122777D01*
X184895289Y-57122777D01*
X184871353Y-57230000D01*
X184781960Y-57230000D01*
X184781960Y-56935687D01*
X184903593Y-56935687D01*
X184904147Y-56955079D01*
X184912455Y-57007460D01*
X184933378Y-57055464D01*
X184966608Y-57092735D01*
X184978707Y-57101814D01*
X185023128Y-57125628D01*
X185073847Y-57139519D01*
X185124877Y-57143538D01*
X185128612Y-57143509D01*
X185179588Y-57136149D01*
X185223551Y-57113984D01*
X185225926Y-57112104D01*
X185254755Y-57070072D01*
X185262142Y-57021172D01*
X185260244Y-56995386D01*
X185243113Y-56947353D01*
X185208164Y-56910041D01*
X185166032Y-56889176D01*
X185113757Y-56877004D01*
X185063695Y-56871865D01*
X185014235Y-56870474D01*
X184903593Y-56870474D01*
X184903593Y-56935687D01*
X184781960Y-56935687D01*
X184781960Y-56717090D01*
X184784270Y-56670063D01*
X184794536Y-56615215D01*
X184815902Y-56564241D01*
X184847662Y-56524626D01*
X184856154Y-56517291D01*
X184901288Y-56490140D01*
X184950911Y-56474051D01*
X185001669Y-56466183D01*
X185050628Y-56464054D01*
X185086684Y-56465275D01*
G37*
G36*
X184199441Y-56464054D02*
G01*
X184154012Y-56466496D01*
X184111270Y-56473579D01*
X184126657Y-56586175D01*
X184166468Y-56577138D01*
X184207745Y-56573475D01*
X184256659Y-56579552D01*
X184302954Y-56597785D01*
X184315701Y-56605226D01*
X184355845Y-56637871D01*
X184386174Y-56676891D01*
X184396057Y-56694131D01*
X184414363Y-56739491D01*
X184424221Y-56790210D01*
X184426099Y-56826999D01*
X184426099Y-57230000D01*
X184549441Y-57230000D01*
X184549441Y-56479685D01*
X184448569Y-56479685D01*
X184434647Y-56615729D01*
X184429030Y-56615729D01*
X184401528Y-56575237D01*
X184369062Y-56538728D01*
X184335240Y-56508995D01*
X184293298Y-56483408D01*
X184246391Y-56468443D01*
X184199441Y-56464054D01*
G37*
G36*
X183483321Y-57023859D02*
G01*
X183488405Y-57075241D01*
X183506275Y-57125091D01*
X183537014Y-57166517D01*
X183564654Y-57189455D01*
X183608709Y-57214032D01*
X183659787Y-57231587D01*
X183710240Y-57241187D01*
X183766069Y-57245412D01*
X183783007Y-57245631D01*
X183834340Y-57244130D01*
X183884480Y-57239070D01*
X183918073Y-57232930D01*
X183968298Y-57218823D01*
X184015483Y-57198925D01*
X184018213Y-57197515D01*
X184018213Y-57084187D01*
X183972124Y-57104097D01*
X183925408Y-57120224D01*
X183909769Y-57124975D01*
X183861650Y-57136287D01*
X183812912Y-57142377D01*
X183780076Y-57143538D01*
X183726538Y-57140604D01*
X183675705Y-57129338D01*
X183644521Y-57113496D01*
X183611742Y-57075664D01*
X183602512Y-57032896D01*
X183616036Y-56985383D01*
X183617899Y-56982581D01*
X183654719Y-56948876D01*
X183673098Y-56937641D01*
X183717988Y-56915341D01*
X183764797Y-56895723D01*
X183787159Y-56887083D01*
X183834717Y-56867911D01*
X183880936Y-56846931D01*
X183911723Y-56831151D01*
X183955061Y-56802403D01*
X183989812Y-56766416D01*
X183991591Y-56763984D01*
X184012657Y-56719105D01*
X184019569Y-56670719D01*
X184019678Y-56663112D01*
X184013535Y-56612852D01*
X183992297Y-56565120D01*
X183955890Y-56525926D01*
X183942009Y-56515833D01*
X183894396Y-56490803D01*
X183845716Y-56475431D01*
X183791051Y-56466532D01*
X183738311Y-56464054D01*
X183688107Y-56465977D01*
X183636589Y-56472402D01*
X183610083Y-56477732D01*
X183562952Y-56490618D01*
X183515080Y-56508463D01*
X183498709Y-56515833D01*
X183540718Y-56620369D01*
X183586281Y-56600928D01*
X183633669Y-56584277D01*
X183640125Y-56582267D01*
X183689312Y-56570697D01*
X183739788Y-56566210D01*
X183746615Y-56566147D01*
X183798238Y-56569616D01*
X183845876Y-56582433D01*
X183862142Y-56590816D01*
X183896355Y-56628311D01*
X183901953Y-56657494D01*
X183888116Y-56704431D01*
X183883879Y-56710006D01*
X183844929Y-56740623D01*
X183822819Y-56752260D01*
X183776469Y-56772983D01*
X183730347Y-56792034D01*
X183708757Y-56800621D01*
X183662208Y-56819097D01*
X183617088Y-56839647D01*
X183587124Y-56855331D01*
X183544985Y-56884293D01*
X183511631Y-56920983D01*
X183509944Y-56923475D01*
X183489977Y-56968599D01*
X183483347Y-57020108D01*
X183483321Y-57023859D01*
G37*
D11*
G36*
X205773705Y-53380000D02*
G01*
X205434305Y-52160739D01*
X205701311Y-52160739D01*
X205884494Y-53075771D01*
X206082916Y-52160739D01*
X206331458Y-52160739D01*
X206521381Y-53074012D01*
X206711304Y-52160739D01*
X206978311Y-52160739D01*
X206632170Y-53380000D01*
X206405317Y-53380000D01*
X206205429Y-52428625D01*
X206000558Y-53380000D01*
X205773705Y-53380000D01*
G37*
G36*
X204416399Y-52533551D02*
G01*
X204421298Y-52465650D01*
X204434911Y-52403816D01*
X204457097Y-52348185D01*
X204499767Y-52283887D01*
X204557087Y-52231167D01*
X204609490Y-52199416D01*
X204669802Y-52174488D01*
X204737881Y-52156518D01*
X204813587Y-52145638D01*
X204896775Y-52141981D01*
X204976216Y-52145589D01*
X205048864Y-52156282D01*
X205114497Y-52173867D01*
X205172892Y-52198148D01*
X205223825Y-52228933D01*
X205279744Y-52279760D01*
X205321473Y-52341343D01*
X205348482Y-52413221D01*
X205358762Y-52473609D01*
X205360739Y-52516845D01*
X205356135Y-52582975D01*
X205341876Y-52640644D01*
X205309455Y-52701761D01*
X205259593Y-52751798D01*
X205206268Y-52784646D01*
X205140274Y-52811771D01*
X205082062Y-52828724D01*
X205016064Y-52843056D01*
X204844898Y-52876468D01*
X204786698Y-52889111D01*
X204727150Y-52907539D01*
X204673729Y-52934608D01*
X204630252Y-52981491D01*
X204614712Y-53043855D01*
X204614528Y-53052909D01*
X204627666Y-53113546D01*
X204665607Y-53161424D01*
X204716195Y-53191246D01*
X204781991Y-53209786D01*
X204847435Y-53215981D01*
X204861605Y-53216161D01*
X204922321Y-53212822D01*
X204988011Y-53199428D01*
X205042122Y-53176082D01*
X205091412Y-53135375D01*
X205123222Y-53081338D01*
X205137110Y-53014515D01*
X205382428Y-53014515D01*
X205373832Y-53084594D01*
X205356722Y-53148352D01*
X205331254Y-53205662D01*
X205297585Y-53256401D01*
X205255871Y-53300443D01*
X205206268Y-53337665D01*
X205148934Y-53367940D01*
X205084024Y-53391146D01*
X205011696Y-53407157D01*
X204932105Y-53415849D01*
X204875087Y-53417515D01*
X204789688Y-53413702D01*
X204711401Y-53402407D01*
X204640509Y-53383843D01*
X204577291Y-53358226D01*
X204522029Y-53325769D01*
X204475004Y-53286688D01*
X204436498Y-53241196D01*
X204406791Y-53189508D01*
X204386164Y-53131839D01*
X204374899Y-53068403D01*
X204372728Y-53023014D01*
X204377352Y-52955462D01*
X204391477Y-52896074D01*
X204423068Y-52832696D01*
X204470831Y-52780639D01*
X204521182Y-52746607D01*
X204582733Y-52718900D01*
X204655863Y-52697108D01*
X204696887Y-52688304D01*
X204888569Y-52651667D01*
X204950114Y-52638484D01*
X205011582Y-52621052D01*
X205071861Y-52592683D01*
X205112126Y-52544487D01*
X205120404Y-52493691D01*
X205105763Y-52431542D01*
X205063728Y-52384258D01*
X205006699Y-52356915D01*
X204944285Y-52345146D01*
X204908792Y-52343628D01*
X204839128Y-52348482D01*
X204780039Y-52362884D01*
X204723412Y-52392428D01*
X204682736Y-52434955D01*
X204658404Y-52490048D01*
X204651458Y-52533551D01*
X204416399Y-52533551D01*
G37*
G36*
X204188960Y-53380000D02*
G01*
X203936901Y-53380000D01*
X203936901Y-52948569D01*
X203622707Y-52948569D01*
X203561577Y-52944423D01*
X203487228Y-52926417D01*
X203421746Y-52894905D01*
X203365879Y-52850713D01*
X203320376Y-52794665D01*
X203285986Y-52727584D01*
X203267937Y-52670529D01*
X203256876Y-52608081D01*
X203253869Y-52554068D01*
X203505177Y-52554068D01*
X203511796Y-52617799D01*
X203536610Y-52674753D01*
X203588272Y-52717510D01*
X203654570Y-52735939D01*
X203701549Y-52738715D01*
X203936901Y-52738715D01*
X203936901Y-52370886D01*
X203701549Y-52370886D01*
X203633580Y-52377142D01*
X203572979Y-52400486D01*
X203527609Y-52448821D01*
X203508110Y-52510517D01*
X203505177Y-52554068D01*
X203253869Y-52554068D01*
X203253119Y-52540586D01*
X203256778Y-52474531D01*
X203267676Y-52414436D01*
X203293267Y-52343783D01*
X203331241Y-52284211D01*
X203381320Y-52236000D01*
X203443227Y-52199427D01*
X203516683Y-52174771D01*
X203579187Y-52164267D01*
X203647913Y-52160739D01*
X204188960Y-52160739D01*
X204188960Y-53380000D01*
G37*
G36*
X203094263Y-53380000D02*
G01*
X202842205Y-53380000D01*
X202842205Y-52896106D01*
X202553217Y-52896106D01*
X202490273Y-52902510D01*
X202434112Y-52930471D01*
X202403893Y-52982218D01*
X202396999Y-53040013D01*
X202396999Y-53090425D01*
X202398704Y-53150300D01*
X202398757Y-53170732D01*
X202397615Y-53236072D01*
X202391613Y-53296688D01*
X202374325Y-53353844D01*
X202361828Y-53380000D01*
X202091304Y-53380000D01*
X202091304Y-53334863D01*
X202134079Y-53293584D01*
X202144940Y-53234333D01*
X202146241Y-53170771D01*
X202148670Y-53089239D01*
X202152332Y-53022552D01*
X202160406Y-52953369D01*
X202178095Y-52892128D01*
X202214977Y-52843781D01*
X202274522Y-52808179D01*
X202314640Y-52790300D01*
X202255113Y-52761741D01*
X202205675Y-52726555D01*
X202159668Y-52675444D01*
X202128189Y-52614472D01*
X202113055Y-52556004D01*
X202110673Y-52525052D01*
X202360069Y-52525052D01*
X202366406Y-52585104D01*
X202392346Y-52641389D01*
X202405498Y-52654598D01*
X202459279Y-52679855D01*
X202518726Y-52685737D01*
X202537976Y-52685959D01*
X202842205Y-52685959D01*
X202842205Y-52370886D01*
X202537976Y-52370886D01*
X202477186Y-52373740D01*
X202420396Y-52392149D01*
X202405498Y-52402540D01*
X202371353Y-52452035D01*
X202360245Y-52514676D01*
X202360069Y-52525052D01*
X202110673Y-52525052D01*
X202108011Y-52490467D01*
X202112757Y-52428499D01*
X202126629Y-52370025D01*
X202152947Y-52309154D01*
X202189638Y-52256505D01*
X202200334Y-52244856D01*
X202246080Y-52207602D01*
X202300535Y-52181366D01*
X202364168Y-52165845D01*
X202427742Y-52160818D01*
X202437445Y-52160739D01*
X203094263Y-52160739D01*
X203094263Y-53380000D01*
G37*
G36*
X201162205Y-52821074D02*
G01*
X201162205Y-53380000D01*
X200910146Y-53380000D01*
X200910146Y-52160739D01*
X201163963Y-52160739D01*
X201163963Y-52610928D01*
X201647857Y-52610928D01*
X201647857Y-52160739D01*
X201899916Y-52160739D01*
X201899916Y-53380000D01*
X201647857Y-53380000D01*
X201647857Y-52821074D01*
X201162205Y-52821074D01*
G37*
G36*
X200770928Y-53380000D02*
G01*
X200513886Y-53380000D01*
X200431821Y-53136147D01*
X199973133Y-53136147D01*
X199892240Y-53380000D01*
X199633733Y-53380000D01*
X199791221Y-52926294D01*
X200042009Y-52926294D01*
X200361186Y-52926294D01*
X200201451Y-52448848D01*
X200042009Y-52926294D01*
X199791221Y-52926294D01*
X200056957Y-52160739D01*
X200335980Y-52160739D01*
X200770928Y-53380000D01*
G37*
G36*
X199095324Y-52370886D02*
G01*
X198737459Y-52370886D01*
X198737459Y-52160739D01*
X199718436Y-52160739D01*
X199718436Y-52370886D01*
X199347090Y-52370886D01*
X199347090Y-53380000D01*
X199095324Y-53380000D01*
X199095324Y-52370886D01*
G37*
G36*
X197718087Y-52160739D02*
G01*
X198638981Y-52160739D01*
X198638981Y-52370886D01*
X198012058Y-52370886D01*
X198638981Y-53170146D01*
X198638981Y-53380000D01*
X197718087Y-53380000D01*
X197718087Y-53170146D01*
X198343251Y-53170146D01*
X197718087Y-52370886D01*
X197718087Y-52160739D01*
G37*
G36*
X197291639Y-52854780D02*
G01*
X196705163Y-52854780D01*
X196705163Y-52644926D01*
X197291639Y-52644926D01*
X197291639Y-52370886D01*
X196658269Y-52370886D01*
X196658269Y-52160739D01*
X197543698Y-52160739D01*
X197543698Y-53380000D01*
X196627787Y-53380000D01*
X196627787Y-53170146D01*
X197291639Y-53170146D01*
X197291639Y-52854780D01*
G37*
G36*
X196422330Y-53380000D02*
G01*
X196170272Y-53380000D01*
X196170272Y-52896106D01*
X195881284Y-52896106D01*
X195818340Y-52902510D01*
X195762178Y-52930471D01*
X195731960Y-52982218D01*
X195725066Y-53040013D01*
X195725066Y-53090425D01*
X195726771Y-53150300D01*
X195726824Y-53170732D01*
X195725682Y-53236072D01*
X195719680Y-53296688D01*
X195702392Y-53353844D01*
X195689895Y-53380000D01*
X195419371Y-53380000D01*
X195419371Y-53334863D01*
X195462146Y-53293584D01*
X195473007Y-53234333D01*
X195474308Y-53170771D01*
X195476737Y-53089239D01*
X195480399Y-53022552D01*
X195488473Y-52953369D01*
X195506162Y-52892128D01*
X195543044Y-52843781D01*
X195602589Y-52808179D01*
X195642707Y-52790300D01*
X195583180Y-52761741D01*
X195533742Y-52726555D01*
X195487735Y-52675444D01*
X195456256Y-52614472D01*
X195441122Y-52556004D01*
X195438740Y-52525052D01*
X195688136Y-52525052D01*
X195694473Y-52585104D01*
X195720413Y-52641389D01*
X195733565Y-52654598D01*
X195787346Y-52679855D01*
X195846793Y-52685737D01*
X195866043Y-52685959D01*
X196170272Y-52685959D01*
X196170272Y-52370886D01*
X195866043Y-52370886D01*
X195805253Y-52373740D01*
X195748463Y-52392149D01*
X195733565Y-52402540D01*
X195699420Y-52452035D01*
X195688312Y-52514676D01*
X195688136Y-52525052D01*
X195438740Y-52525052D01*
X195436078Y-52490467D01*
X195440824Y-52428499D01*
X195454696Y-52370025D01*
X195481014Y-52309154D01*
X195517705Y-52256505D01*
X195528401Y-52244856D01*
X195574147Y-52207602D01*
X195628602Y-52181366D01*
X195692235Y-52165845D01*
X195755809Y-52160818D01*
X195765512Y-52160739D01*
X196422330Y-52160739D01*
X196422330Y-53380000D01*
G37*
G36*
X194768549Y-52144657D02*
G01*
X194828472Y-52152670D01*
X194899135Y-52170161D01*
X194964949Y-52195919D01*
X195025767Y-52229904D01*
X195081440Y-52272076D01*
X195122177Y-52311681D01*
X195160932Y-52358025D01*
X195195088Y-52408809D01*
X195224470Y-52463557D01*
X195248902Y-52521791D01*
X195268210Y-52583034D01*
X195282218Y-52646808D01*
X195290752Y-52712637D01*
X195293635Y-52780041D01*
X195290752Y-52847421D01*
X195282218Y-52913352D01*
X195268210Y-52977291D01*
X195248902Y-53038695D01*
X195224470Y-53097021D01*
X195195088Y-53151727D01*
X195160932Y-53202270D01*
X195122177Y-53248108D01*
X195070221Y-53297271D01*
X195013472Y-53337920D01*
X194951815Y-53370131D01*
X194885136Y-53393976D01*
X194813321Y-53409529D01*
X194752095Y-53416052D01*
X194703935Y-53417515D01*
X194640151Y-53414912D01*
X194579770Y-53407078D01*
X194508991Y-53389872D01*
X194443326Y-53364360D01*
X194382660Y-53330468D01*
X194326878Y-53288122D01*
X194285694Y-53248108D01*
X194247949Y-53203236D01*
X194214267Y-53153133D01*
X194184947Y-53098613D01*
X194160287Y-53040490D01*
X194140588Y-52979578D01*
X194126147Y-52916691D01*
X194117263Y-52852643D01*
X194114235Y-52788248D01*
X194114307Y-52786489D01*
X194366294Y-52786489D01*
X194369822Y-52854458D01*
X194380173Y-52917626D01*
X194397001Y-52975581D01*
X194428911Y-53044035D01*
X194470891Y-53101515D01*
X194522117Y-53147046D01*
X194581766Y-53179652D01*
X194649011Y-53198358D01*
X194703935Y-53202679D01*
X194777264Y-53195026D01*
X194843122Y-53172665D01*
X194900798Y-53136497D01*
X194949583Y-53087421D01*
X194988763Y-53026338D01*
X195017630Y-52954147D01*
X195032084Y-52893256D01*
X195040036Y-52827002D01*
X195041577Y-52780041D01*
X195038126Y-52710349D01*
X195027973Y-52645780D01*
X195011419Y-52586712D01*
X194979907Y-52517166D01*
X194938259Y-52458969D01*
X194887185Y-52413018D01*
X194827396Y-52380208D01*
X194759604Y-52361437D01*
X194703935Y-52357110D01*
X194630102Y-52364777D01*
X194564007Y-52387230D01*
X194506300Y-52423649D01*
X194457629Y-52473211D01*
X194418643Y-52535098D01*
X194389993Y-52608487D01*
X194375678Y-52670583D01*
X194367816Y-52738342D01*
X194366294Y-52786489D01*
X194114307Y-52786489D01*
X194117119Y-52718062D01*
X194125652Y-52650023D01*
X194139660Y-52584574D01*
X194158968Y-52522158D01*
X194183401Y-52463217D01*
X194212783Y-52408195D01*
X194246939Y-52357536D01*
X194285694Y-52311681D01*
X194338134Y-52261913D01*
X194394877Y-52221022D01*
X194456319Y-52188828D01*
X194522855Y-52165150D01*
X194594881Y-52149806D01*
X194656720Y-52143410D01*
X194705694Y-52141981D01*
X194768549Y-52144657D01*
G37*
G36*
X206333217Y-55396000D02*
G01*
X205913217Y-54176739D01*
X206166741Y-54176739D01*
X206434040Y-55094995D01*
X206706029Y-54176739D01*
X206959846Y-54176739D01*
X206546587Y-55396000D01*
X206333217Y-55396000D01*
G37*
G36*
X205565543Y-54481775D02*
G01*
X205630490Y-54496270D01*
X205689528Y-54519996D01*
X205742369Y-54552599D01*
X205788724Y-54593727D01*
X205828305Y-54643024D01*
X205860823Y-54700139D01*
X205885991Y-54764717D01*
X205903520Y-54836405D01*
X205913121Y-54914849D01*
X205914975Y-54970724D01*
X205910865Y-55047969D01*
X205898727Y-55119221D01*
X205878847Y-55184131D01*
X205851513Y-55242347D01*
X205817011Y-55293520D01*
X205775628Y-55337297D01*
X205727651Y-55373330D01*
X205673367Y-55401266D01*
X205613063Y-55420756D01*
X205547026Y-55431448D01*
X205499958Y-55433515D01*
X205425735Y-55428270D01*
X205355981Y-55412935D01*
X205291564Y-55388105D01*
X205233354Y-55354381D01*
X205182220Y-55312357D01*
X205139029Y-55262634D01*
X205104652Y-55205807D01*
X205079958Y-55142475D01*
X205311793Y-55142475D01*
X205344363Y-55194610D01*
X205392170Y-55231270D01*
X205453061Y-55250890D01*
X205491751Y-55253850D01*
X205550587Y-55245890D01*
X205604778Y-55219699D01*
X205646210Y-55176767D01*
X205668978Y-55122430D01*
X205677383Y-55063546D01*
X205679916Y-55020842D01*
X205071751Y-55020842D01*
X205069993Y-54980689D01*
X205072438Y-54913969D01*
X205077925Y-54864625D01*
X205315310Y-54864625D01*
X205676399Y-54864625D01*
X205666167Y-54804238D01*
X205645351Y-54745621D01*
X205609235Y-54696093D01*
X205552266Y-54663995D01*
X205498492Y-54656823D01*
X205434261Y-54667150D01*
X205383102Y-54697702D01*
X205345549Y-54747834D01*
X205324594Y-54805901D01*
X205315310Y-54864625D01*
X205077925Y-54864625D01*
X205079445Y-54850959D01*
X205090518Y-54792950D01*
X205105163Y-54741233D01*
X205131819Y-54682498D01*
X205165907Y-54630312D01*
X205206864Y-54585071D01*
X205254127Y-54547170D01*
X205307133Y-54517004D01*
X205365319Y-54494968D01*
X205428120Y-54481456D01*
X205494975Y-54476865D01*
X205565543Y-54481775D01*
G37*
G36*
X204912896Y-54495623D02*
G01*
X204912896Y-55396000D01*
X204677836Y-55396000D01*
X204677836Y-54917674D01*
X204672792Y-54857913D01*
X204653420Y-54799612D01*
X204612457Y-54750058D01*
X204551720Y-54720352D01*
X204483919Y-54710660D01*
X204471207Y-54710459D01*
X204411199Y-54715095D01*
X204397348Y-54717200D01*
X204397348Y-54478623D01*
X204425778Y-54476865D01*
X204484511Y-54484193D01*
X204547656Y-54510599D01*
X204596043Y-54547705D01*
X204638096Y-54597397D01*
X204672828Y-54658946D01*
X204677836Y-54670305D01*
X204677836Y-54495623D01*
X204912896Y-54495623D01*
G37*
G36*
X203513970Y-54783438D02*
G01*
X203521870Y-54715568D01*
X203542766Y-54655165D01*
X203576083Y-54602717D01*
X203621242Y-54558711D01*
X203677666Y-54523635D01*
X203744780Y-54497977D01*
X203822005Y-54482224D01*
X203886212Y-54477204D01*
X203908764Y-54476865D01*
X203971125Y-54479887D01*
X204046634Y-54493039D01*
X204112819Y-54516116D01*
X204169031Y-54548572D01*
X204214620Y-54589862D01*
X204248937Y-54639438D01*
X204271334Y-54696756D01*
X204281160Y-54761268D01*
X204281577Y-54778456D01*
X204275233Y-54837083D01*
X204252519Y-54895963D01*
X204231165Y-54925295D01*
X204182128Y-54961905D01*
X204126774Y-54985557D01*
X204083447Y-55000326D01*
X203802958Y-55087081D01*
X203749077Y-55110698D01*
X203723824Y-55160354D01*
X203754836Y-55215984D01*
X203809679Y-55239437D01*
X203869004Y-55247996D01*
X203898506Y-55248868D01*
X203957201Y-55245264D01*
X204015788Y-55229782D01*
X204038018Y-55217214D01*
X204073571Y-55169641D01*
X204083447Y-55132217D01*
X204313524Y-55132217D01*
X204304488Y-55202301D01*
X204282511Y-55263252D01*
X204247702Y-55315005D01*
X204200170Y-55357495D01*
X204140027Y-55390656D01*
X204067382Y-55414423D01*
X204004759Y-55426045D01*
X203935212Y-55432318D01*
X203885024Y-55433515D01*
X203817443Y-55430698D01*
X203756121Y-55422232D01*
X203692429Y-55405184D01*
X203637120Y-55380379D01*
X203596329Y-55352915D01*
X203551083Y-55307431D01*
X203517267Y-55253044D01*
X203496092Y-55192173D01*
X203488764Y-55127235D01*
X203494960Y-55065863D01*
X203517925Y-55005343D01*
X203557959Y-54956652D01*
X203615190Y-54919679D01*
X203666671Y-54900382D01*
X203964159Y-54815092D01*
X204018940Y-54793907D01*
X204046517Y-54745043D01*
X204017686Y-54690496D01*
X203959930Y-54666424D01*
X203910230Y-54661806D01*
X203844542Y-54667549D01*
X203789302Y-54688292D01*
X203749560Y-54735770D01*
X203740823Y-54783438D01*
X203513970Y-54783438D01*
G37*
G36*
X203081367Y-54495623D02*
G01*
X203316427Y-54495623D01*
X203316427Y-55396000D01*
X203081367Y-55396000D01*
X203081367Y-54495623D01*
G37*
G36*
X203081367Y-54176739D02*
G01*
X203316427Y-54176739D01*
X203316427Y-54386886D01*
X203081367Y-54386886D01*
X203081367Y-54176739D01*
G37*
G36*
X202531883Y-54481636D02*
G01*
X202600996Y-54495715D01*
X202663823Y-54518750D01*
X202720057Y-54550389D01*
X202769389Y-54590279D01*
X202811512Y-54638069D01*
X202846120Y-54693406D01*
X202872906Y-54755938D01*
X202891562Y-54825314D01*
X202901780Y-54901180D01*
X202903754Y-54955190D01*
X202899329Y-55035594D01*
X202886254Y-55109583D01*
X202864826Y-55176830D01*
X202835346Y-55237009D01*
X202798110Y-55289795D01*
X202753417Y-55334861D01*
X202701567Y-55371881D01*
X202642857Y-55400529D01*
X202577586Y-55420479D01*
X202506052Y-55431405D01*
X202455031Y-55433515D01*
X202379901Y-55428791D01*
X202310689Y-55414860D01*
X202247714Y-55392080D01*
X202191300Y-55360810D01*
X202141768Y-55321411D01*
X202099439Y-55274241D01*
X202064635Y-55219660D01*
X202037678Y-55158028D01*
X202018889Y-55089702D01*
X202008591Y-55015044D01*
X202006601Y-54961931D01*
X202006771Y-54958707D01*
X202241660Y-54958707D01*
X202245659Y-55019263D01*
X202261304Y-55087023D01*
X202287739Y-55144565D01*
X202332135Y-55198012D01*
X202388541Y-55231984D01*
X202455031Y-55243885D01*
X202522174Y-55232111D01*
X202578699Y-55198290D01*
X202622891Y-55144669D01*
X202649057Y-55086483D01*
X202664474Y-55017411D01*
X202668401Y-54955190D01*
X202664474Y-54893066D01*
X202649057Y-54824081D01*
X202622891Y-54765952D01*
X202578699Y-54712368D01*
X202522174Y-54678560D01*
X202455031Y-54666788D01*
X202387343Y-54678583D01*
X202330718Y-54712553D01*
X202286698Y-54766578D01*
X202260755Y-54825387D01*
X202245527Y-54895422D01*
X202241660Y-54958707D01*
X202006771Y-54958707D01*
X202010943Y-54879464D01*
X202023809Y-54803868D01*
X202044961Y-54735414D01*
X202074159Y-54674372D01*
X202111164Y-54621014D01*
X202155738Y-54575611D01*
X202207640Y-54538432D01*
X202266633Y-54509751D01*
X202332476Y-54489836D01*
X202404931Y-54478960D01*
X202456789Y-54476865D01*
X202531883Y-54481636D01*
G37*
G36*
X201830746Y-54495623D02*
G01*
X201830746Y-55396000D01*
X201595687Y-55396000D01*
X201595687Y-54855832D01*
X201585415Y-54790356D01*
X201555926Y-54737956D01*
X201509208Y-54700604D01*
X201447248Y-54680269D01*
X201405764Y-54677046D01*
X201346835Y-54684923D01*
X201292337Y-54717969D01*
X201261765Y-54776402D01*
X201254528Y-54839126D01*
X201254528Y-55396000D01*
X201019469Y-55396000D01*
X201019469Y-54790766D01*
X201024535Y-54719551D01*
X201039550Y-54656896D01*
X201064245Y-54603089D01*
X201108311Y-54548711D01*
X201166546Y-54509172D01*
X201222980Y-54488604D01*
X201287872Y-54478181D01*
X201323405Y-54476865D01*
X201388383Y-54481596D01*
X201445827Y-54496169D01*
X201504651Y-54526368D01*
X201556159Y-54571637D01*
X201595687Y-54623117D01*
X201595687Y-54495623D01*
X201830746Y-54495623D01*
G37*
G36*
X200044354Y-54574464D02*
G01*
X200044354Y-55396000D01*
X199809295Y-55396000D01*
X199809295Y-54204876D01*
X199965512Y-54204876D01*
X199989080Y-54266019D01*
X200025117Y-54316963D01*
X200073557Y-54357640D01*
X200134332Y-54387984D01*
X200191788Y-54404773D01*
X200257062Y-54414873D01*
X200330118Y-54418247D01*
X200330118Y-54574464D01*
X200044354Y-54574464D01*
G37*
G36*
X199151598Y-55150975D02*
G01*
X199403656Y-55150975D01*
X199403656Y-55396000D01*
X199151598Y-55396000D01*
X199151598Y-55150975D01*
G37*
G36*
X198655605Y-54182369D02*
G01*
X198720692Y-54199027D01*
X198780439Y-54226365D01*
X198834093Y-54264035D01*
X198880899Y-54311689D01*
X198894849Y-54329733D01*
X198929730Y-54388186D01*
X198952989Y-54447009D01*
X198971090Y-54515553D01*
X198981933Y-54577721D01*
X198989605Y-54646684D01*
X198994166Y-54722694D01*
X198995579Y-54784480D01*
X198995673Y-54806006D01*
X198994415Y-54882598D01*
X198990613Y-54953276D01*
X198984220Y-55018114D01*
X198975193Y-55077189D01*
X198960137Y-55143044D01*
X198940808Y-55200158D01*
X198911849Y-55257367D01*
X198875496Y-55306972D01*
X198832999Y-55348743D01*
X198784867Y-55382444D01*
X198731609Y-55407843D01*
X198673736Y-55424703D01*
X198611758Y-55432790D01*
X198585931Y-55433515D01*
X198526976Y-55429733D01*
X198461086Y-55415316D01*
X198400797Y-55390295D01*
X198346437Y-55354857D01*
X198298328Y-55309187D01*
X198276720Y-55282573D01*
X198242383Y-55224012D01*
X198219230Y-55165150D01*
X198201029Y-55096900D01*
X198190023Y-55035386D01*
X198182170Y-54967601D01*
X198177464Y-54893427D01*
X198175994Y-54833534D01*
X198175896Y-54812748D01*
X198175956Y-54807765D01*
X198410956Y-54807765D01*
X198411814Y-54870403D01*
X198414306Y-54930715D01*
X198419272Y-54997468D01*
X198427511Y-55063641D01*
X198441437Y-55122545D01*
X198469425Y-55174469D01*
X198517621Y-55216103D01*
X198579661Y-55232047D01*
X198585931Y-55232161D01*
X198644486Y-55220899D01*
X198695202Y-55183719D01*
X198723684Y-55139545D01*
X198741025Y-55080096D01*
X198750942Y-55012929D01*
X198756771Y-54942808D01*
X198759640Y-54876693D01*
X198760614Y-54804541D01*
X198759774Y-54738998D01*
X198757331Y-54676283D01*
X198752444Y-54607290D01*
X198745609Y-54548066D01*
X198733807Y-54489664D01*
X198730425Y-54479503D01*
X198703026Y-54426191D01*
X198659525Y-54386118D01*
X198598338Y-54367134D01*
X198585931Y-54366662D01*
X198527947Y-54378408D01*
X198480410Y-54412837D01*
X198447885Y-54462796D01*
X198430544Y-54523139D01*
X198421843Y-54581354D01*
X198415592Y-54651944D01*
X198412354Y-54718975D01*
X198410995Y-54792401D01*
X198410956Y-54807765D01*
X198175956Y-54807765D01*
X198176610Y-54753096D01*
X198179798Y-54679206D01*
X198185574Y-54611609D01*
X198193972Y-54550135D01*
X198208211Y-54481640D01*
X198226667Y-54422108D01*
X198254477Y-54362027D01*
X198259720Y-54353180D01*
X198296074Y-54303556D01*
X198338579Y-54261737D01*
X198386733Y-54227970D01*
X198440032Y-54202504D01*
X198497973Y-54185588D01*
X198560053Y-54177468D01*
X198585931Y-54176739D01*
X198655605Y-54182369D01*
G37*
%LPC*%
D12*
%TO.C,REF\u002A\u002A*%
X163000000Y-57000000D03*
%TD*%
D13*
%TO.C,C4*%
X166700000Y-45600000D03*
D14*
X169200000Y-45600000D03*
%TD*%
D12*
%TO.C,REF\u002A\u002A*%
X221000000Y-33400000D03*
%TD*%
%TO.C,REF\u002A\u002A*%
X163000000Y-33400000D03*
%TD*%
D14*
%TO.C,R7*%
X170000000Y-51200000D03*
D15*
X170000000Y-58820000D03*
%TD*%
D16*
%TO.C,J8*%
X216000000Y-55800000D03*
%TD*%
%TO.C,J7*%
X182200000Y-44600000D03*
%TD*%
D17*
%TO.C,J6*%
X209000000Y-50180000D03*
X209000000Y-52720000D03*
X209000000Y-55260000D03*
D16*
X209000000Y-57800000D03*
%TD*%
D17*
%TO.C,J5*%
X176000000Y-50180000D03*
X176000000Y-52720000D03*
X176000000Y-55260000D03*
D16*
X176000000Y-57800000D03*
%TD*%
D18*
%TO.C,SW1*%
X201800000Y-38550000D03*
X208300000Y-38550000D03*
X201800000Y-43050000D03*
X208300000Y-43050000D03*
%TD*%
D19*
%TO.C,RV1*%
X217200000Y-44400000D03*
X212200000Y-46900000D03*
X217200000Y-49400000D03*
%TD*%
D14*
%TO.C,R6*%
X168980000Y-39400000D03*
D15*
X176600000Y-39400000D03*
%TD*%
D14*
%TO.C,R5*%
X188400000Y-48200000D03*
D15*
X196020000Y-48200000D03*
%TD*%
D14*
%TO.C,R4*%
X188400000Y-45000000D03*
D15*
X196020000Y-45000000D03*
%TD*%
D14*
%TO.C,R3*%
X196000000Y-41800000D03*
D15*
X188380000Y-41800000D03*
%TD*%
D14*
%TO.C,R2*%
X188400000Y-38600000D03*
D15*
X196020000Y-38600000D03*
%TD*%
D18*
%TO.C,L1*%
X221000000Y-52400000D03*
D20*
X221000000Y-37160000D03*
%TD*%
D21*
%TO.C,J4*%
X161850000Y-52075000D03*
X161850000Y-46425000D03*
%TD*%
D16*
%TO.C,J3*%
X172400000Y-48200000D03*
%TD*%
D17*
%TO.C,J2*%
X216135000Y-32235000D03*
X216135000Y-34775000D03*
X213595000Y-32235000D03*
X213595000Y-34775000D03*
X211055000Y-32235000D03*
X211055000Y-34775000D03*
X208515000Y-32235000D03*
X208515000Y-34775000D03*
X205975000Y-32235000D03*
X205975000Y-34775000D03*
X203435000Y-32235000D03*
X203435000Y-34775000D03*
X200895000Y-32235000D03*
X200895000Y-34775000D03*
X198355000Y-32235000D03*
X198355000Y-34775000D03*
X195815000Y-32235000D03*
X195815000Y-34775000D03*
X193275000Y-32235000D03*
X193275000Y-34775000D03*
X190735000Y-32235000D03*
X190735000Y-34775000D03*
X188195000Y-32235000D03*
X188195000Y-34775000D03*
X185655000Y-32235000D03*
X185655000Y-34775000D03*
X183115000Y-32235000D03*
X183115000Y-34775000D03*
X180575000Y-32235000D03*
X180575000Y-34775000D03*
X178035000Y-32235000D03*
X178035000Y-34775000D03*
X175495000Y-32235000D03*
X175495000Y-34775000D03*
X172955000Y-32235000D03*
X172955000Y-34775000D03*
X170415000Y-32235000D03*
X170415000Y-34775000D03*
X167875000Y-32235000D03*
D16*
X167875000Y-34775000D03*
%TD*%
%TO.C,J1*%
X162800000Y-43000000D03*
%TD*%
D13*
%TO.C,D2*%
X167000000Y-58800000D03*
D15*
X167000000Y-51180000D03*
%TD*%
D14*
%TO.C,C1*%
X177300000Y-44200000D03*
D13*
X174800000Y-44200000D03*
%TD*%
%TO.C,C2*%
X181100000Y-39800000D03*
D14*
X183600000Y-39800000D03*
%TD*%
D13*
%TO.C,C3*%
X219400000Y-56800000D03*
D14*
X221900000Y-56800000D03*
%TD*%
D22*
%TO.C,Q1*%
X216000000Y-38860000D03*
X216000000Y-40130000D03*
D23*
X216000000Y-41400000D03*
%TD*%
%LPD*%
M02*
