%TF.GenerationSoftware,KiCad,Pcbnew,8.0.8+dfsg-1*%
%TF.CreationDate,2025-07-06T17:26:20+01:00*%
%TF.ProjectId,WOARCWSPR,574f4152-4357-4535-9052-2e6b69636164,rev?*%
%TF.SameCoordinates,Original*%
%TF.FileFunction,Copper,L1,Top*%
%TF.FilePolarity,Positive*%
%FSLAX46Y46*%
G04 Gerber Fmt 4.6, Leading zero omitted, Abs format (unit mm)*
G04 Created by KiCad (PCBNEW 8.0.8+dfsg-1) date 2025-07-06 17:26:20*
%MOMM*%
%LPD*%
G01*
G04 APERTURE LIST*
%TA.AperFunction,SMDPad,CuDef*%
%ADD10R,5.080000X1.500000*%
%TD*%
%TA.AperFunction,ComponentPad*%
%ADD11R,1.800000X1.800000*%
%TD*%
%TA.AperFunction,ComponentPad*%
%ADD12C,1.800000*%
%TD*%
%TA.AperFunction,ComponentPad*%
%ADD13C,1.600000*%
%TD*%
%TA.AperFunction,ComponentPad*%
%ADD14R,1.600000X1.600000*%
%TD*%
%TA.AperFunction,ComponentPad*%
%ADD15R,1.700000X1.700000*%
%TD*%
%TA.AperFunction,ComponentPad*%
%ADD16C,2.000000*%
%TD*%
%TA.AperFunction,ComponentPad*%
%ADD17O,1.700000X1.700000*%
%TD*%
%TA.AperFunction,ComponentPad*%
%ADD18O,2.000000X2.000000*%
%TD*%
%TA.AperFunction,ComponentPad*%
%ADD19O,1.600000X1.600000*%
%TD*%
%TA.AperFunction,ComponentPad*%
%ADD20R,1.500000X1.050000*%
%TD*%
%TA.AperFunction,ComponentPad*%
%ADD21O,1.500000X1.050000*%
%TD*%
%TA.AperFunction,ComponentPad*%
%ADD22C,1.620000*%
%TD*%
%TA.AperFunction,ViaPad*%
%ADD23C,0.600000*%
%TD*%
%TA.AperFunction,Conductor*%
%ADD24C,0.200000*%
%TD*%
G04 APERTURE END LIST*
D10*
%TO.P,J4,1,In*%
%TO.N,Net-(D2-A)*%
X162600000Y-48000000D03*
%TO.P,J4,2,Ext*%
%TO.N,GND*%
X162600000Y-52250000D03*
X162600000Y-43750000D03*
%TD*%
D11*
%TO.P,D1,1,K*%
%TO.N,GND*%
X161600000Y-38800000D03*
D12*
%TO.P,D1,2,A*%
%TO.N,Net-(D1-A)*%
X164140000Y-38800000D03*
%TD*%
D13*
%TO.P,C4,1*%
%TO.N,GND*%
X168800000Y-42200000D03*
%TO.P,C4,2*%
%TO.N,Net-(J3-Pin_1)*%
X168800000Y-47200000D03*
%TD*%
%TO.P,C3,1*%
%TO.N,Net-(Q1-D)*%
X221800000Y-56400000D03*
%TO.P,C3,2*%
%TO.N,Net-(J6-Pin_1)*%
X216800000Y-56400000D03*
%TD*%
%TO.P,C2,2*%
%TO.N,Net-(C2-Pad2)*%
X185000000Y-39400000D03*
%TO.P,C2,1*%
%TO.N,Net-(J2-GCLK0{slash}GPIO4)*%
X180000000Y-39400000D03*
%TD*%
D14*
%TO.P,C1,1*%
%TO.N,Net-(J7-Pin_1)*%
X174800000Y-44200000D03*
D13*
%TO.P,C1,2*%
%TO.N,GND*%
X177300000Y-44200000D03*
%TD*%
D15*
%TO.P,J3,1,Pin_1*%
%TO.N,Net-(J3-Pin_1)*%
X172200000Y-48200000D03*
%TD*%
D16*
%TO.P,SW1,1,1*%
%TO.N,GND*%
X201800000Y-38550000D03*
X208300000Y-38550000D03*
%TO.P,SW1,2,2*%
%TO.N,Net-(J2-GPIO19{slash}MISO1)*%
X201800000Y-43050000D03*
X208300000Y-43050000D03*
%TD*%
D15*
%TO.P,J2,1,3V3*%
%TO.N,Net-(J2-3V3-Pad1)*%
X167875000Y-34775000D03*
D17*
%TO.P,J2,2,5V*%
%TO.N,Net-(J7-Pin_1)*%
X167875000Y-32235000D03*
%TO.P,J2,3,SDA/GPIO2*%
%TO.N,unconnected-(J2-SDA{slash}GPIO2-Pad3)*%
X170415000Y-34775000D03*
%TO.P,J2,4,5V*%
%TO.N,Net-(J7-Pin_1)*%
X170415000Y-32235000D03*
%TO.P,J2,5,SCL/GPIO3*%
%TO.N,unconnected-(J2-SCL{slash}GPIO3-Pad5)*%
X172955000Y-34775000D03*
%TO.P,J2,6,GND*%
%TO.N,GND*%
X172955000Y-32235000D03*
%TO.P,J2,7,GCLK0/GPIO4*%
%TO.N,Net-(J2-GCLK0{slash}GPIO4)*%
X175495000Y-34775000D03*
%TO.P,J2,8,GPIO14/TXD*%
%TO.N,unconnected-(J2-GPIO14{slash}TXD-Pad8)*%
X175495000Y-32235000D03*
%TO.P,J2,9,GND*%
%TO.N,GND*%
X178035000Y-34775000D03*
%TO.P,J2,10,GPIO15/RXD*%
%TO.N,unconnected-(J2-GPIO15{slash}RXD-Pad10)*%
X178035000Y-32235000D03*
%TO.P,J2,11,GPIO17*%
%TO.N,unconnected-(J2-GPIO17-Pad11)*%
X180575000Y-34775000D03*
%TO.P,J2,12,GPIO18/PWM0*%
%TO.N,Net-(J2-GPIO18{slash}PWM0)*%
X180575000Y-32235000D03*
%TO.P,J2,13,GPIO27*%
%TO.N,unconnected-(J2-GPIO27-Pad13)*%
X183115000Y-34775000D03*
%TO.P,J2,14,GND*%
%TO.N,GND*%
X183115000Y-32235000D03*
%TO.P,J2,15,GPIO22*%
%TO.N,unconnected-(J2-GPIO22-Pad15)*%
X185655000Y-34775000D03*
%TO.P,J2,16,GPIO23*%
%TO.N,unconnected-(J2-GPIO23-Pad16)*%
X185655000Y-32235000D03*
%TO.P,J2,17,3V3*%
%TO.N,Net-(J2-3V3-Pad1)*%
X188195000Y-34775000D03*
%TO.P,J2,18,GPIO24*%
%TO.N,unconnected-(J2-GPIO24-Pad18)*%
X188195000Y-32235000D03*
%TO.P,J2,19,MOSI0/GPIO10*%
%TO.N,unconnected-(J2-MOSI0{slash}GPIO10-Pad19)*%
X190735000Y-34775000D03*
%TO.P,J2,20,GND*%
%TO.N,GND*%
X190735000Y-32235000D03*
%TO.P,J2,21,MISO0/GPIO9*%
%TO.N,unconnected-(J2-MISO0{slash}GPIO9-Pad21)*%
X193275000Y-34775000D03*
%TO.P,J2,22,GPIO25*%
%TO.N,unconnected-(J2-GPIO25-Pad22)*%
X193275000Y-32235000D03*
%TO.P,J2,23,SCLK0/GPIO11*%
%TO.N,unconnected-(J2-SCLK0{slash}GPIO11-Pad23)*%
X195815000Y-34775000D03*
%TO.P,J2,24,~{CE0}/GPIO8*%
%TO.N,unconnected-(J2-~{CE0}{slash}GPIO8-Pad24)*%
X195815000Y-32235000D03*
%TO.P,J2,25,GND*%
%TO.N,GND*%
X198355000Y-34775000D03*
%TO.P,J2,26,~{CE1}/GPIO7*%
%TO.N,unconnected-(J2-~{CE1}{slash}GPIO7-Pad26)*%
X198355000Y-32235000D03*
%TO.P,J2,27,ID_SD/GPIO0*%
%TO.N,unconnected-(J2-ID_SD{slash}GPIO0-Pad27)*%
X200895000Y-34775000D03*
%TO.P,J2,28,ID_SC/GPIO1*%
%TO.N,unconnected-(J2-ID_SC{slash}GPIO1-Pad28)*%
X200895000Y-32235000D03*
%TO.P,J2,29,GCLK1/GPIO5*%
%TO.N,unconnected-(J2-GCLK1{slash}GPIO5-Pad29)*%
X203435000Y-34775000D03*
%TO.P,J2,30,GND*%
%TO.N,GND*%
X203435000Y-32235000D03*
%TO.P,J2,31,GCLK2/GPIO6*%
%TO.N,unconnected-(J2-GCLK2{slash}GPIO6-Pad31)*%
X205975000Y-34775000D03*
%TO.P,J2,32,PWM0/GPIO12*%
%TO.N,unconnected-(J2-PWM0{slash}GPIO12-Pad32)*%
X205975000Y-32235000D03*
%TO.P,J2,33,PWM1/GPIO13*%
%TO.N,unconnected-(J2-PWM1{slash}GPIO13-Pad33)*%
X208515000Y-34775000D03*
%TO.P,J2,34,GND*%
%TO.N,GND*%
X208515000Y-32235000D03*
%TO.P,J2,35,GPIO19/MISO1*%
%TO.N,Net-(J2-GPIO19{slash}MISO1)*%
X211055000Y-34775000D03*
%TO.P,J2,36,GPIO16*%
%TO.N,unconnected-(J2-GPIO16-Pad36)*%
X211055000Y-32235000D03*
%TO.P,J2,37,GPIO26*%
%TO.N,unconnected-(J2-GPIO26-Pad37)*%
X213595000Y-34775000D03*
%TO.P,J2,38,GPIO20/MOSI1*%
%TO.N,unconnected-(J2-GPIO20{slash}MOSI1-Pad38)*%
X213595000Y-32235000D03*
%TO.P,J2,39,GND*%
%TO.N,GND*%
X216135000Y-34775000D03*
%TO.P,J2,40,GPIO21/SCLK1*%
%TO.N,unconnected-(J2-GPIO21{slash}SCLK1-Pad40)*%
X216135000Y-32235000D03*
%TD*%
D16*
%TO.P,L1,1,1*%
%TO.N,Net-(J8-Pin_1)*%
X221000000Y-52400000D03*
D18*
%TO.P,L1,2,2*%
%TO.N,Net-(Q1-D)*%
X221000000Y-37160000D03*
%TD*%
D15*
%TO.P,J8,1,Pin_1*%
%TO.N,Net-(J8-Pin_1)*%
X216400000Y-52400000D03*
%TD*%
D13*
%TO.P,R2,1*%
%TO.N,Net-(C2-Pad2)*%
X188400000Y-38200000D03*
D19*
%TO.P,R2,2*%
%TO.N,Net-(Q1-G)*%
X196020000Y-38200000D03*
%TD*%
D15*
%TO.P,J6,1,Pin_1*%
%TO.N,Net-(J6-Pin_1)*%
X209000000Y-57800000D03*
D17*
%TO.P,J6,2,Pin_2*%
X209000000Y-55260000D03*
%TO.P,J6,3,Pin_3*%
%TO.N,GND*%
X209000000Y-52720000D03*
%TO.P,J6,4,Pin_4*%
X209000000Y-50180000D03*
%TD*%
D14*
%TO.P,D2,1,K*%
%TO.N,Net-(D2-K)*%
X167000000Y-58800000D03*
D19*
%TO.P,D2,2,A*%
%TO.N,Net-(D2-A)*%
X167000000Y-51180000D03*
%TD*%
D15*
%TO.P,J7,1,Pin_1*%
%TO.N,Net-(J7-Pin_1)*%
X182200000Y-44200000D03*
%TD*%
D13*
%TO.P,R3,1*%
%TO.N,Net-(R3-Pad1)*%
X196000000Y-41200000D03*
D19*
%TO.P,R3,2*%
%TO.N,Net-(C2-Pad2)*%
X188380000Y-41200000D03*
%TD*%
D15*
%TO.P,J5,1,Pin_1*%
%TO.N,Net-(D2-A)*%
X176000000Y-57800000D03*
D17*
%TO.P,J5,2,Pin_2*%
X176000000Y-55260000D03*
%TO.P,J5,3,Pin_3*%
%TO.N,GND*%
X176000000Y-52720000D03*
%TO.P,J5,4,Pin_4*%
X176000000Y-50180000D03*
%TD*%
D15*
%TO.P,J1,1,Pin_1*%
%TO.N,GND*%
X167200000Y-38800000D03*
%TD*%
D13*
%TO.P,R7,1*%
%TO.N,Net-(J3-Pin_1)*%
X170000000Y-51200000D03*
D19*
%TO.P,R7,2*%
%TO.N,Net-(D2-K)*%
X170000000Y-58820000D03*
%TD*%
D13*
%TO.P,R4,1*%
%TO.N,Net-(J7-Pin_1)*%
X188400000Y-44200000D03*
D19*
%TO.P,R4,2*%
%TO.N,Net-(J8-Pin_1)*%
X196020000Y-44200000D03*
%TD*%
D13*
%TO.P,R6,1*%
%TO.N,Net-(D1-A)*%
X170200000Y-39400000D03*
D19*
%TO.P,R6,2*%
%TO.N,Net-(J2-GPIO18{slash}PWM0)*%
X177820000Y-39400000D03*
%TD*%
D20*
%TO.P,Q1,1,D*%
%TO.N,Net-(Q1-D)*%
X216000000Y-41400000D03*
D21*
%TO.P,Q1,2,G*%
%TO.N,Net-(Q1-G)*%
X216000000Y-40130000D03*
%TO.P,Q1,3,S*%
%TO.N,GND*%
X216000000Y-38860000D03*
%TD*%
D22*
%TO.P,RV1,1,1*%
%TO.N,Net-(R5-Pad2)*%
X217200000Y-44400000D03*
%TO.P,RV1,2,2*%
%TO.N,Net-(R3-Pad1)*%
X212200000Y-46900000D03*
%TO.P,RV1,3,3*%
%TO.N,GND*%
X217200000Y-49400000D03*
%TD*%
D13*
%TO.P,R5,1*%
%TO.N,Net-(J7-Pin_1)*%
X188400000Y-47200000D03*
D19*
%TO.P,R5,2*%
%TO.N,Net-(R5-Pad2)*%
X196020000Y-47200000D03*
%TD*%
D23*
%TO.N,GND*%
X181600000Y-33600000D03*
X178800000Y-33600000D03*
X162602082Y-36202082D03*
%TO.N,Net-(J2-3V3-Pad1)*%
X187000000Y-35600000D03*
X168924377Y-34811185D03*
%TO.N,Net-(Q1-G)*%
X213200000Y-40200000D03*
X197800000Y-40200000D03*
%TO.N,Net-(J8-Pin_1)*%
X220124265Y-53675735D03*
X214800000Y-53200000D03*
X199600000Y-47800000D03*
%TO.N,Net-(R5-Pad2)*%
X211000000Y-44600000D03*
X197761471Y-47590000D03*
%TO.N,Net-(J3-Pin_1)*%
X169600000Y-49850000D03*
X169600000Y-48400000D03*
%TD*%
D24*
%TO.N,Net-(D1-A)*%
X165290000Y-37650000D02*
X168450000Y-37650000D01*
X168450000Y-37650000D02*
X170200000Y-39400000D01*
%TO.N,Net-(J2-GPIO18{slash}PWM0)*%
X179425000Y-33385000D02*
X179425000Y-37795000D01*
%TO.N,Net-(D1-A)*%
X164140000Y-38800000D02*
X165290000Y-37650000D01*
%TO.N,Net-(J2-GPIO18{slash}PWM0)*%
X180575000Y-32235000D02*
X179425000Y-33385000D01*
X179425000Y-37795000D02*
X177820000Y-39400000D01*
%TO.N,Net-(D2-A)*%
X176000000Y-55260000D02*
X169940000Y-49200000D01*
X163820000Y-48000000D02*
X162600000Y-48000000D01*
X163850000Y-49250000D02*
X162600000Y-48000000D01*
X169940000Y-49200000D02*
X169600000Y-49200000D01*
X169550000Y-49250000D02*
X163850000Y-49250000D01*
X167000000Y-51180000D02*
X163820000Y-48000000D01*
X169600000Y-49200000D02*
X169550000Y-49250000D01*
%TO.N,Net-(J3-Pin_1)*%
X168800000Y-47200000D02*
X171200000Y-47200000D01*
X171200000Y-47200000D02*
X172200000Y-48200000D01*
X168800000Y-47200000D02*
X168800000Y-47600000D01*
X168800000Y-47600000D02*
X169600000Y-48400000D01*
%TO.N,Net-(J7-Pin_1)*%
X174800000Y-44200000D02*
X175900000Y-45300000D01*
X175900000Y-45300000D02*
X181100000Y-45300000D01*
X181100000Y-45300000D02*
X182200000Y-44200000D01*
X188400000Y-44200000D02*
X182200000Y-44200000D01*
%TO.N,Net-(J8-Pin_1)*%
X199600000Y-47800000D02*
X198999999Y-47199999D01*
X198999999Y-47199999D02*
X198999999Y-47179999D01*
X198999999Y-47179999D02*
X196020000Y-44200000D01*
%TO.N,Net-(Q1-G)*%
X197800000Y-40200000D02*
X196020000Y-38420000D01*
X196020000Y-38420000D02*
X196020000Y-38200000D01*
%TO.N,Net-(J7-Pin_1)*%
X188400000Y-47200000D02*
X188400000Y-44200000D01*
%TO.N,Net-(R5-Pad2)*%
X197761471Y-47590000D02*
X196410000Y-47590000D01*
X196410000Y-47590000D02*
X196020000Y-47200000D01*
%TO.N,Net-(R3-Pad1)*%
X201400000Y-46800000D02*
X212100000Y-46800000D01*
X196000000Y-41200000D02*
X196000000Y-41400000D01*
%TO.N,Net-(C2-Pad2)*%
X188380000Y-41200000D02*
X186580000Y-39400000D01*
X186580000Y-39400000D02*
X185000000Y-39400000D01*
%TO.N,Net-(R3-Pad1)*%
X196000000Y-41400000D02*
X201400000Y-46800000D01*
X212100000Y-46800000D02*
X212200000Y-46900000D01*
%TO.N,Net-(C2-Pad2)*%
X188400000Y-38200000D02*
X187200000Y-39400000D01*
X187200000Y-39400000D02*
X185000000Y-39400000D01*
%TO.N,Net-(J2-GCLK0{slash}GPIO4)*%
X175600000Y-35000000D02*
X175310000Y-35290000D01*
X175310000Y-39955635D02*
X175954365Y-40600000D01*
X175495000Y-34775000D02*
X175495000Y-34895000D01*
X175495000Y-34895000D02*
X175600000Y-35000000D01*
X175310000Y-35290000D02*
X175310000Y-39955635D01*
X175954365Y-40600000D02*
X178800000Y-40600000D01*
X178800000Y-40600000D02*
X180000000Y-39400000D01*
%TO.N,GND*%
X178035000Y-36165000D02*
X177200000Y-37000000D01*
X178035000Y-34775000D02*
X178035000Y-36165000D01*
%TO.N,Net-(J8-Pin_1)*%
X220124265Y-53675735D02*
X221000000Y-52800000D01*
X221000000Y-52800000D02*
X221000000Y-52400000D01*
X214800000Y-53200000D02*
X215600000Y-53200000D01*
X215600000Y-53200000D02*
X216400000Y-52400000D01*
%TO.N,Net-(J6-Pin_1)*%
X209000000Y-57800000D02*
X210140000Y-56660000D01*
X210140000Y-56660000D02*
X210140000Y-56400000D01*
X216800000Y-56400000D02*
X210140000Y-56400000D01*
X210140000Y-56400000D02*
X209000000Y-55260000D01*
%TO.N,Net-(Q1-D)*%
X219400000Y-53800000D02*
X219400000Y-42600000D01*
X219400000Y-42600000D02*
X218200000Y-41400000D01*
X221800000Y-56400000D02*
X221800000Y-56200000D01*
X221800000Y-56200000D02*
X219400000Y-53800000D01*
%TO.N,GND*%
X192125000Y-33625000D02*
X190735000Y-32235000D01*
X202045000Y-33625000D02*
X199505000Y-33625000D01*
X176885000Y-33625000D02*
X174345000Y-33625000D01*
X203435000Y-32235000D02*
X204585000Y-31085000D01*
X178035000Y-34775000D02*
X176885000Y-33625000D01*
X178035000Y-34775000D02*
X178775000Y-34775000D01*
X178775000Y-34775000D02*
X178800000Y-34800000D01*
X189585000Y-33385000D02*
X184265000Y-33385000D01*
X184265000Y-33385000D02*
X183115000Y-32235000D01*
X174345000Y-33625000D02*
X172955000Y-32235000D01*
X199505000Y-33625000D02*
X198355000Y-34775000D01*
X178035000Y-34775000D02*
X178035000Y-34365000D01*
X204585000Y-31085000D02*
X207365000Y-31085000D01*
X178035000Y-34365000D02*
X178800000Y-33600000D01*
X207365000Y-31085000D02*
X208515000Y-32235000D01*
X198355000Y-34775000D02*
X197205000Y-33625000D01*
X203435000Y-32235000D02*
X202045000Y-33625000D01*
X181750000Y-33600000D02*
X183115000Y-32235000D01*
X181600000Y-33600000D02*
X181750000Y-33600000D01*
X190735000Y-32235000D02*
X189585000Y-33385000D01*
X197205000Y-33625000D02*
X192125000Y-33625000D01*
%TO.N,Net-(Q1-D)*%
X220200000Y-37960000D02*
X220200000Y-39400000D01*
X218200000Y-41400000D02*
X216000000Y-41400000D01*
X220200000Y-39400000D02*
X218200000Y-41400000D01*
X221000000Y-37160000D02*
X220200000Y-37960000D01*
%TO.N,Net-(D2-A)*%
X176000000Y-55260000D02*
X176000000Y-55000000D01*
X176000000Y-57800000D02*
X176000000Y-55260000D01*
%TO.N,Net-(D2-K)*%
X169980000Y-58800000D02*
X170000000Y-58820000D01*
X167000000Y-58800000D02*
X169980000Y-58800000D01*
%TO.N,Net-(J2-3V3-Pad1)*%
X187370000Y-35600000D02*
X188195000Y-34775000D01*
X168888192Y-34775000D02*
X168924377Y-34811185D01*
X187000000Y-35600000D02*
X187370000Y-35600000D01*
X167875000Y-34775000D02*
X168888192Y-34775000D01*
%TO.N,Net-(J2-GPIO19{slash}MISO1)*%
X201800000Y-43050000D02*
X208300000Y-43050000D01*
X208300000Y-43050000D02*
X211055000Y-40295000D01*
X211055000Y-40295000D02*
X211055000Y-34775000D01*
%TO.N,Net-(Q1-G)*%
X213200000Y-40200000D02*
X215930000Y-40200000D01*
X215930000Y-40200000D02*
X216000000Y-40130000D01*
%TO.N,Net-(J7-Pin_1)*%
X174800000Y-44200000D02*
X171805000Y-41205000D01*
X171805000Y-41205000D02*
X171805000Y-33625000D01*
X170415000Y-32235000D02*
X171805000Y-33625000D01*
X167875000Y-32235000D02*
X170415000Y-32235000D01*
%TO.N,GND*%
X209320000Y-52720000D02*
X209000000Y-52720000D01*
X209000000Y-52720000D02*
X209000000Y-50180000D01*
%TO.N,Net-(R5-Pad2)*%
X217000000Y-44600000D02*
X217200000Y-44400000D01*
X211000000Y-44600000D02*
X217000000Y-44600000D01*
%TO.N,Net-(J3-Pin_1)*%
X170000000Y-51200000D02*
X169600000Y-50800000D01*
X169600000Y-50800000D02*
X169600000Y-49850000D01*
%TD*%
%TA.AperFunction,Conductor*%
%TO.N,GND*%
G36*
X209250000Y-52286988D02*
G01*
X209192993Y-52254075D01*
X209065826Y-52220000D01*
X208934174Y-52220000D01*
X208807007Y-52254075D01*
X208750000Y-52286988D01*
X208750000Y-50613012D01*
X208807007Y-50645925D01*
X208934174Y-50680000D01*
X209065826Y-50680000D01*
X209192993Y-50645925D01*
X209250000Y-50613012D01*
X209250000Y-52286988D01*
G37*
%TD.AperFunction*%
%TA.AperFunction,Conductor*%
G36*
X221503736Y-30500726D02*
G01*
X221793800Y-30518271D01*
X221808655Y-30520075D01*
X221957808Y-30547408D01*
X222020063Y-30578726D01*
X223883781Y-32318196D01*
X223917559Y-32371954D01*
X223924636Y-32394663D01*
X223928220Y-32409205D01*
X223979923Y-32691341D01*
X223981728Y-32706205D01*
X223999274Y-32996263D01*
X223999500Y-33003750D01*
X223999500Y-57496249D01*
X223999274Y-57503736D01*
X223981728Y-57793794D01*
X223979923Y-57808659D01*
X223928219Y-58090798D01*
X223924635Y-58105336D01*
X223839306Y-58379167D01*
X223833997Y-58393168D01*
X223716275Y-58654736D01*
X223709316Y-58667995D01*
X223560924Y-58913464D01*
X223552418Y-58925787D01*
X223398408Y-59122366D01*
X223384904Y-59137009D01*
X222989575Y-59501928D01*
X222981942Y-59508422D01*
X222925784Y-59552420D01*
X222913460Y-59560927D01*
X222667995Y-59709316D01*
X222654736Y-59716275D01*
X222393168Y-59833997D01*
X222379167Y-59839306D01*
X222105336Y-59924635D01*
X222090798Y-59928219D01*
X221808659Y-59979923D01*
X221793794Y-59981728D01*
X221503736Y-59999274D01*
X221496249Y-59999500D01*
X170959049Y-59999500D01*
X170892010Y-59979815D01*
X170846255Y-59927011D01*
X170836311Y-59857853D01*
X170865336Y-59794297D01*
X170871368Y-59787819D01*
X171000045Y-59659141D01*
X171000047Y-59659139D01*
X171130568Y-59472734D01*
X171226739Y-59266496D01*
X171285635Y-59046692D01*
X171305468Y-58820000D01*
X171285635Y-58593308D01*
X171226739Y-58373504D01*
X171130568Y-58167266D01*
X171000047Y-57980861D01*
X171000045Y-57980858D01*
X170839141Y-57819954D01*
X170652734Y-57689432D01*
X170652732Y-57689431D01*
X170446497Y-57593261D01*
X170446488Y-57593258D01*
X170226697Y-57534366D01*
X170226693Y-57534365D01*
X170226692Y-57534365D01*
X170226691Y-57534364D01*
X170226686Y-57534364D01*
X170000002Y-57514532D01*
X169999998Y-57514532D01*
X169773313Y-57534364D01*
X169773302Y-57534366D01*
X169553511Y-57593258D01*
X169553502Y-57593261D01*
X169347267Y-57689431D01*
X169347265Y-57689432D01*
X169160858Y-57819954D01*
X168999954Y-57980858D01*
X168956689Y-58042649D01*
X168883885Y-58146624D01*
X168829311Y-58190248D01*
X168782312Y-58199500D01*
X168424499Y-58199500D01*
X168357460Y-58179815D01*
X168311705Y-58127011D01*
X168300499Y-58075500D01*
X168300499Y-57952129D01*
X168300498Y-57952123D01*
X168300497Y-57952116D01*
X168294091Y-57892517D01*
X168267026Y-57819953D01*
X168243797Y-57757671D01*
X168243793Y-57757664D01*
X168157547Y-57642455D01*
X168157544Y-57642452D01*
X168042335Y-57556206D01*
X168042328Y-57556202D01*
X167907482Y-57505908D01*
X167907483Y-57505908D01*
X167847883Y-57499501D01*
X167847881Y-57499500D01*
X167847873Y-57499500D01*
X167847864Y-57499500D01*
X166152129Y-57499500D01*
X166152123Y-57499501D01*
X166092516Y-57505908D01*
X165957671Y-57556202D01*
X165957664Y-57556206D01*
X165842455Y-57642452D01*
X165842452Y-57642455D01*
X165756206Y-57757664D01*
X165756202Y-57757671D01*
X165705908Y-57892517D01*
X165699501Y-57952116D01*
X165699501Y-57952123D01*
X165699500Y-57952135D01*
X165699500Y-59647870D01*
X165699501Y-59647876D01*
X165705908Y-59707483D01*
X165752413Y-59832167D01*
X165757397Y-59901859D01*
X165723912Y-59963182D01*
X165662589Y-59996666D01*
X165636231Y-59999500D01*
X162503751Y-59999500D01*
X162496264Y-59999274D01*
X162206205Y-59981728D01*
X162191340Y-59979923D01*
X161909201Y-59928219D01*
X161894663Y-59924635D01*
X161620832Y-59839306D01*
X161606831Y-59833996D01*
X161345263Y-59716273D01*
X161332004Y-59709315D01*
X161130440Y-59587466D01*
X161100885Y-59562560D01*
X161053965Y-59508422D01*
X160694624Y-59093797D01*
X160262812Y-58595552D01*
X160243442Y-58565232D01*
X160166005Y-58393175D01*
X160160698Y-58379181D01*
X160075363Y-58105335D01*
X160071780Y-58090798D01*
X160020076Y-57808659D01*
X160018271Y-57793794D01*
X160000726Y-57503736D01*
X160000500Y-57496249D01*
X160000500Y-56874038D01*
X161399500Y-56874038D01*
X161399500Y-57125961D01*
X161438910Y-57374785D01*
X161516760Y-57614383D01*
X161555000Y-57689432D01*
X161615749Y-57808659D01*
X161631132Y-57838848D01*
X161779201Y-58042649D01*
X161779205Y-58042654D01*
X161957345Y-58220794D01*
X161957350Y-58220798D01*
X162135117Y-58349952D01*
X162161155Y-58368870D01*
X162304184Y-58441747D01*
X162385616Y-58483239D01*
X162385618Y-58483239D01*
X162385621Y-58483241D01*
X162625215Y-58561090D01*
X162874038Y-58600500D01*
X162874039Y-58600500D01*
X163125961Y-58600500D01*
X163125962Y-58600500D01*
X163374785Y-58561090D01*
X163614379Y-58483241D01*
X163838845Y-58368870D01*
X164042656Y-58220793D01*
X164220793Y-58042656D01*
X164368870Y-57838845D01*
X164483241Y-57614379D01*
X164561090Y-57374785D01*
X164600500Y-57125962D01*
X164600500Y-56874038D01*
X164561090Y-56625215D01*
X164483241Y-56385621D01*
X164483239Y-56385618D01*
X164483239Y-56385616D01*
X164438848Y-56298495D01*
X164368870Y-56161155D01*
X164347248Y-56131395D01*
X164220798Y-55957350D01*
X164220794Y-55957345D01*
X164042654Y-55779205D01*
X164042649Y-55779201D01*
X163838848Y-55631132D01*
X163838847Y-55631131D01*
X163838845Y-55631130D01*
X163768747Y-55595413D01*
X163614383Y-55516760D01*
X163374785Y-55438910D01*
X163125962Y-55399500D01*
X162874038Y-55399500D01*
X162749626Y-55419205D01*
X162625214Y-55438910D01*
X162385616Y-55516760D01*
X162161151Y-55631132D01*
X161957350Y-55779201D01*
X161957345Y-55779205D01*
X161779205Y-55957345D01*
X161779201Y-55957350D01*
X161631132Y-56161151D01*
X161516760Y-56385616D01*
X161438910Y-56625214D01*
X161399500Y-56874038D01*
X160000500Y-56874038D01*
X160000500Y-53624000D01*
X160020185Y-53556961D01*
X160072989Y-53511206D01*
X160124500Y-53500000D01*
X162350000Y-53500000D01*
X162850000Y-53500000D01*
X165187828Y-53500000D01*
X165187844Y-53499999D01*
X165247372Y-53493598D01*
X165247379Y-53493596D01*
X165382086Y-53443354D01*
X165382093Y-53443350D01*
X165497187Y-53357190D01*
X165497190Y-53357187D01*
X165583350Y-53242093D01*
X165583354Y-53242086D01*
X165633596Y-53107379D01*
X165633598Y-53107372D01*
X165639999Y-53047844D01*
X165640000Y-53047827D01*
X165640000Y-52500000D01*
X162850000Y-52500000D01*
X162850000Y-53500000D01*
X162350000Y-53500000D01*
X162350000Y-51000000D01*
X160124500Y-51000000D01*
X160057461Y-50980315D01*
X160011706Y-50927511D01*
X160000500Y-50876000D01*
X160000500Y-49374499D01*
X160020185Y-49307460D01*
X160072989Y-49261705D01*
X160124495Y-49250499D01*
X162949902Y-49250499D01*
X163016941Y-49270184D01*
X163037583Y-49286818D01*
X163365139Y-49614374D01*
X163365149Y-49614385D01*
X163369479Y-49618715D01*
X163369480Y-49618716D01*
X163481284Y-49730520D01*
X163566817Y-49779901D01*
X163568095Y-49780639D01*
X163568097Y-49780641D01*
X163606151Y-49802611D01*
X163618215Y-49809577D01*
X163770943Y-49850501D01*
X163770946Y-49850501D01*
X163936653Y-49850501D01*
X163936669Y-49850500D01*
X164769903Y-49850500D01*
X164836942Y-49870185D01*
X164857584Y-49886819D01*
X165708058Y-50737293D01*
X165741543Y-50798616D01*
X165740152Y-50857067D01*
X165714366Y-50953302D01*
X165714364Y-50953312D01*
X165704823Y-51062363D01*
X165679370Y-51127432D01*
X165622779Y-51168410D01*
X165553017Y-51172287D01*
X165505847Y-51146042D01*
X165504288Y-51148125D01*
X165382093Y-51056649D01*
X165382086Y-51056645D01*
X165247379Y-51006403D01*
X165247372Y-51006401D01*
X165187844Y-51000000D01*
X162850000Y-51000000D01*
X162850000Y-52000000D01*
X165640000Y-52000000D01*
X165640000Y-51898119D01*
X165659685Y-51831080D01*
X165712489Y-51785325D01*
X165781647Y-51775381D01*
X165845203Y-51804406D01*
X165865439Y-51828920D01*
X165866327Y-51828299D01*
X165869431Y-51832732D01*
X165869432Y-51832734D01*
X165880770Y-51848926D01*
X165999954Y-52019141D01*
X166160858Y-52180045D01*
X166160861Y-52180047D01*
X166347266Y-52310568D01*
X166553504Y-52406739D01*
X166773308Y-52465635D01*
X166935230Y-52479801D01*
X166999998Y-52485468D01*
X167000000Y-52485468D01*
X167000002Y-52485468D01*
X167056673Y-52480509D01*
X167226692Y-52465635D01*
X167446496Y-52406739D01*
X167652734Y-52310568D01*
X167839139Y-52180047D01*
X168000047Y-52019139D01*
X168130568Y-51832734D01*
X168226739Y-51626496D01*
X168285635Y-51406692D01*
X168305468Y-51180000D01*
X168285635Y-50953308D01*
X168226739Y-50733504D01*
X168130568Y-50527266D01*
X168000047Y-50340861D01*
X168000045Y-50340858D01*
X167839141Y-50179954D01*
X167690784Y-50076075D01*
X167647159Y-50021499D01*
X167639965Y-49952000D01*
X167671487Y-49889646D01*
X167731717Y-49854231D01*
X167761907Y-49850500D01*
X168683678Y-49850500D01*
X168750717Y-49870185D01*
X168796472Y-49922989D01*
X168806898Y-49960617D01*
X168814630Y-50029249D01*
X168874210Y-50199521D01*
X168943327Y-50309519D01*
X168962327Y-50376755D01*
X168941959Y-50443591D01*
X168939909Y-50446613D01*
X168869431Y-50547267D01*
X168773261Y-50753502D01*
X168773258Y-50753511D01*
X168714366Y-50973302D01*
X168714364Y-50973313D01*
X168694532Y-51199998D01*
X168694532Y-51200001D01*
X168714364Y-51426686D01*
X168714366Y-51426697D01*
X168773258Y-51646488D01*
X168773261Y-51646497D01*
X168869431Y-51852732D01*
X168869432Y-51852734D01*
X168999954Y-52039141D01*
X169160858Y-52200045D01*
X169160861Y-52200047D01*
X169347266Y-52330568D01*
X169553504Y-52426739D01*
X169773308Y-52485635D01*
X169935230Y-52499801D01*
X169999998Y-52505468D01*
X170000000Y-52505468D01*
X170000002Y-52505468D01*
X170062499Y-52500000D01*
X170226692Y-52485635D01*
X170446496Y-52426739D01*
X170652734Y-52330568D01*
X170839139Y-52200047D01*
X171000047Y-52039139D01*
X171130568Y-51852734D01*
X171226739Y-51646496D01*
X171236772Y-51609051D01*
X171273136Y-51549391D01*
X171335982Y-51518861D01*
X171405358Y-51527155D01*
X171444228Y-51553463D01*
X174667233Y-54776468D01*
X174700718Y-54837791D01*
X174699327Y-54896241D01*
X174664939Y-55024583D01*
X174664936Y-55024596D01*
X174644341Y-55259999D01*
X174644341Y-55260000D01*
X174664936Y-55495403D01*
X174664938Y-55495413D01*
X174726094Y-55723655D01*
X174726096Y-55723659D01*
X174726097Y-55723663D01*
X174762983Y-55802764D01*
X174825965Y-55937830D01*
X174825967Y-55937834D01*
X174934281Y-56092521D01*
X174961501Y-56131396D01*
X174961506Y-56131402D01*
X175083430Y-56253326D01*
X175116915Y-56314649D01*
X175111931Y-56384341D01*
X175070059Y-56440274D01*
X175039083Y-56457189D01*
X174907669Y-56506203D01*
X174907664Y-56506206D01*
X174792455Y-56592452D01*
X174792452Y-56592455D01*
X174706206Y-56707664D01*
X174706202Y-56707671D01*
X174655908Y-56842517D01*
X174649501Y-56902116D01*
X174649501Y-56902123D01*
X174649500Y-56902135D01*
X174649500Y-58697870D01*
X174649501Y-58697876D01*
X174655908Y-58757483D01*
X174706202Y-58892328D01*
X174706206Y-58892335D01*
X174792452Y-59007544D01*
X174792455Y-59007547D01*
X174907664Y-59093793D01*
X174907671Y-59093797D01*
X175042517Y-59144091D01*
X175042516Y-59144091D01*
X175049444Y-59144835D01*
X175102127Y-59150500D01*
X176897872Y-59150499D01*
X176957483Y-59144091D01*
X177092331Y-59093796D01*
X177207546Y-59007546D01*
X177293796Y-58892331D01*
X177344091Y-58757483D01*
X177350500Y-58697873D01*
X177350499Y-56902128D01*
X177344091Y-56842517D01*
X177293796Y-56707669D01*
X177293795Y-56707668D01*
X177293793Y-56707664D01*
X177207547Y-56592455D01*
X177207544Y-56592452D01*
X177092335Y-56506206D01*
X177092328Y-56506202D01*
X176960917Y-56457189D01*
X176904983Y-56415318D01*
X176880566Y-56349853D01*
X176895418Y-56281580D01*
X176916563Y-56253332D01*
X177038495Y-56131401D01*
X177174035Y-55937830D01*
X177273903Y-55723663D01*
X177335063Y-55495408D01*
X177355659Y-55260000D01*
X177355659Y-55259999D01*
X207644341Y-55259999D01*
X207644341Y-55260000D01*
X207664936Y-55495403D01*
X207664938Y-55495413D01*
X207726094Y-55723655D01*
X207726096Y-55723659D01*
X207726097Y-55723663D01*
X207762983Y-55802764D01*
X207825965Y-55937830D01*
X207825967Y-55937834D01*
X207934281Y-56092521D01*
X207961501Y-56131396D01*
X207961506Y-56131402D01*
X208083430Y-56253326D01*
X208116915Y-56314649D01*
X208111931Y-56384341D01*
X208070059Y-56440274D01*
X208039083Y-56457189D01*
X207907669Y-56506203D01*
X207907664Y-56506206D01*
X207792455Y-56592452D01*
X207792452Y-56592455D01*
X207706206Y-56707664D01*
X207706202Y-56707671D01*
X207655908Y-56842517D01*
X207649501Y-56902116D01*
X207649501Y-56902123D01*
X207649500Y-56902135D01*
X207649500Y-58697870D01*
X207649501Y-58697876D01*
X207655908Y-58757483D01*
X207706202Y-58892328D01*
X207706206Y-58892335D01*
X207792452Y-59007544D01*
X207792455Y-59007547D01*
X207907664Y-59093793D01*
X207907671Y-59093797D01*
X208042517Y-59144091D01*
X208042516Y-59144091D01*
X208049444Y-59144835D01*
X208102127Y-59150500D01*
X209897872Y-59150499D01*
X209957483Y-59144091D01*
X210092331Y-59093796D01*
X210207546Y-59007546D01*
X210293796Y-58892331D01*
X210344091Y-58757483D01*
X210350500Y-58697873D01*
X210350499Y-57350095D01*
X210370184Y-57283057D01*
X210386813Y-57262420D01*
X210498506Y-57150728D01*
X210498511Y-57150724D01*
X210508714Y-57140520D01*
X210508716Y-57140520D01*
X210612417Y-57036819D01*
X210673740Y-57003334D01*
X210700098Y-57000500D01*
X215568308Y-57000500D01*
X215635347Y-57020185D01*
X215669880Y-57053374D01*
X215730900Y-57140520D01*
X215799954Y-57239141D01*
X215960858Y-57400045D01*
X215960861Y-57400047D01*
X216147266Y-57530568D01*
X216353504Y-57626739D01*
X216573308Y-57685635D01*
X216735230Y-57699801D01*
X216799998Y-57705468D01*
X216800000Y-57705468D01*
X216800002Y-57705468D01*
X216856673Y-57700509D01*
X217026692Y-57685635D01*
X217246496Y-57626739D01*
X217452734Y-57530568D01*
X217639139Y-57400047D01*
X217800047Y-57239139D01*
X217930568Y-57052734D01*
X218026739Y-56846496D01*
X218085635Y-56626692D01*
X218105468Y-56400000D01*
X218085635Y-56173308D01*
X218026739Y-55953504D01*
X217930568Y-55747266D01*
X217800047Y-55560861D01*
X217800045Y-55560858D01*
X217639141Y-55399954D01*
X217452734Y-55269432D01*
X217452732Y-55269431D01*
X217246497Y-55173261D01*
X217246488Y-55173258D01*
X217026697Y-55114366D01*
X217026693Y-55114365D01*
X217026692Y-55114365D01*
X217026691Y-55114364D01*
X217026686Y-55114364D01*
X216800002Y-55094532D01*
X216799998Y-55094532D01*
X216573313Y-55114364D01*
X216573302Y-55114366D01*
X216353511Y-55173258D01*
X216353502Y-55173261D01*
X216147267Y-55269431D01*
X216147265Y-55269432D01*
X215960858Y-55399954D01*
X215799954Y-55560858D01*
X215750749Y-55631132D01*
X215669881Y-55746624D01*
X215615307Y-55790248D01*
X215568308Y-55799500D01*
X210440097Y-55799500D01*
X210373058Y-55779815D01*
X210352416Y-55763181D01*
X210332766Y-55743531D01*
X210299281Y-55682208D01*
X210300672Y-55623757D01*
X210301863Y-55619309D01*
X210335063Y-55495408D01*
X210355659Y-55260000D01*
X210335063Y-55024592D01*
X210273903Y-54796337D01*
X210174035Y-54582171D01*
X210038495Y-54388599D01*
X210038494Y-54388597D01*
X209871402Y-54221506D01*
X209871401Y-54221505D01*
X209685405Y-54091269D01*
X209641781Y-54036692D01*
X209634588Y-53967193D01*
X209666110Y-53904839D01*
X209685405Y-53888119D01*
X209871082Y-53758105D01*
X210038105Y-53591082D01*
X210173600Y-53397578D01*
X210265733Y-53199996D01*
X213994435Y-53199996D01*
X213994435Y-53200003D01*
X214014630Y-53379249D01*
X214014631Y-53379254D01*
X214074211Y-53549523D01*
X214143927Y-53660474D01*
X214170184Y-53702262D01*
X214297738Y-53829816D01*
X214345091Y-53859570D01*
X214411061Y-53901022D01*
X214450478Y-53925789D01*
X214568804Y-53967193D01*
X214620745Y-53985368D01*
X214620750Y-53985369D01*
X214799996Y-54005565D01*
X214800000Y-54005565D01*
X214800004Y-54005565D01*
X214979249Y-53985369D01*
X214979252Y-53985368D01*
X214979255Y-53985368D01*
X215149522Y-53925789D01*
X215302262Y-53829816D01*
X215302267Y-53829810D01*
X215305097Y-53827555D01*
X215307275Y-53826665D01*
X215308158Y-53826111D01*
X215308255Y-53826265D01*
X215369783Y-53801145D01*
X215382412Y-53800500D01*
X215513331Y-53800500D01*
X215513347Y-53800501D01*
X215520943Y-53800501D01*
X215679054Y-53800501D01*
X215679057Y-53800501D01*
X215831785Y-53759577D01*
X215831785Y-53759576D01*
X215839637Y-53757473D01*
X215839822Y-53758166D01*
X215878367Y-53750499D01*
X217297871Y-53750499D01*
X217297872Y-53750499D01*
X217357483Y-53744091D01*
X217492331Y-53693796D01*
X217607546Y-53607546D01*
X217693796Y-53492331D01*
X217744091Y-53357483D01*
X217750500Y-53297873D01*
X217750499Y-51502128D01*
X217744091Y-51442517D01*
X217738186Y-51426686D01*
X217693797Y-51307671D01*
X217693793Y-51307664D01*
X217607547Y-51192455D01*
X217607544Y-51192452D01*
X217492335Y-51106206D01*
X217492328Y-51106202D01*
X217357482Y-51055908D01*
X217357483Y-51055908D01*
X217297883Y-51049501D01*
X217297881Y-51049500D01*
X217297873Y-51049500D01*
X217297864Y-51049500D01*
X215502129Y-51049500D01*
X215502123Y-51049501D01*
X215442516Y-51055908D01*
X215307671Y-51106202D01*
X215307664Y-51106206D01*
X215192455Y-51192452D01*
X215192452Y-51192455D01*
X215106206Y-51307664D01*
X215106202Y-51307671D01*
X215055908Y-51442517D01*
X215052685Y-51472501D01*
X215049501Y-51502123D01*
X215049500Y-51502135D01*
X215049500Y-52283790D01*
X215029815Y-52350829D01*
X214977011Y-52396584D01*
X214911617Y-52407010D01*
X214800004Y-52394435D01*
X214799996Y-52394435D01*
X214620750Y-52414630D01*
X214620745Y-52414631D01*
X214450476Y-52474211D01*
X214297737Y-52570184D01*
X214170184Y-52697737D01*
X214074211Y-52850476D01*
X214014631Y-53020745D01*
X214014630Y-53020750D01*
X213994435Y-53199996D01*
X210265733Y-53199996D01*
X210273429Y-53183492D01*
X210273432Y-53183486D01*
X210330636Y-52970000D01*
X209433012Y-52970000D01*
X209465925Y-52912993D01*
X209500000Y-52785826D01*
X209500000Y-52654174D01*
X209465925Y-52527007D01*
X209433012Y-52470000D01*
X210330636Y-52470000D01*
X210330635Y-52469999D01*
X210273432Y-52256513D01*
X210273429Y-52256507D01*
X210173600Y-52042422D01*
X210173599Y-52042420D01*
X210038113Y-51848926D01*
X210038108Y-51848920D01*
X209871082Y-51681894D01*
X209684968Y-51551575D01*
X209641344Y-51496998D01*
X209634151Y-51427499D01*
X209665673Y-51365145D01*
X209684968Y-51348425D01*
X209871082Y-51218105D01*
X210038105Y-51051082D01*
X210173600Y-50857578D01*
X210273429Y-50643492D01*
X210273432Y-50643486D01*
X210330636Y-50430000D01*
X209433012Y-50430000D01*
X209465925Y-50372993D01*
X209500000Y-50245826D01*
X209500000Y-50114174D01*
X209465925Y-49987007D01*
X209433012Y-49930000D01*
X210330636Y-49930000D01*
X210330635Y-49929999D01*
X210273432Y-49716513D01*
X210273429Y-49716507D01*
X210173600Y-49502422D01*
X210173599Y-49502420D01*
X210101883Y-49399999D01*
X215884996Y-49399999D01*
X215884996Y-49400000D01*
X215904973Y-49628343D01*
X215904975Y-49628353D01*
X215964297Y-49849750D01*
X215964301Y-49849759D01*
X216061171Y-50057499D01*
X216113794Y-50132652D01*
X216757861Y-49488584D01*
X216780667Y-49573694D01*
X216839910Y-49676306D01*
X216923694Y-49760090D01*
X217026306Y-49819333D01*
X217111414Y-49842137D01*
X216467346Y-50486205D01*
X216542494Y-50538825D01*
X216542498Y-50538827D01*
X216750240Y-50635698D01*
X216750249Y-50635702D01*
X216971646Y-50695024D01*
X216971656Y-50695026D01*
X217199999Y-50715004D01*
X217200001Y-50715004D01*
X217428343Y-50695026D01*
X217428353Y-50695024D01*
X217649750Y-50635702D01*
X217649759Y-50635698D01*
X217857503Y-50538826D01*
X217932651Y-50486204D01*
X217288585Y-49842138D01*
X217373694Y-49819333D01*
X217476306Y-49760090D01*
X217560090Y-49676306D01*
X217619333Y-49573694D01*
X217642138Y-49488585D01*
X218286204Y-50132651D01*
X218338826Y-50057503D01*
X218435698Y-49849759D01*
X218435702Y-49849750D01*
X218495024Y-49628353D01*
X218495026Y-49628343D01*
X218515004Y-49400000D01*
X218515004Y-49399999D01*
X218495026Y-49171656D01*
X218495024Y-49171646D01*
X218435702Y-48950249D01*
X218435698Y-48950240D01*
X218338827Y-48742498D01*
X218338825Y-48742494D01*
X218286205Y-48667346D01*
X217642137Y-49311414D01*
X217619333Y-49226306D01*
X217560090Y-49123694D01*
X217476306Y-49039910D01*
X217373694Y-48980667D01*
X217288583Y-48957861D01*
X217932652Y-48313794D01*
X217857499Y-48261171D01*
X217649759Y-48164301D01*
X217649750Y-48164297D01*
X217428353Y-48104975D01*
X217428343Y-48104973D01*
X217200001Y-48084996D01*
X217199999Y-48084996D01*
X216971656Y-48104973D01*
X216971646Y-48104975D01*
X216750249Y-48164297D01*
X216750240Y-48164301D01*
X216542502Y-48261171D01*
X216467346Y-48313794D01*
X217111414Y-48957861D01*
X217026306Y-48980667D01*
X216923694Y-49039910D01*
X216839910Y-49123694D01*
X216780667Y-49226306D01*
X216757861Y-49311414D01*
X216113794Y-48667346D01*
X216061171Y-48742502D01*
X215964301Y-48950240D01*
X215964297Y-48950249D01*
X215904975Y-49171646D01*
X215904973Y-49171656D01*
X215884996Y-49399999D01*
X210101883Y-49399999D01*
X210038113Y-49308926D01*
X210038108Y-49308920D01*
X209871082Y-49141894D01*
X209677578Y-49006399D01*
X209463492Y-48906570D01*
X209463486Y-48906567D01*
X209250000Y-48849364D01*
X209250000Y-49746988D01*
X209192993Y-49714075D01*
X209065826Y-49680000D01*
X208934174Y-49680000D01*
X208807007Y-49714075D01*
X208750000Y-49746988D01*
X208750000Y-48849364D01*
X208749999Y-48849364D01*
X208536513Y-48906567D01*
X208536507Y-48906570D01*
X208322422Y-49006399D01*
X208322420Y-49006400D01*
X208128926Y-49141886D01*
X208128920Y-49141891D01*
X207961891Y-49308920D01*
X207961886Y-49308926D01*
X207826400Y-49502420D01*
X207826399Y-49502422D01*
X207726570Y-49716507D01*
X207726567Y-49716513D01*
X207669364Y-49929999D01*
X207669364Y-49930000D01*
X208566988Y-49930000D01*
X208534075Y-49987007D01*
X208500000Y-50114174D01*
X208500000Y-50245826D01*
X208534075Y-50372993D01*
X208566988Y-50430000D01*
X207669364Y-50430000D01*
X207726567Y-50643486D01*
X207726570Y-50643492D01*
X207826399Y-50857578D01*
X207961894Y-51051082D01*
X208128917Y-51218105D01*
X208315031Y-51348425D01*
X208358656Y-51403003D01*
X208365848Y-51472501D01*
X208334326Y-51534856D01*
X208315031Y-51551575D01*
X208128922Y-51681890D01*
X208128920Y-51681891D01*
X207961891Y-51848920D01*
X207961886Y-51848926D01*
X207826400Y-52042420D01*
X207826399Y-52042422D01*
X207726570Y-52256507D01*
X207726567Y-52256513D01*
X207669364Y-52469999D01*
X207669364Y-52470000D01*
X208566988Y-52470000D01*
X208534075Y-52527007D01*
X208500000Y-52654174D01*
X208500000Y-52785826D01*
X208534075Y-52912993D01*
X208566988Y-52970000D01*
X207669364Y-52970000D01*
X207726567Y-53183486D01*
X207726570Y-53183492D01*
X207826399Y-53397578D01*
X207961894Y-53591082D01*
X208128917Y-53758105D01*
X208314595Y-53888119D01*
X208358219Y-53942696D01*
X208365412Y-54012195D01*
X208333890Y-54074549D01*
X208314595Y-54091269D01*
X208128594Y-54221508D01*
X207961505Y-54388597D01*
X207825965Y-54582169D01*
X207825964Y-54582171D01*
X207726098Y-54796335D01*
X207726094Y-54796344D01*
X207664938Y-55024586D01*
X207664936Y-55024596D01*
X207644341Y-55259999D01*
X177355659Y-55259999D01*
X177335063Y-55024592D01*
X177273903Y-54796337D01*
X177174035Y-54582171D01*
X177038495Y-54388599D01*
X177038494Y-54388597D01*
X176871402Y-54221506D01*
X176871401Y-54221505D01*
X176685405Y-54091269D01*
X176641781Y-54036692D01*
X176634588Y-53967193D01*
X176666110Y-53904839D01*
X176685405Y-53888119D01*
X176871082Y-53758105D01*
X177038105Y-53591082D01*
X177173600Y-53397578D01*
X177273429Y-53183492D01*
X177273432Y-53183486D01*
X177330636Y-52970000D01*
X176433012Y-52970000D01*
X176465925Y-52912993D01*
X176500000Y-52785826D01*
X176500000Y-52654174D01*
X176465925Y-52527007D01*
X176433012Y-52470000D01*
X177330636Y-52470000D01*
X177330635Y-52469999D01*
X177273432Y-52256513D01*
X177273429Y-52256507D01*
X177173600Y-52042422D01*
X177173599Y-52042420D01*
X177038113Y-51848926D01*
X177038108Y-51848920D01*
X176871082Y-51681894D01*
X176684968Y-51551575D01*
X176641344Y-51496998D01*
X176634151Y-51427499D01*
X176665673Y-51365145D01*
X176684968Y-51348425D01*
X176871082Y-51218105D01*
X177038105Y-51051082D01*
X177173600Y-50857578D01*
X177273429Y-50643492D01*
X177273432Y-50643486D01*
X177330636Y-50430000D01*
X176433012Y-50430000D01*
X176465925Y-50372993D01*
X176500000Y-50245826D01*
X176500000Y-50114174D01*
X176465925Y-49987007D01*
X176433012Y-49930000D01*
X177330636Y-49930000D01*
X177330635Y-49929999D01*
X177273432Y-49716513D01*
X177273429Y-49716507D01*
X177173600Y-49502422D01*
X177173599Y-49502420D01*
X177038113Y-49308926D01*
X177038108Y-49308920D01*
X176871082Y-49141894D01*
X176677578Y-49006399D01*
X176463492Y-48906570D01*
X176463486Y-48906567D01*
X176250000Y-48849364D01*
X176250000Y-49746988D01*
X176192993Y-49714075D01*
X176065826Y-49680000D01*
X175934174Y-49680000D01*
X175807007Y-49714075D01*
X175750000Y-49746988D01*
X175750000Y-48849364D01*
X175749999Y-48849364D01*
X175536513Y-48906567D01*
X175536507Y-48906570D01*
X175322422Y-49006399D01*
X175322420Y-49006400D01*
X175128926Y-49141886D01*
X175128920Y-49141891D01*
X174961891Y-49308920D01*
X174961886Y-49308926D01*
X174826400Y-49502420D01*
X174826399Y-49502422D01*
X174726570Y-49716507D01*
X174726567Y-49716513D01*
X174669364Y-49929999D01*
X174669364Y-49930000D01*
X175566988Y-49930000D01*
X175534075Y-49987007D01*
X175500000Y-50114174D01*
X175500000Y-50245826D01*
X175534075Y-50372993D01*
X175566988Y-50430000D01*
X174669364Y-50430000D01*
X174726567Y-50643486D01*
X174726570Y-50643492D01*
X174826399Y-50857578D01*
X174961894Y-51051082D01*
X175128917Y-51218105D01*
X175315031Y-51348425D01*
X175358656Y-51403003D01*
X175365848Y-51472501D01*
X175334326Y-51534856D01*
X175315031Y-51551575D01*
X175128922Y-51681890D01*
X175128920Y-51681891D01*
X174961891Y-51848920D01*
X174961886Y-51848926D01*
X174826400Y-52042420D01*
X174826399Y-52042422D01*
X174726570Y-52256507D01*
X174726567Y-52256513D01*
X174669364Y-52469999D01*
X174669364Y-52470000D01*
X175566988Y-52470000D01*
X175534075Y-52527007D01*
X175500000Y-52654174D01*
X175500000Y-52785826D01*
X175534075Y-52912993D01*
X175566988Y-52970000D01*
X174610597Y-52970000D01*
X174543558Y-52950315D01*
X174522916Y-52933681D01*
X171351415Y-49762180D01*
X171317930Y-49700857D01*
X171322914Y-49631165D01*
X171364786Y-49575232D01*
X171430250Y-49550815D01*
X171439070Y-49550499D01*
X173097872Y-49550499D01*
X173157483Y-49544091D01*
X173292331Y-49493796D01*
X173407546Y-49407546D01*
X173493796Y-49292331D01*
X173544091Y-49157483D01*
X173550500Y-49097873D01*
X173550499Y-47302128D01*
X173544091Y-47242517D01*
X173529027Y-47202129D01*
X173493797Y-47107671D01*
X173493793Y-47107664D01*
X173407547Y-46992455D01*
X173407544Y-46992452D01*
X173292335Y-46906206D01*
X173292328Y-46906202D01*
X173157482Y-46855908D01*
X173157483Y-46855908D01*
X173097883Y-46849501D01*
X173097881Y-46849500D01*
X173097873Y-46849500D01*
X173097865Y-46849500D01*
X171750098Y-46849500D01*
X171683059Y-46829815D01*
X171662417Y-46813181D01*
X171568717Y-46719481D01*
X171568709Y-46719475D01*
X171479923Y-46668215D01*
X171479922Y-46668215D01*
X171431785Y-46640423D01*
X171279057Y-46599499D01*
X171120943Y-46599499D01*
X171113347Y-46599499D01*
X171113331Y-46599500D01*
X170031692Y-46599500D01*
X169964653Y-46579815D01*
X169930119Y-46546625D01*
X169800047Y-46360861D01*
X169800045Y-46360858D01*
X169639141Y-46199954D01*
X169452734Y-46069432D01*
X169452732Y-46069431D01*
X169246497Y-45973261D01*
X169246488Y-45973258D01*
X169026697Y-45914366D01*
X169026693Y-45914365D01*
X169026692Y-45914365D01*
X169026691Y-45914364D01*
X169026686Y-45914364D01*
X168800002Y-45894532D01*
X168799998Y-45894532D01*
X168573313Y-45914364D01*
X168573302Y-45914366D01*
X168353511Y-45973258D01*
X168353502Y-45973261D01*
X168147267Y-46069431D01*
X168147265Y-46069432D01*
X167960858Y-46199954D01*
X167799954Y-46360858D01*
X167669432Y-46547265D01*
X167669431Y-46547267D01*
X167573261Y-46753502D01*
X167573258Y-46753511D01*
X167514366Y-46973302D01*
X167514364Y-46973313D01*
X167494532Y-47199998D01*
X167494532Y-47200001D01*
X167514364Y-47426686D01*
X167514366Y-47426697D01*
X167573258Y-47646488D01*
X167573261Y-47646497D01*
X167669431Y-47852732D01*
X167669432Y-47852734D01*
X167799954Y-48039141D01*
X167960858Y-48200045D01*
X167960861Y-48200047D01*
X168147266Y-48330568D01*
X168296169Y-48400003D01*
X168324294Y-48413118D01*
X168376733Y-48459291D01*
X168395885Y-48526484D01*
X168375669Y-48593365D01*
X168322504Y-48638700D01*
X168271889Y-48649500D01*
X165764500Y-48649500D01*
X165697461Y-48629815D01*
X165651706Y-48577011D01*
X165640500Y-48525500D01*
X165640499Y-47202129D01*
X165640498Y-47202123D01*
X165636440Y-47164374D01*
X165634091Y-47142517D01*
X165621094Y-47107671D01*
X165583797Y-47007671D01*
X165583793Y-47007664D01*
X165497547Y-46892455D01*
X165497544Y-46892452D01*
X165382335Y-46806206D01*
X165382328Y-46806202D01*
X165247482Y-46755908D01*
X165247483Y-46755908D01*
X165187883Y-46749501D01*
X165187881Y-46749500D01*
X165187873Y-46749500D01*
X165187865Y-46749500D01*
X160124500Y-46749500D01*
X160057461Y-46729815D01*
X160011706Y-46677011D01*
X160000500Y-46625500D01*
X160000500Y-45124000D01*
X160020185Y-45056961D01*
X160072989Y-45011206D01*
X160124500Y-45000000D01*
X162350000Y-45000000D01*
X162850000Y-45000000D01*
X165187828Y-45000000D01*
X165187844Y-44999999D01*
X165247372Y-44993598D01*
X165247379Y-44993596D01*
X165382086Y-44943354D01*
X165382093Y-44943350D01*
X165497187Y-44857190D01*
X165497190Y-44857187D01*
X165583350Y-44742093D01*
X165583354Y-44742086D01*
X165633596Y-44607379D01*
X165633598Y-44607372D01*
X165639999Y-44547844D01*
X165640000Y-44547827D01*
X165640000Y-44000000D01*
X162850000Y-44000000D01*
X162850000Y-45000000D01*
X162350000Y-45000000D01*
X162350000Y-43500000D01*
X162850000Y-43500000D01*
X165640000Y-43500000D01*
X165640000Y-42952172D01*
X165639999Y-42952155D01*
X165633598Y-42892627D01*
X165633596Y-42892620D01*
X165583354Y-42757913D01*
X165583350Y-42757906D01*
X165497190Y-42642812D01*
X165497187Y-42642809D01*
X165382093Y-42556649D01*
X165382086Y-42556645D01*
X165247379Y-42506403D01*
X165247372Y-42506401D01*
X165187844Y-42500000D01*
X162850000Y-42500000D01*
X162850000Y-43500000D01*
X162350000Y-43500000D01*
X162350000Y-42500000D01*
X160124500Y-42500000D01*
X160057461Y-42480315D01*
X160011706Y-42427511D01*
X160000500Y-42376000D01*
X160000500Y-42199997D01*
X167495034Y-42199997D01*
X167495034Y-42200002D01*
X167514858Y-42426599D01*
X167514860Y-42426610D01*
X167573730Y-42646317D01*
X167573735Y-42646331D01*
X167669863Y-42852478D01*
X167720974Y-42925472D01*
X168400000Y-42246446D01*
X168400000Y-42252661D01*
X168427259Y-42354394D01*
X168479920Y-42445606D01*
X168554394Y-42520080D01*
X168645606Y-42572741D01*
X168747339Y-42600000D01*
X168753553Y-42600000D01*
X168074526Y-43279025D01*
X168147513Y-43330132D01*
X168147521Y-43330136D01*
X168353668Y-43426264D01*
X168353682Y-43426269D01*
X168573389Y-43485139D01*
X168573400Y-43485141D01*
X168799998Y-43504966D01*
X168800002Y-43504966D01*
X169026599Y-43485141D01*
X169026610Y-43485139D01*
X169246317Y-43426269D01*
X169246331Y-43426264D01*
X169452478Y-43330136D01*
X169525471Y-43279024D01*
X168846447Y-42600000D01*
X168852661Y-42600000D01*
X168954394Y-42572741D01*
X169045606Y-42520080D01*
X169120080Y-42445606D01*
X169172741Y-42354394D01*
X169200000Y-42252661D01*
X169200000Y-42246447D01*
X169879024Y-42925471D01*
X169930136Y-42852478D01*
X170026264Y-42646331D01*
X170026269Y-42646317D01*
X170085139Y-42426610D01*
X170085141Y-42426599D01*
X170104966Y-42200002D01*
X170104966Y-42199997D01*
X170085141Y-41973400D01*
X170085139Y-41973389D01*
X170026269Y-41753682D01*
X170026264Y-41753668D01*
X169930136Y-41547521D01*
X169930132Y-41547513D01*
X169879025Y-41474526D01*
X169200000Y-42153551D01*
X169200000Y-42147339D01*
X169172741Y-42045606D01*
X169120080Y-41954394D01*
X169045606Y-41879920D01*
X168954394Y-41827259D01*
X168852661Y-41800000D01*
X168846445Y-41800000D01*
X169525472Y-41120974D01*
X169452478Y-41069863D01*
X169246331Y-40973735D01*
X169246317Y-40973730D01*
X169026610Y-40914860D01*
X169026599Y-40914858D01*
X168800002Y-40895034D01*
X168799998Y-40895034D01*
X168573400Y-40914858D01*
X168573389Y-40914860D01*
X168353682Y-40973730D01*
X168353673Y-40973734D01*
X168147516Y-41069866D01*
X168147512Y-41069868D01*
X168074526Y-41120973D01*
X168074526Y-41120974D01*
X168753553Y-41800000D01*
X168747339Y-41800000D01*
X168645606Y-41827259D01*
X168554394Y-41879920D01*
X168479920Y-41954394D01*
X168427259Y-42045606D01*
X168400000Y-42147339D01*
X168400000Y-42153552D01*
X167720974Y-41474526D01*
X167720973Y-41474526D01*
X167669868Y-41547512D01*
X167669866Y-41547516D01*
X167573734Y-41753673D01*
X167573730Y-41753682D01*
X167514860Y-41973389D01*
X167514858Y-41973400D01*
X167495034Y-42199997D01*
X160000500Y-42199997D01*
X160000500Y-39942618D01*
X160020185Y-39875579D01*
X160072989Y-39829824D01*
X160142147Y-39819880D01*
X160205703Y-39848905D01*
X160240682Y-39899286D01*
X160256644Y-39942084D01*
X160256649Y-39942093D01*
X160342809Y-40057187D01*
X160342812Y-40057190D01*
X160457906Y-40143350D01*
X160457913Y-40143354D01*
X160592620Y-40193596D01*
X160592627Y-40193598D01*
X160652155Y-40199999D01*
X160652172Y-40200000D01*
X161350000Y-40200000D01*
X161350000Y-39175277D01*
X161426306Y-39219333D01*
X161540756Y-39250000D01*
X161659244Y-39250000D01*
X161773694Y-39219333D01*
X161850000Y-39175277D01*
X161850000Y-40200000D01*
X162547828Y-40200000D01*
X162547844Y-40199999D01*
X162607372Y-40193598D01*
X162607379Y-40193596D01*
X162742086Y-40143354D01*
X162742093Y-40143350D01*
X162857187Y-40057190D01*
X162857190Y-40057187D01*
X162943350Y-39942093D01*
X162943355Y-39942084D01*
X162972075Y-39865081D01*
X163013945Y-39809147D01*
X163079409Y-39784729D01*
X163147682Y-39799580D01*
X163179484Y-39824428D01*
X163188216Y-39833913D01*
X163188219Y-39833915D01*
X163188222Y-39833918D01*
X163371365Y-39976464D01*
X163371371Y-39976468D01*
X163371374Y-39976470D01*
X163575497Y-40086936D01*
X163689487Y-40126068D01*
X163795015Y-40162297D01*
X163795017Y-40162297D01*
X163795019Y-40162298D01*
X164023951Y-40200500D01*
X164023952Y-40200500D01*
X164256048Y-40200500D01*
X164256049Y-40200500D01*
X164484981Y-40162298D01*
X164704503Y-40086936D01*
X164908626Y-39976470D01*
X164931482Y-39958681D01*
X164970433Y-39928364D01*
X165091784Y-39833913D01*
X165248979Y-39663153D01*
X165375924Y-39468849D01*
X165469157Y-39256300D01*
X165526134Y-39031305D01*
X165526135Y-39031297D01*
X165545300Y-38800006D01*
X165545300Y-38799993D01*
X165526135Y-38568702D01*
X165526134Y-38568699D01*
X165526134Y-38568695D01*
X165484665Y-38404939D01*
X165487290Y-38335120D01*
X165527246Y-38277803D01*
X165591847Y-38251186D01*
X165604871Y-38250500D01*
X165726000Y-38250500D01*
X165793039Y-38270185D01*
X165838794Y-38322989D01*
X165850000Y-38374500D01*
X165850000Y-38550000D01*
X166766988Y-38550000D01*
X166734075Y-38607007D01*
X166700000Y-38734174D01*
X166700000Y-38865826D01*
X166734075Y-38992993D01*
X166766988Y-39050000D01*
X165850000Y-39050000D01*
X165850000Y-39697844D01*
X165856401Y-39757372D01*
X165856403Y-39757379D01*
X165906645Y-39892086D01*
X165906649Y-39892093D01*
X165992809Y-40007187D01*
X165992812Y-40007190D01*
X166107906Y-40093350D01*
X166107913Y-40093354D01*
X166242620Y-40143596D01*
X166242627Y-40143598D01*
X166302155Y-40149999D01*
X166302172Y-40150000D01*
X166950000Y-40150000D01*
X166950000Y-39233012D01*
X167007007Y-39265925D01*
X167134174Y-39300000D01*
X167265826Y-39300000D01*
X167392993Y-39265925D01*
X167450000Y-39233012D01*
X167450000Y-40150000D01*
X168097828Y-40150000D01*
X168097844Y-40149999D01*
X168157372Y-40143598D01*
X168157379Y-40143596D01*
X168292086Y-40093354D01*
X168292093Y-40093350D01*
X168407187Y-40007190D01*
X168407190Y-40007187D01*
X168493350Y-39892093D01*
X168493354Y-39892086D01*
X168543596Y-39757379D01*
X168543598Y-39757372D01*
X168549999Y-39697844D01*
X168550000Y-39697827D01*
X168550000Y-39050000D01*
X167633012Y-39050000D01*
X167665925Y-38992993D01*
X167700000Y-38865826D01*
X167700000Y-38734174D01*
X167665925Y-38607007D01*
X167633012Y-38550000D01*
X168449403Y-38550000D01*
X168516442Y-38569685D01*
X168537084Y-38586319D01*
X168908058Y-38957293D01*
X168941543Y-39018616D01*
X168940152Y-39077067D01*
X168914366Y-39173302D01*
X168914364Y-39173313D01*
X168894532Y-39399998D01*
X168894532Y-39400001D01*
X168914364Y-39626686D01*
X168914366Y-39626697D01*
X168973258Y-39846488D01*
X168973261Y-39846497D01*
X169069431Y-40052732D01*
X169069432Y-40052734D01*
X169199954Y-40239141D01*
X169360858Y-40400045D01*
X169360861Y-40400047D01*
X169547266Y-40530568D01*
X169753504Y-40626739D01*
X169753509Y-40626740D01*
X169753511Y-40626741D01*
X169806415Y-40640916D01*
X169973308Y-40685635D01*
X170135230Y-40699801D01*
X170199998Y-40705468D01*
X170200000Y-40705468D01*
X170200002Y-40705468D01*
X170256673Y-40700509D01*
X170426692Y-40685635D01*
X170646496Y-40626739D01*
X170852734Y-40530568D01*
X171009378Y-40420885D01*
X171075583Y-40398559D01*
X171143350Y-40415569D01*
X171191163Y-40466518D01*
X171204500Y-40522461D01*
X171204500Y-41118330D01*
X171204499Y-41118348D01*
X171204499Y-41284054D01*
X171204498Y-41284054D01*
X171235566Y-41400000D01*
X171245423Y-41436785D01*
X171260366Y-41462666D01*
X171274808Y-41487680D01*
X171324479Y-41573715D01*
X171443349Y-41692585D01*
X171443355Y-41692590D01*
X173463181Y-43712416D01*
X173496666Y-43773739D01*
X173499500Y-43800097D01*
X173499500Y-45047870D01*
X173499501Y-45047876D01*
X173505908Y-45107483D01*
X173556202Y-45242328D01*
X173556206Y-45242335D01*
X173642452Y-45357544D01*
X173642455Y-45357547D01*
X173757664Y-45443793D01*
X173757671Y-45443797D01*
X173892517Y-45494091D01*
X173892516Y-45494091D01*
X173899444Y-45494835D01*
X173952127Y-45500500D01*
X175199902Y-45500499D01*
X175266941Y-45520184D01*
X175287583Y-45536818D01*
X175415139Y-45664374D01*
X175415149Y-45664385D01*
X175419479Y-45668715D01*
X175419480Y-45668716D01*
X175531284Y-45780520D01*
X175618095Y-45830639D01*
X175618097Y-45830641D01*
X175656151Y-45852611D01*
X175668215Y-45859577D01*
X175820943Y-45900501D01*
X175820946Y-45900501D01*
X175986653Y-45900501D01*
X175986669Y-45900500D01*
X181013331Y-45900500D01*
X181013347Y-45900501D01*
X181020943Y-45900501D01*
X181179054Y-45900501D01*
X181179057Y-45900501D01*
X181331785Y-45859577D01*
X181381904Y-45830639D01*
X181468716Y-45780520D01*
X181580520Y-45668716D01*
X181580521Y-45668713D01*
X181662418Y-45586815D01*
X181723740Y-45553333D01*
X181750097Y-45550499D01*
X183097871Y-45550499D01*
X183097872Y-45550499D01*
X183157483Y-45544091D01*
X183292331Y-45493796D01*
X183407546Y-45407546D01*
X183493796Y-45292331D01*
X183544091Y-45157483D01*
X183550500Y-45097873D01*
X183550500Y-44924500D01*
X183570185Y-44857461D01*
X183622989Y-44811706D01*
X183674500Y-44800500D01*
X187168308Y-44800500D01*
X187235347Y-44820185D01*
X187269880Y-44853374D01*
X187332884Y-44943354D01*
X187399954Y-45039141D01*
X187560858Y-45200045D01*
X187560861Y-45200047D01*
X187746624Y-45330118D01*
X187790248Y-45384693D01*
X187799500Y-45431692D01*
X187799500Y-45968306D01*
X187779815Y-46035345D01*
X187746623Y-46069881D01*
X187560859Y-46199953D01*
X187399954Y-46360858D01*
X187269432Y-46547265D01*
X187269431Y-46547267D01*
X187173261Y-46753502D01*
X187173258Y-46753511D01*
X187114366Y-46973302D01*
X187114364Y-46973313D01*
X187094532Y-47199998D01*
X187094532Y-47200001D01*
X187114364Y-47426686D01*
X187114366Y-47426697D01*
X187173258Y-47646488D01*
X187173261Y-47646497D01*
X187269431Y-47852732D01*
X187269432Y-47852734D01*
X187399954Y-48039141D01*
X187560858Y-48200045D01*
X187560861Y-48200047D01*
X187747266Y-48330568D01*
X187953504Y-48426739D01*
X187953509Y-48426740D01*
X187953511Y-48426741D01*
X188006415Y-48440916D01*
X188173308Y-48485635D01*
X188335230Y-48499801D01*
X188399998Y-48505468D01*
X188400000Y-48505468D01*
X188400002Y-48505468D01*
X188456673Y-48500509D01*
X188626692Y-48485635D01*
X188846496Y-48426739D01*
X189052734Y-48330568D01*
X189239139Y-48200047D01*
X189400047Y-48039139D01*
X189530568Y-47852734D01*
X189626739Y-47646496D01*
X189685635Y-47426692D01*
X189705468Y-47200000D01*
X189702859Y-47170184D01*
X189688641Y-47007669D01*
X189685635Y-46973308D01*
X189633433Y-46778486D01*
X189626741Y-46753511D01*
X189626738Y-46753502D01*
X189623252Y-46746027D01*
X189530568Y-46547266D01*
X189400047Y-46360861D01*
X189400045Y-46360858D01*
X189239140Y-46199953D01*
X189053377Y-46069881D01*
X189009752Y-46015304D01*
X189000500Y-45968306D01*
X189000500Y-45431692D01*
X189020185Y-45364653D01*
X189053374Y-45330119D01*
X189239139Y-45200047D01*
X189400047Y-45039139D01*
X189530568Y-44852734D01*
X189626739Y-44646496D01*
X189685635Y-44426692D01*
X189705468Y-44200000D01*
X189685635Y-43973308D01*
X189640916Y-43806415D01*
X189626741Y-43753511D01*
X189626738Y-43753502D01*
X189613302Y-43724689D01*
X189530568Y-43547266D01*
X189400047Y-43360861D01*
X189400045Y-43360858D01*
X189239141Y-43199954D01*
X189052734Y-43069432D01*
X189052732Y-43069431D01*
X188846497Y-42973261D01*
X188846488Y-42973258D01*
X188626697Y-42914366D01*
X188626693Y-42914365D01*
X188626692Y-42914365D01*
X188626691Y-42914364D01*
X188626686Y-42914364D01*
X188400002Y-42894532D01*
X188399998Y-42894532D01*
X188173313Y-42914364D01*
X188173302Y-42914366D01*
X187953511Y-42973258D01*
X187953502Y-42973261D01*
X187747267Y-43069431D01*
X187747265Y-43069432D01*
X187560858Y-43199954D01*
X187399954Y-43360858D01*
X187354154Y-43426269D01*
X187269881Y-43546624D01*
X187215307Y-43590248D01*
X187168308Y-43599500D01*
X183674499Y-43599500D01*
X183607460Y-43579815D01*
X183561705Y-43527011D01*
X183550499Y-43475500D01*
X183550499Y-43302129D01*
X183550498Y-43302123D01*
X183550497Y-43302116D01*
X183544091Y-43242517D01*
X183514742Y-43163829D01*
X183493797Y-43107671D01*
X183493793Y-43107664D01*
X183407547Y-42992455D01*
X183407544Y-42992452D01*
X183292335Y-42906206D01*
X183292328Y-42906202D01*
X183157482Y-42855908D01*
X183157483Y-42855908D01*
X183097883Y-42849501D01*
X183097881Y-42849500D01*
X183097873Y-42849500D01*
X183097864Y-42849500D01*
X181302129Y-42849500D01*
X181302123Y-42849501D01*
X181242516Y-42855908D01*
X181107671Y-42906202D01*
X181107664Y-42906206D01*
X180992455Y-42992452D01*
X180992452Y-42992455D01*
X180906206Y-43107664D01*
X180906202Y-43107671D01*
X180855908Y-43242517D01*
X180849501Y-43302116D01*
X180849500Y-43302127D01*
X180849500Y-44000000D01*
X180849501Y-44575500D01*
X180829816Y-44642539D01*
X180777013Y-44688294D01*
X180725501Y-44699500D01*
X178673619Y-44699500D01*
X178606580Y-44679815D01*
X178560825Y-44627011D01*
X178550881Y-44557853D01*
X178553844Y-44543407D01*
X178585139Y-44426609D01*
X178585141Y-44426599D01*
X178604966Y-44200000D01*
X178604966Y-44199997D01*
X178585141Y-43973400D01*
X178585139Y-43973389D01*
X178526269Y-43753682D01*
X178526264Y-43753668D01*
X178430136Y-43547521D01*
X178430132Y-43547513D01*
X178379025Y-43474526D01*
X177700000Y-44153551D01*
X177700000Y-44147339D01*
X177672741Y-44045606D01*
X177620080Y-43954394D01*
X177545606Y-43879920D01*
X177454394Y-43827259D01*
X177352661Y-43800000D01*
X177346445Y-43800000D01*
X178025472Y-43120974D01*
X177952478Y-43069863D01*
X177746331Y-42973735D01*
X177746317Y-42973730D01*
X177526610Y-42914860D01*
X177526599Y-42914858D01*
X177300002Y-42895034D01*
X177299998Y-42895034D01*
X177073400Y-42914858D01*
X177073389Y-42914860D01*
X176853682Y-42973730D01*
X176853673Y-42973734D01*
X176647516Y-43069866D01*
X176647512Y-43069868D01*
X176574526Y-43120973D01*
X176574526Y-43120974D01*
X177253553Y-43800000D01*
X177247339Y-43800000D01*
X177145606Y-43827259D01*
X177054394Y-43879920D01*
X176979920Y-43954394D01*
X176927259Y-44045606D01*
X176900000Y-44147339D01*
X176900000Y-44153552D01*
X176215799Y-43469351D01*
X176166805Y-43459505D01*
X176116622Y-43410889D01*
X176101981Y-43355366D01*
X176100900Y-43355423D01*
X176100854Y-43355429D01*
X176100853Y-43355426D01*
X176100676Y-43355436D01*
X176100499Y-43352141D01*
X176100499Y-43352128D01*
X176095123Y-43302116D01*
X176094091Y-43292516D01*
X176043797Y-43157671D01*
X176043793Y-43157664D01*
X175957547Y-43042455D01*
X175957544Y-43042452D01*
X175842335Y-42956206D01*
X175842328Y-42956202D01*
X175707482Y-42905908D01*
X175707483Y-42905908D01*
X175647883Y-42899501D01*
X175647881Y-42899500D01*
X175647873Y-42899500D01*
X175647865Y-42899500D01*
X174400098Y-42899500D01*
X174333059Y-42879815D01*
X174312417Y-42863181D01*
X172441819Y-40992583D01*
X172408334Y-40931260D01*
X172405500Y-40904902D01*
X172405500Y-36187503D01*
X172425185Y-36120464D01*
X172477989Y-36074709D01*
X172547147Y-36064765D01*
X172561593Y-36067728D01*
X172565583Y-36068797D01*
X172719592Y-36110063D01*
X172896034Y-36125500D01*
X172954999Y-36130659D01*
X172955000Y-36130659D01*
X172955001Y-36130659D01*
X173013966Y-36125500D01*
X173190408Y-36110063D01*
X173418663Y-36048903D01*
X173632830Y-35949035D01*
X173826401Y-35813495D01*
X173993495Y-35646401D01*
X174123425Y-35460842D01*
X174178002Y-35417217D01*
X174247500Y-35410023D01*
X174309855Y-35441546D01*
X174326575Y-35460842D01*
X174456501Y-35646396D01*
X174456506Y-35646402D01*
X174623595Y-35813492D01*
X174623598Y-35813494D01*
X174623599Y-35813495D01*
X174656623Y-35836618D01*
X174700247Y-35891193D01*
X174709500Y-35938193D01*
X174709500Y-39868965D01*
X174709499Y-39868983D01*
X174709499Y-40034689D01*
X174709498Y-40034689D01*
X174750423Y-40187420D01*
X174766891Y-40215943D01*
X174766890Y-40215943D01*
X174766891Y-40215944D01*
X174829475Y-40324344D01*
X174829481Y-40324352D01*
X174948349Y-40443220D01*
X174948354Y-40443224D01*
X175585649Y-41080520D01*
X175585651Y-41080521D01*
X175585655Y-41080524D01*
X175722574Y-41159573D01*
X175722581Y-41159577D01*
X175875308Y-41200501D01*
X175875310Y-41200501D01*
X176041019Y-41200501D01*
X176041035Y-41200500D01*
X178713331Y-41200500D01*
X178713347Y-41200501D01*
X178720943Y-41200501D01*
X178879054Y-41200501D01*
X178879057Y-41200501D01*
X179031785Y-41159577D01*
X179090040Y-41125943D01*
X179168716Y-41080520D01*
X179280520Y-40968716D01*
X179280520Y-40968714D01*
X179290724Y-40958511D01*
X179290728Y-40958506D01*
X179557294Y-40691939D01*
X179618615Y-40658456D01*
X179677066Y-40659847D01*
X179696604Y-40665082D01*
X179773308Y-40685635D01*
X179935230Y-40699801D01*
X179999998Y-40705468D01*
X180000000Y-40705468D01*
X180000002Y-40705468D01*
X180056673Y-40700509D01*
X180226692Y-40685635D01*
X180446496Y-40626739D01*
X180652734Y-40530568D01*
X180839139Y-40400047D01*
X181000047Y-40239139D01*
X181130568Y-40052734D01*
X181226739Y-39846496D01*
X181285635Y-39626692D01*
X181305468Y-39400000D01*
X181305468Y-39399998D01*
X183694532Y-39399998D01*
X183694532Y-39400001D01*
X183714364Y-39626686D01*
X183714366Y-39626697D01*
X183773258Y-39846488D01*
X183773261Y-39846497D01*
X183869431Y-40052732D01*
X183869432Y-40052734D01*
X183999954Y-40239141D01*
X184160858Y-40400045D01*
X184160861Y-40400047D01*
X184347266Y-40530568D01*
X184553504Y-40626739D01*
X184553509Y-40626740D01*
X184553511Y-40626741D01*
X184606415Y-40640916D01*
X184773308Y-40685635D01*
X184935230Y-40699801D01*
X184999998Y-40705468D01*
X185000000Y-40705468D01*
X185000002Y-40705468D01*
X185056673Y-40700509D01*
X185226692Y-40685635D01*
X185446496Y-40626739D01*
X185652734Y-40530568D01*
X185839139Y-40400047D01*
X186000047Y-40239139D01*
X186130118Y-40053375D01*
X186184693Y-40009752D01*
X186231692Y-40000500D01*
X186279903Y-40000500D01*
X186346942Y-40020185D01*
X186367584Y-40036819D01*
X187088058Y-40757293D01*
X187121543Y-40818616D01*
X187120152Y-40877067D01*
X187094366Y-40973302D01*
X187094364Y-40973313D01*
X187074532Y-41199998D01*
X187074532Y-41200001D01*
X187094364Y-41426686D01*
X187094366Y-41426697D01*
X187153258Y-41646488D01*
X187153261Y-41646497D01*
X187249431Y-41852732D01*
X187249432Y-41852734D01*
X187379954Y-42039141D01*
X187540858Y-42200045D01*
X187540861Y-42200047D01*
X187727266Y-42330568D01*
X187933504Y-42426739D01*
X187933509Y-42426740D01*
X187933511Y-42426741D01*
X187986415Y-42440916D01*
X188153308Y-42485635D01*
X188315230Y-42499801D01*
X188379998Y-42505468D01*
X188380000Y-42505468D01*
X188380002Y-42505468D01*
X188442499Y-42500000D01*
X188606692Y-42485635D01*
X188826496Y-42426739D01*
X189032734Y-42330568D01*
X189219139Y-42200047D01*
X189380047Y-42039139D01*
X189510568Y-41852734D01*
X189606739Y-41646496D01*
X189665635Y-41426692D01*
X189685468Y-41200000D01*
X189685468Y-41199998D01*
X194694532Y-41199998D01*
X194694532Y-41200001D01*
X194714364Y-41426686D01*
X194714366Y-41426697D01*
X194773258Y-41646488D01*
X194773261Y-41646497D01*
X194869431Y-41852732D01*
X194869432Y-41852734D01*
X194999954Y-42039141D01*
X195160858Y-42200045D01*
X195160861Y-42200047D01*
X195347266Y-42330568D01*
X195553504Y-42426739D01*
X195553509Y-42426740D01*
X195553511Y-42426741D01*
X195606415Y-42440916D01*
X195773308Y-42485635D01*
X195935230Y-42499801D01*
X195999998Y-42505468D01*
X196000000Y-42505468D01*
X196000001Y-42505468D01*
X196022574Y-42503493D01*
X196178018Y-42489893D01*
X196246516Y-42503659D01*
X196276505Y-42525740D01*
X196491057Y-42740292D01*
X196524542Y-42801615D01*
X196519558Y-42871307D01*
X196477686Y-42927240D01*
X196412222Y-42951657D01*
X196371283Y-42947748D01*
X196246697Y-42914366D01*
X196246693Y-42914365D01*
X196246692Y-42914365D01*
X196246691Y-42914364D01*
X196246686Y-42914364D01*
X196020002Y-42894532D01*
X196019998Y-42894532D01*
X195793313Y-42914364D01*
X195793302Y-42914366D01*
X195573511Y-42973258D01*
X195573502Y-42973261D01*
X195367267Y-43069431D01*
X195367265Y-43069432D01*
X195180858Y-43199954D01*
X195019954Y-43360858D01*
X194889432Y-43547265D01*
X194889431Y-43547267D01*
X194793261Y-43753502D01*
X194793258Y-43753511D01*
X194734366Y-43973302D01*
X194734364Y-43973313D01*
X194714532Y-44199998D01*
X194714532Y-44200000D01*
X194734364Y-44426686D01*
X194734366Y-44426697D01*
X194793258Y-44646488D01*
X194793261Y-44646497D01*
X194889431Y-44852732D01*
X194889432Y-44852734D01*
X195019954Y-45039141D01*
X195180858Y-45200045D01*
X195218876Y-45226665D01*
X195367266Y-45330568D01*
X195573504Y-45426739D01*
X195793308Y-45485635D01*
X195955230Y-45499801D01*
X196019998Y-45505468D01*
X196020000Y-45505468D01*
X196020002Y-45505468D01*
X196076807Y-45500498D01*
X196246692Y-45485635D01*
X196342932Y-45459847D01*
X196412781Y-45461510D01*
X196462706Y-45491941D01*
X196896258Y-45925493D01*
X196929743Y-45986816D01*
X196924759Y-46056508D01*
X196882887Y-46112441D01*
X196817423Y-46136858D01*
X196749150Y-46122006D01*
X196737454Y-46114749D01*
X196672734Y-46069432D01*
X196672732Y-46069431D01*
X196466497Y-45973261D01*
X196466488Y-45973258D01*
X196246697Y-45914366D01*
X196246693Y-45914365D01*
X196246692Y-45914365D01*
X196246691Y-45914364D01*
X196246686Y-45914364D01*
X196020002Y-45894532D01*
X196019998Y-45894532D01*
X195793313Y-45914364D01*
X195793302Y-45914366D01*
X195573511Y-45973258D01*
X195573502Y-45973261D01*
X195367267Y-46069431D01*
X195367265Y-46069432D01*
X195180858Y-46199954D01*
X195019954Y-46360858D01*
X194889432Y-46547265D01*
X194889431Y-46547267D01*
X194793261Y-46753502D01*
X194793258Y-46753511D01*
X194734366Y-46973302D01*
X194734364Y-46973313D01*
X194714532Y-47199998D01*
X194714532Y-47200001D01*
X194734364Y-47426686D01*
X194734366Y-47426697D01*
X194793258Y-47646488D01*
X194793261Y-47646497D01*
X194889431Y-47852732D01*
X194889432Y-47852734D01*
X195019954Y-48039141D01*
X195180858Y-48200045D01*
X195180861Y-48200047D01*
X195367266Y-48330568D01*
X195573504Y-48426739D01*
X195573509Y-48426740D01*
X195573511Y-48426741D01*
X195626415Y-48440916D01*
X195793308Y-48485635D01*
X195955230Y-48499801D01*
X196019998Y-48505468D01*
X196020000Y-48505468D01*
X196020002Y-48505468D01*
X196076673Y-48500509D01*
X196246692Y-48485635D01*
X196466496Y-48426739D01*
X196672734Y-48330568D01*
X196829572Y-48220750D01*
X196840748Y-48212925D01*
X196906955Y-48190598D01*
X196911871Y-48190500D01*
X197179059Y-48190500D01*
X197246098Y-48210185D01*
X197256374Y-48217555D01*
X197259207Y-48219814D01*
X197259209Y-48219816D01*
X197411949Y-48315789D01*
X197582216Y-48375368D01*
X197582221Y-48375369D01*
X197761467Y-48395565D01*
X197761471Y-48395565D01*
X197761475Y-48395565D01*
X197940720Y-48375369D01*
X197940723Y-48375368D01*
X197940726Y-48375368D01*
X198110993Y-48315789D01*
X198263733Y-48219816D01*
X198391287Y-48092262D01*
X198487260Y-47939522D01*
X198526551Y-47827234D01*
X198567271Y-47770460D01*
X198632224Y-47744712D01*
X198700786Y-47758168D01*
X198731273Y-47780509D01*
X198769298Y-47818534D01*
X198802783Y-47879857D01*
X198804837Y-47892331D01*
X198814630Y-47979249D01*
X198874210Y-48149521D01*
X198944365Y-48261171D01*
X198970184Y-48302262D01*
X199097738Y-48429816D01*
X199250478Y-48525789D01*
X199396862Y-48577011D01*
X199420745Y-48585368D01*
X199420750Y-48585369D01*
X199599996Y-48605565D01*
X199600000Y-48605565D01*
X199600004Y-48605565D01*
X199779249Y-48585369D01*
X199779252Y-48585368D01*
X199779255Y-48585368D01*
X199949522Y-48525789D01*
X200102262Y-48429816D01*
X200229816Y-48302262D01*
X200325789Y-48149522D01*
X200385368Y-47979255D01*
X200389845Y-47939521D01*
X200405565Y-47800003D01*
X200405565Y-47799996D01*
X200385369Y-47620750D01*
X200385368Y-47620745D01*
X200325788Y-47450476D01*
X200229815Y-47297737D01*
X200102262Y-47170184D01*
X199949521Y-47074210D01*
X199779249Y-47014630D01*
X199692332Y-47004837D01*
X199627918Y-46977770D01*
X199618535Y-46969298D01*
X199519382Y-46870145D01*
X199499676Y-46844464D01*
X199492635Y-46832269D01*
X199480519Y-46811283D01*
X199368715Y-46699479D01*
X199368714Y-46699478D01*
X199364384Y-46695148D01*
X199364373Y-46695138D01*
X197311941Y-44642706D01*
X197278456Y-44581383D01*
X197279847Y-44522931D01*
X197283427Y-44509571D01*
X197305635Y-44426692D01*
X197325468Y-44200000D01*
X197305635Y-43973308D01*
X197272251Y-43848716D01*
X197273914Y-43778866D01*
X197313077Y-43721004D01*
X197377305Y-43693500D01*
X197446207Y-43705087D01*
X197479707Y-43728942D01*
X200915139Y-47164374D01*
X200915149Y-47164385D01*
X200919479Y-47168715D01*
X200919480Y-47168716D01*
X201031284Y-47280520D01*
X201068713Y-47302129D01*
X201118095Y-47330639D01*
X201118097Y-47330641D01*
X201151508Y-47349931D01*
X201168215Y-47359577D01*
X201320942Y-47400500D01*
X201320943Y-47400500D01*
X210908413Y-47400500D01*
X210975452Y-47420185D01*
X211020795Y-47472095D01*
X211060737Y-47557752D01*
X211060738Y-47557753D01*
X211192264Y-47745591D01*
X211354409Y-47907736D01*
X211542247Y-48039262D01*
X211750070Y-48136171D01*
X211971565Y-48195521D01*
X212134732Y-48209796D01*
X212199998Y-48215506D01*
X212200000Y-48215506D01*
X212200002Y-48215506D01*
X212260821Y-48210185D01*
X212428435Y-48195521D01*
X212649930Y-48136171D01*
X212857753Y-48039262D01*
X213045591Y-47907736D01*
X213207736Y-47745591D01*
X213339262Y-47557753D01*
X213436171Y-47349930D01*
X213495521Y-47128435D01*
X213514963Y-46906204D01*
X213515506Y-46900002D01*
X213515506Y-46899997D01*
X213508011Y-46814336D01*
X213495521Y-46671565D01*
X213436171Y-46450070D01*
X213339262Y-46242247D01*
X213207736Y-46054409D01*
X213045591Y-45892264D01*
X212857753Y-45760738D01*
X212649930Y-45663829D01*
X212649927Y-45663828D01*
X212649925Y-45663827D01*
X212428436Y-45604479D01*
X212428429Y-45604478D01*
X212200002Y-45584494D01*
X212199998Y-45584494D01*
X211971570Y-45604478D01*
X211971563Y-45604479D01*
X211750074Y-45663827D01*
X211750070Y-45663829D01*
X211542247Y-45760738D01*
X211354409Y-45892264D01*
X211354407Y-45892265D01*
X211354404Y-45892268D01*
X211192268Y-46054404D01*
X211192265Y-46054407D01*
X211192264Y-46054409D01*
X211127693Y-46146625D01*
X211073117Y-46190249D01*
X211026120Y-46199500D01*
X201700097Y-46199500D01*
X201633058Y-46179815D01*
X201612416Y-46163181D01*
X200049231Y-44599996D01*
X210194435Y-44599996D01*
X210194435Y-44600003D01*
X210214630Y-44779249D01*
X210214631Y-44779254D01*
X210274211Y-44949523D01*
X210330521Y-45039139D01*
X210370184Y-45102262D01*
X210497738Y-45229816D01*
X210650478Y-45325789D01*
X210761545Y-45364653D01*
X210820745Y-45385368D01*
X210820750Y-45385369D01*
X210999996Y-45405565D01*
X211000000Y-45405565D01*
X211000004Y-45405565D01*
X211179249Y-45385369D01*
X211179252Y-45385368D01*
X211179255Y-45385368D01*
X211349522Y-45325789D01*
X211502262Y-45229816D01*
X211502267Y-45229810D01*
X211505097Y-45227555D01*
X211507275Y-45226665D01*
X211508158Y-45226111D01*
X211508255Y-45226265D01*
X211569783Y-45201145D01*
X211582412Y-45200500D01*
X216096606Y-45200500D01*
X216163645Y-45220185D01*
X216188301Y-45241896D01*
X216188435Y-45241763D01*
X216190528Y-45243856D01*
X216191600Y-45244800D01*
X216192266Y-45245594D01*
X216276790Y-45330117D01*
X216354409Y-45407736D01*
X216542247Y-45539262D01*
X216750070Y-45636171D01*
X216971565Y-45695521D01*
X217134732Y-45709796D01*
X217199998Y-45715506D01*
X217200000Y-45715506D01*
X217200002Y-45715506D01*
X217257108Y-45710509D01*
X217428435Y-45695521D01*
X217649930Y-45636171D01*
X217857753Y-45539262D01*
X218045591Y-45407736D01*
X218207736Y-45245591D01*
X218339262Y-45057753D01*
X218436171Y-44849930D01*
X218495521Y-44628435D01*
X218515506Y-44400000D01*
X218495521Y-44171565D01*
X218436171Y-43950070D01*
X218339262Y-43742247D01*
X218207736Y-43554409D01*
X218045591Y-43392264D01*
X217857753Y-43260738D01*
X217649930Y-43163829D01*
X217649927Y-43163828D01*
X217649925Y-43163827D01*
X217428436Y-43104479D01*
X217428429Y-43104478D01*
X217200002Y-43084494D01*
X217199998Y-43084494D01*
X216971570Y-43104478D01*
X216971563Y-43104479D01*
X216750074Y-43163827D01*
X216750070Y-43163829D01*
X216542247Y-43260738D01*
X216354409Y-43392264D01*
X216354407Y-43392265D01*
X216354404Y-43392268D01*
X216192268Y-43554404D01*
X216192265Y-43554407D01*
X216192264Y-43554409D01*
X216160691Y-43599500D01*
X216060737Y-43742248D01*
X216060736Y-43742250D01*
X215974165Y-43927904D01*
X215927993Y-43980344D01*
X215861783Y-43999500D01*
X211582412Y-43999500D01*
X211515373Y-43979815D01*
X211505097Y-43972445D01*
X211502263Y-43970185D01*
X211502262Y-43970184D01*
X211434974Y-43927904D01*
X211349523Y-43874211D01*
X211179254Y-43814631D01*
X211179249Y-43814630D01*
X211000004Y-43794435D01*
X210999996Y-43794435D01*
X210820750Y-43814630D01*
X210820745Y-43814631D01*
X210650476Y-43874211D01*
X210497737Y-43970184D01*
X210370184Y-44097737D01*
X210274211Y-44250476D01*
X210214631Y-44420745D01*
X210214630Y-44420750D01*
X210194435Y-44599996D01*
X200049231Y-44599996D01*
X197246471Y-41797236D01*
X197212986Y-41735913D01*
X197217970Y-41666221D01*
X197221762Y-41657166D01*
X197226739Y-41646496D01*
X197285635Y-41426692D01*
X197305468Y-41200000D01*
X197292873Y-41056043D01*
X197306639Y-40987545D01*
X197355254Y-40937362D01*
X197423283Y-40921428D01*
X197457356Y-40928196D01*
X197620737Y-40985366D01*
X197620743Y-40985367D01*
X197620745Y-40985368D01*
X197620746Y-40985368D01*
X197620750Y-40985369D01*
X197799996Y-41005565D01*
X197800000Y-41005565D01*
X197800004Y-41005565D01*
X197979249Y-40985369D01*
X197979252Y-40985368D01*
X197979255Y-40985368D01*
X198149522Y-40925789D01*
X198302262Y-40829816D01*
X198429816Y-40702262D01*
X198525789Y-40549522D01*
X198585368Y-40379255D01*
X198585896Y-40374576D01*
X198605565Y-40200000D01*
X198605565Y-40199996D01*
X198585369Y-40020750D01*
X198585368Y-40020745D01*
X198571046Y-39979815D01*
X198525789Y-39850478D01*
X198513470Y-39830873D01*
X198467291Y-39757379D01*
X198429816Y-39697738D01*
X198302262Y-39570184D01*
X198234089Y-39527348D01*
X198149521Y-39474210D01*
X197979249Y-39414630D01*
X197892330Y-39404837D01*
X197827916Y-39377770D01*
X197818533Y-39369298D01*
X197260111Y-38810876D01*
X197226626Y-38749553D01*
X197231610Y-38679861D01*
X197235411Y-38670788D01*
X197246739Y-38646496D01*
X197272596Y-38549994D01*
X200294859Y-38549994D01*
X200294859Y-38550000D01*
X200315385Y-38797729D01*
X200315387Y-38797738D01*
X200376412Y-39038717D01*
X200476267Y-39266367D01*
X200576562Y-39419881D01*
X201276212Y-38720233D01*
X201287482Y-38762292D01*
X201359890Y-38887708D01*
X201462292Y-38990110D01*
X201587708Y-39062518D01*
X201629766Y-39073787D01*
X200929943Y-39773609D01*
X200976768Y-39810055D01*
X200976771Y-39810057D01*
X201195385Y-39928364D01*
X201195396Y-39928369D01*
X201430506Y-40009083D01*
X201675707Y-40050000D01*
X201924293Y-40050000D01*
X202169493Y-40009083D01*
X202404603Y-39928369D01*
X202404614Y-39928364D01*
X202623230Y-39810056D01*
X202623236Y-39810051D01*
X202670055Y-39773610D01*
X202670056Y-39773609D01*
X201970233Y-39073787D01*
X202012292Y-39062518D01*
X202137708Y-38990110D01*
X202240110Y-38887708D01*
X202312518Y-38762292D01*
X202323787Y-38720234D01*
X203023435Y-39419882D01*
X203123733Y-39266364D01*
X203223587Y-39038717D01*
X203284612Y-38797738D01*
X203284614Y-38797729D01*
X203305141Y-38550000D01*
X203305141Y-38549994D01*
X206794859Y-38549994D01*
X206794859Y-38550000D01*
X206815385Y-38797729D01*
X206815387Y-38797738D01*
X206876412Y-39038717D01*
X206976267Y-39266367D01*
X207076562Y-39419881D01*
X207776212Y-38720233D01*
X207787482Y-38762292D01*
X207859890Y-38887708D01*
X207962292Y-38990110D01*
X208087708Y-39062518D01*
X208129766Y-39073787D01*
X207429943Y-39773609D01*
X207476768Y-39810055D01*
X207476771Y-39810057D01*
X207695385Y-39928364D01*
X207695396Y-39928369D01*
X207930506Y-40009083D01*
X208175707Y-40050000D01*
X208424293Y-40050000D01*
X208669493Y-40009083D01*
X208904603Y-39928369D01*
X208904614Y-39928364D01*
X209123230Y-39810056D01*
X209123236Y-39810051D01*
X209170055Y-39773610D01*
X209170056Y-39773609D01*
X208470233Y-39073787D01*
X208512292Y-39062518D01*
X208637708Y-38990110D01*
X208740110Y-38887708D01*
X208812518Y-38762292D01*
X208823787Y-38720234D01*
X209523435Y-39419882D01*
X209623733Y-39266364D01*
X209723587Y-39038717D01*
X209784612Y-38797738D01*
X209784614Y-38797729D01*
X209805141Y-38550000D01*
X209805141Y-38549994D01*
X209784614Y-38302270D01*
X209784612Y-38302261D01*
X209723587Y-38061282D01*
X209623732Y-37833632D01*
X209523435Y-37680116D01*
X208823787Y-38379765D01*
X208812518Y-38337708D01*
X208740110Y-38212292D01*
X208637708Y-38109890D01*
X208512292Y-38037482D01*
X208470233Y-38026212D01*
X209170055Y-37326389D01*
X209170055Y-37326388D01*
X209123236Y-37289947D01*
X209123231Y-37289944D01*
X208904614Y-37171635D01*
X208904603Y-37171630D01*
X208669493Y-37090916D01*
X208424293Y-37050000D01*
X208175707Y-37050000D01*
X207930506Y-37090916D01*
X207695396Y-37171630D01*
X207695385Y-37171635D01*
X207476770Y-37289943D01*
X207429943Y-37326389D01*
X208129766Y-38026212D01*
X208087708Y-38037482D01*
X207962292Y-38109890D01*
X207859890Y-38212292D01*
X207787482Y-38337708D01*
X207776212Y-38379765D01*
X207076563Y-37680117D01*
X206976267Y-37833633D01*
X206976265Y-37833637D01*
X206876412Y-38061282D01*
X206815387Y-38302261D01*
X206815385Y-38302270D01*
X206794859Y-38549994D01*
X203305141Y-38549994D01*
X203284614Y-38302270D01*
X203284612Y-38302261D01*
X203223587Y-38061282D01*
X203123732Y-37833632D01*
X203023435Y-37680116D01*
X202323787Y-38379765D01*
X202312518Y-38337708D01*
X202240110Y-38212292D01*
X202137708Y-38109890D01*
X202012292Y-38037482D01*
X201970233Y-38026212D01*
X202670055Y-37326389D01*
X202670055Y-37326388D01*
X202623236Y-37289947D01*
X202623231Y-37289944D01*
X202404614Y-37171635D01*
X202404603Y-37171630D01*
X202169493Y-37090916D01*
X201924293Y-37050000D01*
X201675707Y-37050000D01*
X201430506Y-37090916D01*
X201195396Y-37171630D01*
X201195385Y-37171635D01*
X200976770Y-37289943D01*
X200929943Y-37326389D01*
X201629766Y-38026212D01*
X201587708Y-38037482D01*
X201462292Y-38109890D01*
X201359890Y-38212292D01*
X201287482Y-38337708D01*
X201276212Y-38379766D01*
X200576563Y-37680117D01*
X200476267Y-37833633D01*
X200476265Y-37833637D01*
X200376412Y-38061282D01*
X200315387Y-38302261D01*
X200315385Y-38302270D01*
X200294859Y-38549994D01*
X197272596Y-38549994D01*
X197305635Y-38426692D01*
X197325468Y-38200000D01*
X197305635Y-37973308D01*
X197250109Y-37766081D01*
X197246741Y-37753511D01*
X197246738Y-37753502D01*
X197229223Y-37715942D01*
X197150568Y-37547266D01*
X197020047Y-37360861D01*
X197020045Y-37360858D01*
X196859141Y-37199954D01*
X196672734Y-37069432D01*
X196672732Y-37069431D01*
X196466497Y-36973261D01*
X196466488Y-36973258D01*
X196246697Y-36914366D01*
X196246693Y-36914365D01*
X196246692Y-36914365D01*
X196246691Y-36914364D01*
X196246686Y-36914364D01*
X196020002Y-36894532D01*
X196019998Y-36894532D01*
X195793313Y-36914364D01*
X195793302Y-36914366D01*
X195573511Y-36973258D01*
X195573502Y-36973261D01*
X195367267Y-37069431D01*
X195367265Y-37069432D01*
X195180858Y-37199954D01*
X195019954Y-37360858D01*
X194889432Y-37547265D01*
X194889431Y-37547267D01*
X194793261Y-37753502D01*
X194793258Y-37753511D01*
X194734366Y-37973302D01*
X194734364Y-37973313D01*
X194714532Y-38199998D01*
X194714532Y-38200001D01*
X194734364Y-38426686D01*
X194734366Y-38426697D01*
X194793258Y-38646488D01*
X194793261Y-38646497D01*
X194889431Y-38852732D01*
X194889432Y-38852734D01*
X195019954Y-39039141D01*
X195180858Y-39200045D01*
X195211091Y-39221214D01*
X195367266Y-39330568D01*
X195573504Y-39426739D01*
X195793308Y-39485635D01*
X195955230Y-39499801D01*
X196019998Y-39505468D01*
X196019999Y-39505468D01*
X196019999Y-39505467D01*
X196020000Y-39505468D01*
X196179626Y-39491501D01*
X196248123Y-39505267D01*
X196278113Y-39527348D01*
X196498378Y-39747613D01*
X196531863Y-39808936D01*
X196526879Y-39878628D01*
X196485007Y-39934561D01*
X196419543Y-39958978D01*
X196378604Y-39955069D01*
X196226697Y-39914366D01*
X196226693Y-39914365D01*
X196226692Y-39914365D01*
X196226691Y-39914364D01*
X196226686Y-39914364D01*
X196000002Y-39894532D01*
X195999998Y-39894532D01*
X195773313Y-39914364D01*
X195773302Y-39914366D01*
X195553511Y-39973258D01*
X195553502Y-39973261D01*
X195347267Y-40069431D01*
X195347265Y-40069432D01*
X195160858Y-40199954D01*
X194999954Y-40360858D01*
X194869432Y-40547265D01*
X194869431Y-40547267D01*
X194773261Y-40753502D01*
X194773258Y-40753511D01*
X194714366Y-40973302D01*
X194714364Y-40973313D01*
X194694532Y-41199998D01*
X189685468Y-41199998D01*
X189681931Y-41159577D01*
X189674082Y-41069863D01*
X189665635Y-40973308D01*
X189609332Y-40763181D01*
X189606741Y-40753511D01*
X189606738Y-40753502D01*
X189594385Y-40727011D01*
X189510568Y-40547266D01*
X189380047Y-40360861D01*
X189380045Y-40360858D01*
X189219141Y-40199954D01*
X189032734Y-40069432D01*
X189032732Y-40069431D01*
X188826497Y-39973261D01*
X188826488Y-39973258D01*
X188606697Y-39914366D01*
X188606693Y-39914365D01*
X188606692Y-39914365D01*
X188606691Y-39914364D01*
X188606686Y-39914364D01*
X188380002Y-39894532D01*
X188379998Y-39894532D01*
X188153313Y-39914364D01*
X188153302Y-39914366D01*
X188057067Y-39940152D01*
X187987217Y-39938489D01*
X187937293Y-39908058D01*
X187826915Y-39797680D01*
X187793430Y-39736357D01*
X187798414Y-39666665D01*
X187826911Y-39622322D01*
X187957294Y-39491939D01*
X188018615Y-39458456D01*
X188077066Y-39459847D01*
X188096604Y-39465082D01*
X188173308Y-39485635D01*
X188335230Y-39499801D01*
X188399998Y-39505468D01*
X188400000Y-39505468D01*
X188400002Y-39505468D01*
X188456673Y-39500509D01*
X188626692Y-39485635D01*
X188846496Y-39426739D01*
X189052734Y-39330568D01*
X189239139Y-39200047D01*
X189400047Y-39039139D01*
X189530568Y-38852734D01*
X189626739Y-38646496D01*
X189685635Y-38426692D01*
X189705468Y-38200000D01*
X189685635Y-37973308D01*
X189630109Y-37766081D01*
X189626741Y-37753511D01*
X189626738Y-37753502D01*
X189609223Y-37715942D01*
X189530568Y-37547266D01*
X189400047Y-37360861D01*
X189400045Y-37360858D01*
X189239141Y-37199954D01*
X189052734Y-37069432D01*
X189052732Y-37069431D01*
X188846497Y-36973261D01*
X188846488Y-36973258D01*
X188626697Y-36914366D01*
X188626693Y-36914365D01*
X188626692Y-36914365D01*
X188626691Y-36914364D01*
X188626686Y-36914364D01*
X188400002Y-36894532D01*
X188399998Y-36894532D01*
X188173313Y-36914364D01*
X188173302Y-36914366D01*
X187953511Y-36973258D01*
X187953502Y-36973261D01*
X187747267Y-37069431D01*
X187747265Y-37069432D01*
X187560858Y-37199954D01*
X187399954Y-37360858D01*
X187269432Y-37547265D01*
X187269431Y-37547267D01*
X187173261Y-37753502D01*
X187173258Y-37753511D01*
X187114366Y-37973302D01*
X187114364Y-37973313D01*
X187094532Y-38199998D01*
X187094532Y-38200001D01*
X187114364Y-38426686D01*
X187114366Y-38426697D01*
X187140152Y-38522931D01*
X187138489Y-38592781D01*
X187108058Y-38642705D01*
X186987582Y-38763182D01*
X186926262Y-38796666D01*
X186899903Y-38799500D01*
X186666669Y-38799500D01*
X186666653Y-38799499D01*
X186659057Y-38799499D01*
X186500943Y-38799499D01*
X186493347Y-38799499D01*
X186493331Y-38799500D01*
X186231692Y-38799500D01*
X186164653Y-38779815D01*
X186130119Y-38746625D01*
X186000047Y-38560861D01*
X186000045Y-38560858D01*
X185839141Y-38399954D01*
X185652734Y-38269432D01*
X185652732Y-38269431D01*
X185446497Y-38173261D01*
X185446488Y-38173258D01*
X185226697Y-38114366D01*
X185226693Y-38114365D01*
X185226692Y-38114365D01*
X185226691Y-38114364D01*
X185226686Y-38114364D01*
X185000002Y-38094532D01*
X184999998Y-38094532D01*
X184773313Y-38114364D01*
X184773302Y-38114366D01*
X184553511Y-38173258D01*
X184553502Y-38173261D01*
X184347267Y-38269431D01*
X184347265Y-38269432D01*
X184160858Y-38399954D01*
X183999954Y-38560858D01*
X183869432Y-38747265D01*
X183869431Y-38747267D01*
X183773261Y-38953502D01*
X183773258Y-38953511D01*
X183714366Y-39173302D01*
X183714364Y-39173313D01*
X183694532Y-39399998D01*
X181305468Y-39399998D01*
X181285635Y-39173308D01*
X181237320Y-38992993D01*
X181226741Y-38953511D01*
X181226738Y-38953502D01*
X181203447Y-38903554D01*
X181130568Y-38747266D01*
X181000047Y-38560861D01*
X181000045Y-38560858D01*
X180839141Y-38399954D01*
X180652734Y-38269432D01*
X180652732Y-38269431D01*
X180446497Y-38173261D01*
X180446488Y-38173258D01*
X180226697Y-38114366D01*
X180226687Y-38114364D01*
X180114407Y-38104541D01*
X180049339Y-38079088D01*
X180008360Y-38022497D01*
X180004482Y-37952735D01*
X180005431Y-37948954D01*
X180025501Y-37874057D01*
X180025501Y-37715942D01*
X180025501Y-37708347D01*
X180025500Y-37708329D01*
X180025500Y-36187503D01*
X180045185Y-36120464D01*
X180097989Y-36074709D01*
X180167147Y-36064765D01*
X180181593Y-36067728D01*
X180185583Y-36068797D01*
X180339592Y-36110063D01*
X180516034Y-36125500D01*
X180574999Y-36130659D01*
X180575000Y-36130659D01*
X180575001Y-36130659D01*
X180633966Y-36125500D01*
X180810408Y-36110063D01*
X181038663Y-36048903D01*
X181252830Y-35949035D01*
X181446401Y-35813495D01*
X181613495Y-35646401D01*
X181743425Y-35460842D01*
X181798002Y-35417217D01*
X181867500Y-35410023D01*
X181929855Y-35441546D01*
X181946575Y-35460842D01*
X182076281Y-35646082D01*
X182076505Y-35646401D01*
X182243599Y-35813495D01*
X182325499Y-35870842D01*
X182437165Y-35949032D01*
X182437167Y-35949033D01*
X182437170Y-35949035D01*
X182651337Y-36048903D01*
X182879592Y-36110063D01*
X183056034Y-36125500D01*
X183114999Y-36130659D01*
X183115000Y-36130659D01*
X183115001Y-36130659D01*
X183173966Y-36125500D01*
X183350408Y-36110063D01*
X183578663Y-36048903D01*
X183792830Y-35949035D01*
X183986401Y-35813495D01*
X184153495Y-35646401D01*
X184283425Y-35460842D01*
X184338002Y-35417217D01*
X184407500Y-35410023D01*
X184469855Y-35441546D01*
X184486575Y-35460842D01*
X184616281Y-35646082D01*
X184616505Y-35646401D01*
X184783599Y-35813495D01*
X184865499Y-35870842D01*
X184977165Y-35949032D01*
X184977167Y-35949033D01*
X184977170Y-35949035D01*
X185191337Y-36048903D01*
X185419592Y-36110063D01*
X185596034Y-36125500D01*
X185654999Y-36130659D01*
X185655000Y-36130659D01*
X185655001Y-36130659D01*
X185713966Y-36125500D01*
X185890408Y-36110063D01*
X186118663Y-36048903D01*
X186188080Y-36016532D01*
X186257155Y-36006040D01*
X186320939Y-36034558D01*
X186345476Y-36062939D01*
X186370184Y-36102262D01*
X186497738Y-36229816D01*
X186650478Y-36325789D01*
X186820745Y-36385368D01*
X186820750Y-36385369D01*
X186999996Y-36405565D01*
X187000000Y-36405565D01*
X187000004Y-36405565D01*
X187179249Y-36385369D01*
X187179252Y-36385368D01*
X187179255Y-36385368D01*
X187349522Y-36325789D01*
X187502262Y-36229816D01*
X187538286Y-36193790D01*
X187593883Y-36161694D01*
X187601785Y-36159577D01*
X187645986Y-36134055D01*
X187651899Y-36130642D01*
X187651899Y-36130641D01*
X187651904Y-36130639D01*
X187729303Y-36085954D01*
X187797201Y-36069484D01*
X187823387Y-36073567D01*
X187959592Y-36110063D01*
X188136034Y-36125500D01*
X188194999Y-36130659D01*
X188195000Y-36130659D01*
X188195001Y-36130659D01*
X188253966Y-36125500D01*
X188430408Y-36110063D01*
X188658663Y-36048903D01*
X188872830Y-35949035D01*
X189066401Y-35813495D01*
X189233495Y-35646401D01*
X189363425Y-35460842D01*
X189418002Y-35417217D01*
X189487500Y-35410023D01*
X189549855Y-35441546D01*
X189566575Y-35460842D01*
X189696281Y-35646082D01*
X189696505Y-35646401D01*
X189863599Y-35813495D01*
X189945499Y-35870842D01*
X190057165Y-35949032D01*
X190057167Y-35949033D01*
X190057170Y-35949035D01*
X190271337Y-36048903D01*
X190499592Y-36110063D01*
X190676034Y-36125500D01*
X190734999Y-36130659D01*
X190735000Y-36130659D01*
X190735001Y-36130659D01*
X190793966Y-36125500D01*
X190970408Y-36110063D01*
X191198663Y-36048903D01*
X191412830Y-35949035D01*
X191606401Y-35813495D01*
X191773495Y-35646401D01*
X191903425Y-35460842D01*
X191958002Y-35417217D01*
X192027500Y-35410023D01*
X192089855Y-35441546D01*
X192106575Y-35460842D01*
X192236281Y-35646082D01*
X192236505Y-35646401D01*
X192403599Y-35813495D01*
X192485499Y-35870842D01*
X192597165Y-35949032D01*
X192597167Y-35949033D01*
X192597170Y-35949035D01*
X192811337Y-36048903D01*
X193039592Y-36110063D01*
X193216034Y-36125500D01*
X193274999Y-36130659D01*
X193275000Y-36130659D01*
X193275001Y-36130659D01*
X193333966Y-36125500D01*
X193510408Y-36110063D01*
X193738663Y-36048903D01*
X193952830Y-35949035D01*
X194146401Y-35813495D01*
X194313495Y-35646401D01*
X194443425Y-35460842D01*
X194498002Y-35417217D01*
X194567500Y-35410023D01*
X194629855Y-35441546D01*
X194646575Y-35460842D01*
X194776281Y-35646082D01*
X194776505Y-35646401D01*
X194943599Y-35813495D01*
X195025499Y-35870842D01*
X195137165Y-35949032D01*
X195137167Y-35949033D01*
X195137170Y-35949035D01*
X195351337Y-36048903D01*
X195579592Y-36110063D01*
X195756034Y-36125500D01*
X195814999Y-36130659D01*
X195815000Y-36130659D01*
X195815001Y-36130659D01*
X195873966Y-36125500D01*
X196050408Y-36110063D01*
X196278663Y-36048903D01*
X196492830Y-35949035D01*
X196686401Y-35813495D01*
X196853495Y-35646401D01*
X196983730Y-35460405D01*
X197038307Y-35416781D01*
X197107805Y-35409587D01*
X197170160Y-35441110D01*
X197186879Y-35460405D01*
X197316890Y-35646078D01*
X197483917Y-35813105D01*
X197677421Y-35948600D01*
X197891507Y-36048429D01*
X197891516Y-36048433D01*
X198105000Y-36105634D01*
X198105000Y-35208012D01*
X198162007Y-35240925D01*
X198289174Y-35275000D01*
X198420826Y-35275000D01*
X198547993Y-35240925D01*
X198605000Y-35208012D01*
X198605000Y-36105634D01*
X198818483Y-36048433D01*
X198818492Y-36048429D01*
X199032578Y-35948600D01*
X199226082Y-35813105D01*
X199393105Y-35646082D01*
X199523119Y-35460405D01*
X199577696Y-35416781D01*
X199647195Y-35409588D01*
X199709549Y-35441110D01*
X199726269Y-35460405D01*
X199856505Y-35646401D01*
X200023599Y-35813495D01*
X200105499Y-35870842D01*
X200217165Y-35949032D01*
X200217167Y-35949033D01*
X200217170Y-35949035D01*
X200431337Y-36048903D01*
X200659592Y-36110063D01*
X200836034Y-36125500D01*
X200894999Y-36130659D01*
X200895000Y-36130659D01*
X200895001Y-36130659D01*
X200953966Y-36125500D01*
X201130408Y-36110063D01*
X201358663Y-36048903D01*
X201572830Y-35949035D01*
X201766401Y-35813495D01*
X201933495Y-35646401D01*
X202063425Y-35460842D01*
X202118002Y-35417217D01*
X202187500Y-35410023D01*
X202249855Y-35441546D01*
X202266575Y-35460842D01*
X202396281Y-35646082D01*
X202396505Y-35646401D01*
X202563599Y-35813495D01*
X202645499Y-35870842D01*
X202757165Y-35949032D01*
X202757167Y-35949033D01*
X202757170Y-35949035D01*
X202971337Y-36048903D01*
X203199592Y-36110063D01*
X203376034Y-36125500D01*
X203434999Y-36130659D01*
X203435000Y-36130659D01*
X203435001Y-36130659D01*
X203493966Y-36125500D01*
X203670408Y-36110063D01*
X203898663Y-36048903D01*
X204112830Y-35949035D01*
X204306401Y-35813495D01*
X204473495Y-35646401D01*
X204603425Y-35460842D01*
X204658002Y-35417217D01*
X204727500Y-35410023D01*
X204789855Y-35441546D01*
X204806575Y-35460842D01*
X204936281Y-35646082D01*
X204936505Y-35646401D01*
X205103599Y-35813495D01*
X205185499Y-35870842D01*
X205297165Y-35949032D01*
X205297167Y-35949033D01*
X205297170Y-35949035D01*
X205511337Y-36048903D01*
X205739592Y-36110063D01*
X205916034Y-36125500D01*
X205974999Y-36130659D01*
X205975000Y-36130659D01*
X205975001Y-36130659D01*
X206033966Y-36125500D01*
X206210408Y-36110063D01*
X206438663Y-36048903D01*
X206652830Y-35949035D01*
X206846401Y-35813495D01*
X207013495Y-35646401D01*
X207143425Y-35460842D01*
X207198002Y-35417217D01*
X207267500Y-35410023D01*
X207329855Y-35441546D01*
X207346575Y-35460842D01*
X207476281Y-35646082D01*
X207476505Y-35646401D01*
X207643599Y-35813495D01*
X207725499Y-35870842D01*
X207837165Y-35949032D01*
X207837167Y-35949033D01*
X207837170Y-35949035D01*
X208051337Y-36048903D01*
X208279592Y-36110063D01*
X208456034Y-36125500D01*
X208514999Y-36130659D01*
X208515000Y-36130659D01*
X208515001Y-36130659D01*
X208573966Y-36125500D01*
X208750408Y-36110063D01*
X208978663Y-36048903D01*
X209192830Y-35949035D01*
X209386401Y-35813495D01*
X209553495Y-35646401D01*
X209683425Y-35460842D01*
X209738002Y-35417217D01*
X209807500Y-35410023D01*
X209869855Y-35441546D01*
X209886575Y-35460842D01*
X210016281Y-35646082D01*
X210016505Y-35646401D01*
X210183599Y-35813495D01*
X210265499Y-35870842D01*
X210377165Y-35949032D01*
X210377167Y-35949033D01*
X210377170Y-35949035D01*
X210382898Y-35951706D01*
X210435339Y-35997872D01*
X210454500Y-36064090D01*
X210454500Y-39994902D01*
X210434815Y-40061941D01*
X210418181Y-40082583D01*
X208903548Y-41597215D01*
X208842225Y-41630700D01*
X208775604Y-41626815D01*
X208669616Y-41590429D01*
X208424335Y-41549500D01*
X208175665Y-41549500D01*
X207930383Y-41590429D01*
X207695197Y-41671169D01*
X207695188Y-41671172D01*
X207476493Y-41789524D01*
X207280257Y-41942261D01*
X207111833Y-42125217D01*
X206975827Y-42333391D01*
X206957440Y-42375311D01*
X206912483Y-42428796D01*
X206845747Y-42449486D01*
X206843884Y-42449500D01*
X203256116Y-42449500D01*
X203189077Y-42429815D01*
X203143322Y-42377011D01*
X203142560Y-42375311D01*
X203124172Y-42333391D01*
X202988166Y-42125217D01*
X202947614Y-42081166D01*
X202819744Y-41942262D01*
X202623509Y-41789526D01*
X202623507Y-41789525D01*
X202623506Y-41789524D01*
X202404811Y-41671172D01*
X202404802Y-41671169D01*
X202169616Y-41590429D01*
X201924335Y-41549500D01*
X201675665Y-41549500D01*
X201430383Y-41590429D01*
X201195197Y-41671169D01*
X201195188Y-41671172D01*
X200976493Y-41789524D01*
X200780257Y-41942261D01*
X200611833Y-42125217D01*
X200475826Y-42333393D01*
X200375936Y-42561118D01*
X200314892Y-42802175D01*
X200314890Y-42802187D01*
X200294357Y-43049994D01*
X200294357Y-43050005D01*
X200314890Y-43297812D01*
X200314892Y-43297824D01*
X200375936Y-43538881D01*
X200475826Y-43766606D01*
X200611833Y-43974782D01*
X200611836Y-43974785D01*
X200780256Y-44157738D01*
X200976491Y-44310474D01*
X200976493Y-44310475D01*
X201141920Y-44400000D01*
X201195190Y-44428828D01*
X201430386Y-44509571D01*
X201675665Y-44550500D01*
X201924335Y-44550500D01*
X202169614Y-44509571D01*
X202404810Y-44428828D01*
X202623509Y-44310474D01*
X202819744Y-44157738D01*
X202988164Y-43974785D01*
X203124173Y-43766607D01*
X203142560Y-43724689D01*
X203187517Y-43671204D01*
X203254253Y-43650514D01*
X203256116Y-43650500D01*
X206843884Y-43650500D01*
X206910923Y-43670185D01*
X206956678Y-43722989D01*
X206957440Y-43724689D01*
X206975827Y-43766608D01*
X207111833Y-43974782D01*
X207111836Y-43974785D01*
X207280256Y-44157738D01*
X207476491Y-44310474D01*
X207476493Y-44310475D01*
X207641920Y-44400000D01*
X207695190Y-44428828D01*
X207930386Y-44509571D01*
X208175665Y-44550500D01*
X208424335Y-44550500D01*
X208669614Y-44509571D01*
X208904810Y-44428828D01*
X209123509Y-44310474D01*
X209319744Y-44157738D01*
X209488164Y-43974785D01*
X209624173Y-43766607D01*
X209724063Y-43538881D01*
X209785108Y-43297821D01*
X209785548Y-43292516D01*
X209805643Y-43050005D01*
X209805643Y-43049994D01*
X209785109Y-42802187D01*
X209785108Y-42802183D01*
X209785108Y-42802179D01*
X209773896Y-42757906D01*
X209723992Y-42560839D01*
X209726616Y-42491018D01*
X209756514Y-42442719D01*
X211413506Y-40785728D01*
X211413511Y-40785724D01*
X211423714Y-40775520D01*
X211423716Y-40775520D01*
X211535520Y-40663716D01*
X211614577Y-40526784D01*
X211654107Y-40379255D01*
X211655361Y-40374576D01*
X211655379Y-40374508D01*
X211655381Y-40374501D01*
X211655500Y-40374058D01*
X211655500Y-40215943D01*
X211655500Y-40199996D01*
X212394435Y-40199996D01*
X212394435Y-40200000D01*
X212414630Y-40379249D01*
X212414631Y-40379254D01*
X212474211Y-40549523D01*
X212563699Y-40691941D01*
X212570184Y-40702262D01*
X212697738Y-40829816D01*
X212788080Y-40886582D01*
X212848426Y-40924500D01*
X212850478Y-40925789D01*
X212986280Y-40973308D01*
X213020745Y-40985368D01*
X213020750Y-40985369D01*
X213199996Y-41005565D01*
X213200000Y-41005565D01*
X213200004Y-41005565D01*
X213379249Y-40985369D01*
X213379252Y-40985368D01*
X213379255Y-40985368D01*
X213549522Y-40925789D01*
X213702262Y-40829816D01*
X213702267Y-40829810D01*
X213705097Y-40827555D01*
X213707275Y-40826665D01*
X213708158Y-40826111D01*
X213708255Y-40826265D01*
X213769783Y-40801145D01*
X213782412Y-40800500D01*
X214625500Y-40800500D01*
X214692539Y-40820185D01*
X214738294Y-40872989D01*
X214749500Y-40924500D01*
X214749500Y-41972870D01*
X214749501Y-41972876D01*
X214755908Y-42032483D01*
X214806202Y-42167328D01*
X214806206Y-42167335D01*
X214892452Y-42282544D01*
X214892455Y-42282547D01*
X215007664Y-42368793D01*
X215007671Y-42368797D01*
X215142517Y-42419091D01*
X215142516Y-42419091D01*
X215149444Y-42419835D01*
X215202127Y-42425500D01*
X216797872Y-42425499D01*
X216857483Y-42419091D01*
X216992331Y-42368796D01*
X217107546Y-42282546D01*
X217193796Y-42167331D01*
X217206559Y-42133111D01*
X217225934Y-42081166D01*
X217267806Y-42025233D01*
X217333270Y-42000816D01*
X217342116Y-42000500D01*
X217899903Y-42000500D01*
X217966942Y-42020185D01*
X217987584Y-42036819D01*
X218763181Y-42812416D01*
X218796666Y-42873739D01*
X218799500Y-42900097D01*
X218799500Y-53713330D01*
X218799499Y-53713348D01*
X218799499Y-53879054D01*
X218799498Y-53879054D01*
X218806274Y-53904341D01*
X218840423Y-54031785D01*
X218840424Y-54031787D01*
X218840423Y-54031787D01*
X218847736Y-54044452D01*
X218847737Y-54044453D01*
X218919477Y-54168712D01*
X218919481Y-54168717D01*
X219038349Y-54287585D01*
X219038355Y-54287590D01*
X220553528Y-55802764D01*
X220587013Y-55864087D01*
X220582029Y-55933779D01*
X220578230Y-55942848D01*
X220573262Y-55953502D01*
X220573258Y-55953511D01*
X220514366Y-56173302D01*
X220514364Y-56173313D01*
X220494532Y-56399998D01*
X220494532Y-56400001D01*
X220514364Y-56626686D01*
X220514366Y-56626697D01*
X220573258Y-56846488D01*
X220573261Y-56846497D01*
X220669431Y-57052732D01*
X220669432Y-57052734D01*
X220799954Y-57239141D01*
X220960858Y-57400045D01*
X220960861Y-57400047D01*
X221147266Y-57530568D01*
X221353504Y-57626739D01*
X221573308Y-57685635D01*
X221735230Y-57699801D01*
X221799998Y-57705468D01*
X221800000Y-57705468D01*
X221800002Y-57705468D01*
X221856673Y-57700509D01*
X222026692Y-57685635D01*
X222246496Y-57626739D01*
X222452734Y-57530568D01*
X222639139Y-57400047D01*
X222800047Y-57239139D01*
X222930568Y-57052734D01*
X223026739Y-56846496D01*
X223085635Y-56626692D01*
X223105468Y-56400000D01*
X223085635Y-56173308D01*
X223026739Y-55953504D01*
X222930568Y-55747266D01*
X222800047Y-55560861D01*
X222800045Y-55560858D01*
X222639141Y-55399954D01*
X222452734Y-55269432D01*
X222452732Y-55269431D01*
X222246497Y-55173261D01*
X222246488Y-55173258D01*
X222026697Y-55114366D01*
X222026693Y-55114365D01*
X222026692Y-55114365D01*
X222026691Y-55114364D01*
X222026686Y-55114364D01*
X221800002Y-55094532D01*
X221799998Y-55094532D01*
X221621983Y-55110106D01*
X221553483Y-55096339D01*
X221523495Y-55074259D01*
X220775056Y-54325821D01*
X220741571Y-54264498D01*
X220746555Y-54194807D01*
X220757744Y-54172168D01*
X220850050Y-54025264D01*
X220850053Y-54025259D01*
X220854625Y-54012195D01*
X220864649Y-53983545D01*
X220905371Y-53926770D01*
X220970323Y-53901022D01*
X220981691Y-53900500D01*
X221124335Y-53900500D01*
X221369614Y-53859571D01*
X221604810Y-53778828D01*
X221823509Y-53660474D01*
X222019744Y-53507738D01*
X222188164Y-53324785D01*
X222324173Y-53116607D01*
X222424063Y-52888881D01*
X222485108Y-52647821D01*
X222498547Y-52485635D01*
X222505643Y-52400005D01*
X222505643Y-52399994D01*
X222485109Y-52152187D01*
X222485107Y-52152175D01*
X222424063Y-51911118D01*
X222324173Y-51683393D01*
X222188166Y-51475217D01*
X222143490Y-51426686D01*
X222019744Y-51292262D01*
X221823509Y-51139526D01*
X221823507Y-51139525D01*
X221823506Y-51139524D01*
X221604811Y-51021172D01*
X221604802Y-51021169D01*
X221369616Y-50940429D01*
X221124335Y-50899500D01*
X220875665Y-50899500D01*
X220630383Y-50940429D01*
X220395197Y-51021169D01*
X220395183Y-51021175D01*
X220183517Y-51135723D01*
X220115189Y-51150318D01*
X220049817Y-51125655D01*
X220008156Y-51069564D01*
X220000500Y-51026668D01*
X220000500Y-42520945D01*
X220000498Y-42520936D01*
X220000269Y-42520080D01*
X219996354Y-42505468D01*
X219959577Y-42368215D01*
X219930639Y-42318095D01*
X219880520Y-42231284D01*
X219768716Y-42119480D01*
X219768715Y-42119479D01*
X219764385Y-42115149D01*
X219764374Y-42115139D01*
X219136915Y-41487680D01*
X219103430Y-41426357D01*
X219108414Y-41356665D01*
X219136911Y-41312323D01*
X220558506Y-39890727D01*
X220558511Y-39890724D01*
X220568714Y-39880520D01*
X220568716Y-39880520D01*
X220680520Y-39768716D01*
X220699202Y-39736357D01*
X220741457Y-39663170D01*
X220741460Y-39663161D01*
X220741466Y-39663153D01*
X220759577Y-39631785D01*
X220800500Y-39479057D01*
X220800500Y-39320943D01*
X220800500Y-38784500D01*
X220820185Y-38717461D01*
X220872989Y-38671706D01*
X220924500Y-38660500D01*
X221124335Y-38660500D01*
X221369614Y-38619571D01*
X221604810Y-38538828D01*
X221823509Y-38420474D01*
X222019744Y-38267738D01*
X222188164Y-38084785D01*
X222324173Y-37876607D01*
X222424063Y-37648881D01*
X222485108Y-37407821D01*
X222485109Y-37407812D01*
X222505643Y-37160005D01*
X222505643Y-37159994D01*
X222485109Y-36912187D01*
X222485107Y-36912175D01*
X222424063Y-36671118D01*
X222324173Y-36443393D01*
X222188166Y-36235217D01*
X222166557Y-36211744D01*
X222019744Y-36052262D01*
X221823509Y-35899526D01*
X221823507Y-35899525D01*
X221823506Y-35899524D01*
X221604811Y-35781172D01*
X221604802Y-35781169D01*
X221369616Y-35700429D01*
X221124335Y-35659500D01*
X220875665Y-35659500D01*
X220630383Y-35700429D01*
X220395197Y-35781169D01*
X220395188Y-35781172D01*
X220176493Y-35899524D01*
X219980257Y-36052261D01*
X219811833Y-36235217D01*
X219675826Y-36443393D01*
X219575936Y-36671118D01*
X219514892Y-36912175D01*
X219514890Y-36912187D01*
X219494357Y-37159994D01*
X219494357Y-37160005D01*
X219514890Y-37407812D01*
X219514892Y-37407824D01*
X219575936Y-37648881D01*
X219611680Y-37730367D01*
X219620583Y-37799667D01*
X219617899Y-37812269D01*
X219599499Y-37880941D01*
X219599499Y-38049046D01*
X219599500Y-38049059D01*
X219599500Y-39099903D01*
X219579815Y-39166942D01*
X219563181Y-39187584D01*
X217987584Y-40763181D01*
X217926261Y-40796666D01*
X217899903Y-40799500D01*
X217342115Y-40799500D01*
X217275076Y-40779815D01*
X217229321Y-40727011D01*
X217225933Y-40718833D01*
X217193797Y-40632671D01*
X217193796Y-40632670D01*
X217193796Y-40632669D01*
X217192967Y-40631562D01*
X217192485Y-40630268D01*
X217189546Y-40624886D01*
X217190319Y-40624463D01*
X217168551Y-40566099D01*
X217177675Y-40509798D01*
X217211089Y-40429132D01*
X217211089Y-40429131D01*
X217211091Y-40429127D01*
X217250500Y-40231003D01*
X217250500Y-40028997D01*
X217211091Y-39830873D01*
X217133786Y-39644244D01*
X217079794Y-39563439D01*
X217058917Y-39496764D01*
X217077401Y-39429384D01*
X217079796Y-39425658D01*
X217133344Y-39345518D01*
X217133346Y-39345515D01*
X217210609Y-39158983D01*
X217210612Y-39158974D01*
X217220353Y-39110000D01*
X216365866Y-39110000D01*
X216341674Y-39107617D01*
X216326004Y-39104500D01*
X216326003Y-39104500D01*
X216285830Y-39104500D01*
X216300075Y-39090255D01*
X216349444Y-39004745D01*
X216375000Y-38909370D01*
X216375000Y-38810630D01*
X216349444Y-38715255D01*
X216300075Y-38629745D01*
X216280330Y-38610000D01*
X217220353Y-38610000D01*
X217210612Y-38561025D01*
X217210609Y-38561016D01*
X217133347Y-38374486D01*
X217133340Y-38374473D01*
X217021170Y-38206600D01*
X217021167Y-38206596D01*
X216878403Y-38063832D01*
X216878399Y-38063829D01*
X216710526Y-37951659D01*
X216710513Y-37951652D01*
X216523983Y-37874390D01*
X216523974Y-37874387D01*
X216325958Y-37835000D01*
X216250000Y-37835000D01*
X216250000Y-38579670D01*
X216230255Y-38559925D01*
X216144745Y-38510556D01*
X216049370Y-38485000D01*
X215950630Y-38485000D01*
X215855255Y-38510556D01*
X215769745Y-38559925D01*
X215750000Y-38579670D01*
X215750000Y-37835000D01*
X215674041Y-37835000D01*
X215476025Y-37874387D01*
X215476016Y-37874390D01*
X215289486Y-37951652D01*
X215289473Y-37951659D01*
X215121600Y-38063829D01*
X215121596Y-38063832D01*
X214978832Y-38206596D01*
X214978829Y-38206600D01*
X214866659Y-38374473D01*
X214866652Y-38374486D01*
X214789390Y-38561016D01*
X214789387Y-38561025D01*
X214779647Y-38610000D01*
X215719670Y-38610000D01*
X215699925Y-38629745D01*
X215650556Y-38715255D01*
X215625000Y-38810630D01*
X215625000Y-38909370D01*
X215650556Y-39004745D01*
X215699925Y-39090255D01*
X215714170Y-39104500D01*
X215673997Y-39104500D01*
X215673996Y-39104500D01*
X215658326Y-39107617D01*
X215634134Y-39110000D01*
X214779647Y-39110000D01*
X214789387Y-39158974D01*
X214789390Y-39158983D01*
X214866652Y-39345513D01*
X214866659Y-39345526D01*
X214907474Y-39406609D01*
X214928352Y-39473286D01*
X214909868Y-39540667D01*
X214857889Y-39587357D01*
X214804372Y-39599500D01*
X213782412Y-39599500D01*
X213715373Y-39579815D01*
X213705097Y-39572445D01*
X213702263Y-39570185D01*
X213702262Y-39570184D01*
X213634089Y-39527348D01*
X213549523Y-39474211D01*
X213379254Y-39414631D01*
X213379249Y-39414630D01*
X213200004Y-39394435D01*
X213199996Y-39394435D01*
X213020750Y-39414630D01*
X213020745Y-39414631D01*
X212850476Y-39474211D01*
X212697737Y-39570184D01*
X212570184Y-39697737D01*
X212474211Y-39850476D01*
X212414631Y-40020745D01*
X212414630Y-40020750D01*
X212394435Y-40199996D01*
X211655500Y-40199996D01*
X211655500Y-36064090D01*
X211675185Y-35997051D01*
X211727101Y-35951706D01*
X211732830Y-35949035D01*
X211926401Y-35813495D01*
X212093495Y-35646401D01*
X212223425Y-35460842D01*
X212278002Y-35417217D01*
X212347500Y-35410023D01*
X212409855Y-35441546D01*
X212426575Y-35460842D01*
X212556281Y-35646082D01*
X212556505Y-35646401D01*
X212723599Y-35813495D01*
X212805499Y-35870842D01*
X212917165Y-35949032D01*
X212917167Y-35949033D01*
X212917170Y-35949035D01*
X213131337Y-36048903D01*
X213359592Y-36110063D01*
X213536034Y-36125500D01*
X213594999Y-36130659D01*
X213595000Y-36130659D01*
X213595001Y-36130659D01*
X213653966Y-36125500D01*
X213830408Y-36110063D01*
X214058663Y-36048903D01*
X214272830Y-35949035D01*
X214466401Y-35813495D01*
X214633495Y-35646401D01*
X214763730Y-35460405D01*
X214818307Y-35416781D01*
X214887805Y-35409587D01*
X214950160Y-35441110D01*
X214966879Y-35460405D01*
X215096890Y-35646078D01*
X215263917Y-35813105D01*
X215457421Y-35948600D01*
X215671507Y-36048429D01*
X215671516Y-36048433D01*
X215885000Y-36105634D01*
X215885000Y-35208012D01*
X215942007Y-35240925D01*
X216069174Y-35275000D01*
X216200826Y-35275000D01*
X216327993Y-35240925D01*
X216385000Y-35208012D01*
X216385000Y-36105633D01*
X216598483Y-36048433D01*
X216598492Y-36048429D01*
X216812578Y-35948600D01*
X217006082Y-35813105D01*
X217173105Y-35646082D01*
X217308600Y-35452578D01*
X217408429Y-35238492D01*
X217408432Y-35238486D01*
X217465636Y-35025000D01*
X216568012Y-35025000D01*
X216600925Y-34967993D01*
X216635000Y-34840826D01*
X216635000Y-34709174D01*
X216600925Y-34582007D01*
X216568012Y-34525000D01*
X217465636Y-34525000D01*
X217465635Y-34524999D01*
X217408432Y-34311513D01*
X217408429Y-34311507D01*
X217308600Y-34097422D01*
X217308599Y-34097420D01*
X217173113Y-33903926D01*
X217173108Y-33903920D01*
X217006078Y-33736890D01*
X216820405Y-33606879D01*
X216776780Y-33552302D01*
X216769588Y-33482804D01*
X216801110Y-33420449D01*
X216820406Y-33403730D01*
X216835423Y-33393215D01*
X217005626Y-33274038D01*
X219399500Y-33274038D01*
X219399500Y-33525962D01*
X219432846Y-33736501D01*
X219438910Y-33774785D01*
X219516760Y-34014383D01*
X219631132Y-34238848D01*
X219779201Y-34442649D01*
X219779205Y-34442654D01*
X219957345Y-34620794D01*
X219957350Y-34620798D01*
X220078990Y-34709174D01*
X220161155Y-34768870D01*
X220284978Y-34831961D01*
X220385616Y-34883239D01*
X220385618Y-34883239D01*
X220385621Y-34883241D01*
X220625215Y-34961090D01*
X220874038Y-35000500D01*
X220874039Y-35000500D01*
X221125961Y-35000500D01*
X221125962Y-35000500D01*
X221374785Y-34961090D01*
X221614379Y-34883241D01*
X221838845Y-34768870D01*
X222042656Y-34620793D01*
X222220793Y-34442656D01*
X222368870Y-34238845D01*
X222483241Y-34014379D01*
X222561090Y-33774785D01*
X222600500Y-33525962D01*
X222600500Y-33274038D01*
X222561090Y-33025215D01*
X222483241Y-32785621D01*
X222483239Y-32785618D01*
X222483239Y-32785616D01*
X222406546Y-32635099D01*
X222368870Y-32561155D01*
X222302935Y-32470403D01*
X222220798Y-32357350D01*
X222220794Y-32357345D01*
X222042654Y-32179205D01*
X222042649Y-32179201D01*
X221838848Y-32031132D01*
X221838847Y-32031131D01*
X221838845Y-32031130D01*
X221768747Y-31995413D01*
X221614383Y-31916760D01*
X221374785Y-31838910D01*
X221349473Y-31834901D01*
X221125962Y-31799500D01*
X220874038Y-31799500D01*
X220749626Y-31819205D01*
X220625214Y-31838910D01*
X220385616Y-31916760D01*
X220161151Y-32031132D01*
X219957350Y-32179201D01*
X219957345Y-32179205D01*
X219779205Y-32357345D01*
X219779201Y-32357350D01*
X219631132Y-32561151D01*
X219516760Y-32785616D01*
X219448317Y-32996263D01*
X219438910Y-33025215D01*
X219399500Y-33274038D01*
X217005626Y-33274038D01*
X217006401Y-33273495D01*
X217173495Y-33106401D01*
X217309035Y-32912830D01*
X217408903Y-32698663D01*
X217470063Y-32470408D01*
X217490659Y-32235000D01*
X217470063Y-31999592D01*
X217408903Y-31771337D01*
X217309035Y-31557171D01*
X217303731Y-31549595D01*
X217173494Y-31363597D01*
X217006402Y-31196506D01*
X217006395Y-31196501D01*
X216812834Y-31060967D01*
X216812830Y-31060965D01*
X216812828Y-31060964D01*
X216598663Y-30961097D01*
X216598659Y-30961096D01*
X216598655Y-30961094D01*
X216370413Y-30899938D01*
X216370403Y-30899936D01*
X216135001Y-30879341D01*
X216134999Y-30879341D01*
X215899596Y-30899936D01*
X215899586Y-30899938D01*
X215671344Y-30961094D01*
X215671335Y-30961098D01*
X215457171Y-31060964D01*
X215457169Y-31060965D01*
X215263597Y-31196505D01*
X215096505Y-31363597D01*
X214966575Y-31549158D01*
X214911998Y-31592783D01*
X214842500Y-31599977D01*
X214780145Y-31568454D01*
X214763425Y-31549158D01*
X214633494Y-31363597D01*
X214466402Y-31196506D01*
X214466395Y-31196501D01*
X214272834Y-31060967D01*
X214272830Y-31060965D01*
X214272828Y-31060964D01*
X214058663Y-30961097D01*
X214058659Y-30961096D01*
X214058655Y-30961094D01*
X213830413Y-30899938D01*
X213830403Y-30899936D01*
X213595001Y-30879341D01*
X213594999Y-30879341D01*
X213359596Y-30899936D01*
X213359586Y-30899938D01*
X213131344Y-30961094D01*
X213131335Y-30961098D01*
X212917171Y-31060964D01*
X212917169Y-31060965D01*
X212723597Y-31196505D01*
X212556505Y-31363597D01*
X212426575Y-31549158D01*
X212371998Y-31592783D01*
X212302500Y-31599977D01*
X212240145Y-31568454D01*
X212223425Y-31549158D01*
X212093494Y-31363597D01*
X211926402Y-31196506D01*
X211926395Y-31196501D01*
X211732834Y-31060967D01*
X211732830Y-31060965D01*
X211732828Y-31060964D01*
X211518663Y-30961097D01*
X211518659Y-30961096D01*
X211518655Y-30961094D01*
X211290413Y-30899938D01*
X211290403Y-30899936D01*
X211055001Y-30879341D01*
X211054999Y-30879341D01*
X210819596Y-30899936D01*
X210819586Y-30899938D01*
X210591344Y-30961094D01*
X210591335Y-30961098D01*
X210377171Y-31060964D01*
X210377169Y-31060965D01*
X210183597Y-31196505D01*
X210016508Y-31363594D01*
X209886269Y-31549595D01*
X209831692Y-31593219D01*
X209762193Y-31600412D01*
X209699839Y-31568890D01*
X209683119Y-31549594D01*
X209553113Y-31363926D01*
X209553108Y-31363920D01*
X209386082Y-31196894D01*
X209192578Y-31061399D01*
X208978492Y-30961570D01*
X208978486Y-30961567D01*
X208765000Y-30904364D01*
X208765000Y-31801988D01*
X208707993Y-31769075D01*
X208580826Y-31735000D01*
X208449174Y-31735000D01*
X208322007Y-31769075D01*
X208265000Y-31801988D01*
X208265000Y-30904364D01*
X208264999Y-30904364D01*
X208051513Y-30961567D01*
X208051507Y-30961570D01*
X207837422Y-31061399D01*
X207837420Y-31061400D01*
X207643926Y-31196886D01*
X207643920Y-31196891D01*
X207476891Y-31363920D01*
X207476890Y-31363922D01*
X207346880Y-31549595D01*
X207292303Y-31593219D01*
X207222804Y-31600412D01*
X207160450Y-31568890D01*
X207143730Y-31549594D01*
X207013494Y-31363597D01*
X206846402Y-31196506D01*
X206846395Y-31196501D01*
X206652834Y-31060967D01*
X206652830Y-31060965D01*
X206652828Y-31060964D01*
X206438663Y-30961097D01*
X206438659Y-30961096D01*
X206438655Y-30961094D01*
X206210413Y-30899938D01*
X206210403Y-30899936D01*
X205975001Y-30879341D01*
X205974999Y-30879341D01*
X205739596Y-30899936D01*
X205739586Y-30899938D01*
X205511344Y-30961094D01*
X205511335Y-30961098D01*
X205297171Y-31060964D01*
X205297169Y-31060965D01*
X205103597Y-31196505D01*
X204936508Y-31363594D01*
X204806269Y-31549595D01*
X204751692Y-31593219D01*
X204682193Y-31600412D01*
X204619839Y-31568890D01*
X204603119Y-31549594D01*
X204473113Y-31363926D01*
X204473108Y-31363920D01*
X204306082Y-31196894D01*
X204112578Y-31061399D01*
X203898492Y-30961570D01*
X203898486Y-30961567D01*
X203685000Y-30904364D01*
X203685000Y-31801988D01*
X203627993Y-31769075D01*
X203500826Y-31735000D01*
X203369174Y-31735000D01*
X203242007Y-31769075D01*
X203185000Y-31801988D01*
X203185000Y-30904364D01*
X203184999Y-30904364D01*
X202971513Y-30961567D01*
X202971507Y-30961570D01*
X202757422Y-31061399D01*
X202757420Y-31061400D01*
X202563926Y-31196886D01*
X202563920Y-31196891D01*
X202396891Y-31363920D01*
X202396890Y-31363922D01*
X202266880Y-31549595D01*
X202212303Y-31593219D01*
X202142804Y-31600412D01*
X202080450Y-31568890D01*
X202063730Y-31549594D01*
X201933494Y-31363597D01*
X201766402Y-31196506D01*
X201766395Y-31196501D01*
X201572834Y-31060967D01*
X201572830Y-31060965D01*
X201572828Y-31060964D01*
X201358663Y-30961097D01*
X201358659Y-30961096D01*
X201358655Y-30961094D01*
X201130413Y-30899938D01*
X201130403Y-30899936D01*
X200895001Y-30879341D01*
X200894999Y-30879341D01*
X200659596Y-30899936D01*
X200659586Y-30899938D01*
X200431344Y-30961094D01*
X200431335Y-30961098D01*
X200217171Y-31060964D01*
X200217169Y-31060965D01*
X200023597Y-31196505D01*
X199856505Y-31363597D01*
X199726575Y-31549158D01*
X199671998Y-31592783D01*
X199602500Y-31599977D01*
X199540145Y-31568454D01*
X199523425Y-31549158D01*
X199393494Y-31363597D01*
X199226402Y-31196506D01*
X199226395Y-31196501D01*
X199032834Y-31060967D01*
X199032830Y-31060965D01*
X199032828Y-31060964D01*
X198818663Y-30961097D01*
X198818659Y-30961096D01*
X198818655Y-30961094D01*
X198590413Y-30899938D01*
X198590403Y-30899936D01*
X198355001Y-30879341D01*
X198354999Y-30879341D01*
X198119596Y-30899936D01*
X198119586Y-30899938D01*
X197891344Y-30961094D01*
X197891335Y-30961098D01*
X197677171Y-31060964D01*
X197677169Y-31060965D01*
X197483597Y-31196505D01*
X197316505Y-31363597D01*
X197186575Y-31549158D01*
X197131998Y-31592783D01*
X197062500Y-31599977D01*
X197000145Y-31568454D01*
X196983425Y-31549158D01*
X196853494Y-31363597D01*
X196686402Y-31196506D01*
X196686395Y-31196501D01*
X196492834Y-31060967D01*
X196492830Y-31060965D01*
X196492828Y-31060964D01*
X196278663Y-30961097D01*
X196278659Y-30961096D01*
X196278655Y-30961094D01*
X196050413Y-30899938D01*
X196050403Y-30899936D01*
X195815001Y-30879341D01*
X195814999Y-30879341D01*
X195579596Y-30899936D01*
X195579586Y-30899938D01*
X195351344Y-30961094D01*
X195351335Y-30961098D01*
X195137171Y-31060964D01*
X195137169Y-31060965D01*
X194943597Y-31196505D01*
X194776505Y-31363597D01*
X194646575Y-31549158D01*
X194591998Y-31592783D01*
X194522500Y-31599977D01*
X194460145Y-31568454D01*
X194443425Y-31549158D01*
X194313494Y-31363597D01*
X194146402Y-31196506D01*
X194146395Y-31196501D01*
X193952834Y-31060967D01*
X193952830Y-31060965D01*
X193952828Y-31060964D01*
X193738663Y-30961097D01*
X193738659Y-30961096D01*
X193738655Y-30961094D01*
X193510413Y-30899938D01*
X193510403Y-30899936D01*
X193275001Y-30879341D01*
X193274999Y-30879341D01*
X193039596Y-30899936D01*
X193039586Y-30899938D01*
X192811344Y-30961094D01*
X192811335Y-30961098D01*
X192597171Y-31060964D01*
X192597169Y-31060965D01*
X192403597Y-31196505D01*
X192236508Y-31363594D01*
X192106269Y-31549595D01*
X192051692Y-31593219D01*
X191982193Y-31600412D01*
X191919839Y-31568890D01*
X191903119Y-31549594D01*
X191773113Y-31363926D01*
X191773108Y-31363920D01*
X191606082Y-31196894D01*
X191412578Y-31061399D01*
X191198492Y-30961570D01*
X191198486Y-30961567D01*
X190985000Y-30904364D01*
X190985000Y-31801988D01*
X190927993Y-31769075D01*
X190800826Y-31735000D01*
X190669174Y-31735000D01*
X190542007Y-31769075D01*
X190485000Y-31801988D01*
X190485000Y-30904364D01*
X190484999Y-30904364D01*
X190271513Y-30961567D01*
X190271507Y-30961570D01*
X190057422Y-31061399D01*
X190057420Y-31061400D01*
X189863926Y-31196886D01*
X189863920Y-31196891D01*
X189696891Y-31363920D01*
X189696890Y-31363922D01*
X189566880Y-31549595D01*
X189512303Y-31593219D01*
X189442804Y-31600412D01*
X189380450Y-31568890D01*
X189363730Y-31549594D01*
X189233494Y-31363597D01*
X189066402Y-31196506D01*
X189066395Y-31196501D01*
X188872834Y-31060967D01*
X188872830Y-31060965D01*
X188872828Y-31060964D01*
X188658663Y-30961097D01*
X188658659Y-30961096D01*
X188658655Y-30961094D01*
X188430413Y-30899938D01*
X188430403Y-30899936D01*
X188195001Y-30879341D01*
X188194999Y-30879341D01*
X187959596Y-30899936D01*
X187959586Y-30899938D01*
X187731344Y-30961094D01*
X187731335Y-30961098D01*
X187517171Y-31060964D01*
X187517169Y-31060965D01*
X187323597Y-31196505D01*
X187156505Y-31363597D01*
X187026575Y-31549158D01*
X186971998Y-31592783D01*
X186902500Y-31599977D01*
X186840145Y-31568454D01*
X186823425Y-31549158D01*
X186693494Y-31363597D01*
X186526402Y-31196506D01*
X186526395Y-31196501D01*
X186332834Y-31060967D01*
X186332830Y-31060965D01*
X186332828Y-31060964D01*
X186118663Y-30961097D01*
X186118659Y-30961096D01*
X186118655Y-30961094D01*
X185890413Y-30899938D01*
X185890403Y-30899936D01*
X185655001Y-30879341D01*
X185654999Y-30879341D01*
X185419596Y-30899936D01*
X185419586Y-30899938D01*
X185191344Y-30961094D01*
X185191335Y-30961098D01*
X184977171Y-31060964D01*
X184977169Y-31060965D01*
X184783597Y-31196505D01*
X184616508Y-31363594D01*
X184486269Y-31549595D01*
X184431692Y-31593219D01*
X184362193Y-31600412D01*
X184299839Y-31568890D01*
X184283119Y-31549594D01*
X184153113Y-31363926D01*
X184153108Y-31363920D01*
X183986082Y-31196894D01*
X183792578Y-31061399D01*
X183578492Y-30961570D01*
X183578486Y-30961567D01*
X183365000Y-30904364D01*
X183365000Y-31801988D01*
X183307993Y-31769075D01*
X183180826Y-31735000D01*
X183049174Y-31735000D01*
X182922007Y-31769075D01*
X182865000Y-31801988D01*
X182865000Y-30904364D01*
X182864999Y-30904364D01*
X182651513Y-30961567D01*
X182651507Y-30961570D01*
X182437422Y-31061399D01*
X182437420Y-31061400D01*
X182243926Y-31196886D01*
X182243920Y-31196891D01*
X182076891Y-31363920D01*
X182076890Y-31363922D01*
X181946880Y-31549595D01*
X181892303Y-31593219D01*
X181822804Y-31600412D01*
X181760450Y-31568890D01*
X181743730Y-31549594D01*
X181613494Y-31363597D01*
X181446402Y-31196506D01*
X181446395Y-31196501D01*
X181252834Y-31060967D01*
X181252830Y-31060965D01*
X181252828Y-31060964D01*
X181038663Y-30961097D01*
X181038659Y-30961096D01*
X181038655Y-30961094D01*
X180810413Y-30899938D01*
X180810403Y-30899936D01*
X180575001Y-30879341D01*
X180574999Y-30879341D01*
X180339596Y-30899936D01*
X180339586Y-30899938D01*
X180111344Y-30961094D01*
X180111335Y-30961098D01*
X179897171Y-31060964D01*
X179897169Y-31060965D01*
X179703597Y-31196505D01*
X179536505Y-31363597D01*
X179406575Y-31549158D01*
X179351998Y-31592783D01*
X179282500Y-31599977D01*
X179220145Y-31568454D01*
X179203425Y-31549158D01*
X179073494Y-31363597D01*
X178906402Y-31196506D01*
X178906395Y-31196501D01*
X178712834Y-31060967D01*
X178712830Y-31060965D01*
X178712828Y-31060964D01*
X178498663Y-30961097D01*
X178498659Y-30961096D01*
X178498655Y-30961094D01*
X178270413Y-30899938D01*
X178270403Y-30899936D01*
X178035001Y-30879341D01*
X178034999Y-30879341D01*
X177799596Y-30899936D01*
X177799586Y-30899938D01*
X177571344Y-30961094D01*
X177571335Y-30961098D01*
X177357171Y-31060964D01*
X177357169Y-31060965D01*
X177163597Y-31196505D01*
X176996505Y-31363597D01*
X176866575Y-31549158D01*
X176811998Y-31592783D01*
X176742500Y-31599977D01*
X176680145Y-31568454D01*
X176663425Y-31549158D01*
X176533494Y-31363597D01*
X176366402Y-31196506D01*
X176366395Y-31196501D01*
X176172834Y-31060967D01*
X176172830Y-31060965D01*
X176172828Y-31060964D01*
X175958663Y-30961097D01*
X175958659Y-30961096D01*
X175958655Y-30961094D01*
X175730413Y-30899938D01*
X175730403Y-30899936D01*
X175495001Y-30879341D01*
X175494999Y-30879341D01*
X175259596Y-30899936D01*
X175259586Y-30899938D01*
X175031344Y-30961094D01*
X175031335Y-30961098D01*
X174817171Y-31060964D01*
X174817169Y-31060965D01*
X174623597Y-31196505D01*
X174456508Y-31363594D01*
X174326269Y-31549595D01*
X174271692Y-31593219D01*
X174202193Y-31600412D01*
X174139839Y-31568890D01*
X174123119Y-31549594D01*
X173993113Y-31363926D01*
X173993108Y-31363920D01*
X173826082Y-31196894D01*
X173632578Y-31061399D01*
X173418492Y-30961570D01*
X173418486Y-30961567D01*
X173205000Y-30904364D01*
X173205000Y-31801988D01*
X173147993Y-31769075D01*
X173020826Y-31735000D01*
X172889174Y-31735000D01*
X172762007Y-31769075D01*
X172705000Y-31801988D01*
X172705000Y-30904364D01*
X172704999Y-30904364D01*
X172491513Y-30961567D01*
X172491507Y-30961570D01*
X172277422Y-31061399D01*
X172277420Y-31061400D01*
X172083926Y-31196886D01*
X172083920Y-31196891D01*
X171916891Y-31363920D01*
X171916890Y-31363922D01*
X171786880Y-31549595D01*
X171732303Y-31593219D01*
X171662804Y-31600412D01*
X171600450Y-31568890D01*
X171583730Y-31549594D01*
X171453494Y-31363597D01*
X171286402Y-31196506D01*
X171286395Y-31196501D01*
X171092834Y-31060967D01*
X171092830Y-31060965D01*
X171092828Y-31060964D01*
X170878663Y-30961097D01*
X170878659Y-30961096D01*
X170878655Y-30961094D01*
X170650413Y-30899938D01*
X170650403Y-30899936D01*
X170415001Y-30879341D01*
X170414999Y-30879341D01*
X170179596Y-30899936D01*
X170179586Y-30899938D01*
X169951344Y-30961094D01*
X169951335Y-30961098D01*
X169737171Y-31060964D01*
X169737169Y-31060965D01*
X169543597Y-31196505D01*
X169376506Y-31363596D01*
X169246575Y-31549159D01*
X169191998Y-31592784D01*
X169122500Y-31599978D01*
X169060145Y-31568455D01*
X169043425Y-31549159D01*
X168913494Y-31363597D01*
X168746402Y-31196506D01*
X168746395Y-31196501D01*
X168552834Y-31060967D01*
X168552830Y-31060965D01*
X168552828Y-31060964D01*
X168338663Y-30961097D01*
X168338659Y-30961096D01*
X168338655Y-30961094D01*
X168110413Y-30899938D01*
X168110403Y-30899936D01*
X167875001Y-30879341D01*
X167874999Y-30879341D01*
X167639596Y-30899936D01*
X167639586Y-30899938D01*
X167411344Y-30961094D01*
X167411335Y-30961098D01*
X167197171Y-31060964D01*
X167197169Y-31060965D01*
X167003597Y-31196505D01*
X166836505Y-31363597D01*
X166700965Y-31557169D01*
X166700964Y-31557171D01*
X166601098Y-31771335D01*
X166601094Y-31771344D01*
X166539938Y-31999586D01*
X166539936Y-31999596D01*
X166519341Y-32234999D01*
X166519341Y-32235000D01*
X166539936Y-32470403D01*
X166539938Y-32470413D01*
X166601094Y-32698655D01*
X166601096Y-32698659D01*
X166601097Y-32698663D01*
X166680801Y-32869588D01*
X166700965Y-32912830D01*
X166700967Y-32912834D01*
X166759385Y-32996263D01*
X166836504Y-33106400D01*
X166836506Y-33106402D01*
X166958430Y-33228326D01*
X166991915Y-33289649D01*
X166986931Y-33359341D01*
X166945059Y-33415274D01*
X166914083Y-33432189D01*
X166782669Y-33481203D01*
X166782664Y-33481206D01*
X166667455Y-33567452D01*
X166667452Y-33567455D01*
X166581206Y-33682664D01*
X166581202Y-33682671D01*
X166530908Y-33817517D01*
X166524501Y-33877116D01*
X166524500Y-33877135D01*
X166524500Y-35672870D01*
X166524501Y-35672876D01*
X166530908Y-35732483D01*
X166581202Y-35867328D01*
X166581206Y-35867335D01*
X166667452Y-35982544D01*
X166667455Y-35982547D01*
X166782664Y-36068793D01*
X166782671Y-36068797D01*
X166917517Y-36119091D01*
X166917516Y-36119091D01*
X166924444Y-36119835D01*
X166977127Y-36125500D01*
X168772872Y-36125499D01*
X168832483Y-36119091D01*
X168967331Y-36068796D01*
X169082546Y-35982546D01*
X169168796Y-35867331D01*
X169217810Y-35735916D01*
X169259681Y-35679984D01*
X169325145Y-35655566D01*
X169393418Y-35670417D01*
X169421673Y-35691569D01*
X169543599Y-35813495D01*
X169625499Y-35870842D01*
X169737165Y-35949032D01*
X169737167Y-35949033D01*
X169737170Y-35949035D01*
X169951337Y-36048903D01*
X170179592Y-36110063D01*
X170356034Y-36125500D01*
X170414999Y-36130659D01*
X170415000Y-36130659D01*
X170415001Y-36130659D01*
X170473966Y-36125500D01*
X170650408Y-36110063D01*
X170878663Y-36048903D01*
X171028096Y-35979220D01*
X171097172Y-35968729D01*
X171160956Y-35997249D01*
X171199196Y-36055725D01*
X171204500Y-36091603D01*
X171204500Y-38277538D01*
X171184815Y-38344577D01*
X171132011Y-38390332D01*
X171062853Y-38400276D01*
X171009377Y-38379113D01*
X170852734Y-38269432D01*
X170852732Y-38269431D01*
X170646497Y-38173261D01*
X170646488Y-38173258D01*
X170426697Y-38114366D01*
X170426693Y-38114365D01*
X170426692Y-38114365D01*
X170426691Y-38114364D01*
X170426686Y-38114364D01*
X170200002Y-38094532D01*
X170199998Y-38094532D01*
X169973313Y-38114364D01*
X169973302Y-38114366D01*
X169877067Y-38140152D01*
X169807217Y-38138489D01*
X169757293Y-38108058D01*
X168937590Y-37288355D01*
X168937588Y-37288352D01*
X168818717Y-37169481D01*
X168818716Y-37169480D01*
X168731904Y-37119360D01*
X168731904Y-37119359D01*
X168731900Y-37119358D01*
X168681785Y-37090423D01*
X168529057Y-37049499D01*
X168370943Y-37049499D01*
X168363347Y-37049499D01*
X168363331Y-37049500D01*
X165376670Y-37049500D01*
X165376654Y-37049499D01*
X165369058Y-37049499D01*
X165210943Y-37049499D01*
X165136557Y-37069431D01*
X165058214Y-37090423D01*
X165058209Y-37090426D01*
X164921290Y-37169475D01*
X164921286Y-37169478D01*
X164664839Y-37425924D01*
X164603516Y-37459408D01*
X164536896Y-37455524D01*
X164484981Y-37437701D01*
X164288786Y-37404963D01*
X164256049Y-37399500D01*
X164023951Y-37399500D01*
X163982596Y-37406401D01*
X163795015Y-37437702D01*
X163575504Y-37513061D01*
X163575495Y-37513064D01*
X163371371Y-37623531D01*
X163371365Y-37623535D01*
X163188222Y-37766081D01*
X163188215Y-37766087D01*
X163179484Y-37775572D01*
X163119595Y-37811561D01*
X163049757Y-37809458D01*
X162992143Y-37769932D01*
X162972075Y-37734918D01*
X162943355Y-37657915D01*
X162943350Y-37657906D01*
X162857190Y-37542812D01*
X162857187Y-37542809D01*
X162742093Y-37456649D01*
X162742086Y-37456645D01*
X162607379Y-37406403D01*
X162607372Y-37406401D01*
X162547844Y-37400000D01*
X161850000Y-37400000D01*
X161850000Y-38424722D01*
X161773694Y-38380667D01*
X161659244Y-38350000D01*
X161540756Y-38350000D01*
X161426306Y-38380667D01*
X161350000Y-38424722D01*
X161350000Y-37400000D01*
X160652155Y-37400000D01*
X160592627Y-37406401D01*
X160592620Y-37406403D01*
X160457913Y-37456645D01*
X160457906Y-37456649D01*
X160342812Y-37542809D01*
X160342809Y-37542812D01*
X160256649Y-37657906D01*
X160256645Y-37657913D01*
X160240682Y-37700714D01*
X160198811Y-37756648D01*
X160133346Y-37781065D01*
X160065073Y-37766213D01*
X160015668Y-37716808D01*
X160000500Y-37657381D01*
X160000500Y-33274038D01*
X161399500Y-33274038D01*
X161399500Y-33525962D01*
X161432846Y-33736501D01*
X161438910Y-33774785D01*
X161516760Y-34014383D01*
X161631132Y-34238848D01*
X161779201Y-34442649D01*
X161779205Y-34442654D01*
X161957345Y-34620794D01*
X161957350Y-34620798D01*
X162078990Y-34709174D01*
X162161155Y-34768870D01*
X162284978Y-34831961D01*
X162385616Y-34883239D01*
X162385618Y-34883239D01*
X162385621Y-34883241D01*
X162625215Y-34961090D01*
X162874038Y-35000500D01*
X162874039Y-35000500D01*
X163125961Y-35000500D01*
X163125962Y-35000500D01*
X163374785Y-34961090D01*
X163614379Y-34883241D01*
X163838845Y-34768870D01*
X164042656Y-34620793D01*
X164220793Y-34442656D01*
X164368870Y-34238845D01*
X164483241Y-34014379D01*
X164561090Y-33774785D01*
X164600500Y-33525962D01*
X164600500Y-33274038D01*
X164561090Y-33025215D01*
X164483241Y-32785621D01*
X164483239Y-32785618D01*
X164483239Y-32785616D01*
X164406546Y-32635099D01*
X164368870Y-32561155D01*
X164302935Y-32470403D01*
X164220798Y-32357350D01*
X164220794Y-32357345D01*
X164042654Y-32179205D01*
X164042649Y-32179201D01*
X163838848Y-32031132D01*
X163838847Y-32031131D01*
X163838845Y-32031130D01*
X163768747Y-31995413D01*
X163614383Y-31916760D01*
X163374785Y-31838910D01*
X163349473Y-31834901D01*
X163125962Y-31799500D01*
X162874038Y-31799500D01*
X162749626Y-31819205D01*
X162625214Y-31838910D01*
X162385616Y-31916760D01*
X162161151Y-32031132D01*
X161957350Y-32179201D01*
X161957345Y-32179205D01*
X161779205Y-32357345D01*
X161779201Y-32357350D01*
X161631132Y-32561151D01*
X161516760Y-32785616D01*
X161448317Y-32996263D01*
X161438910Y-33025215D01*
X161399500Y-33274038D01*
X160000500Y-33274038D01*
X160000500Y-33003750D01*
X160000726Y-32996263D01*
X160005288Y-32920842D01*
X160018271Y-32706201D01*
X160020076Y-32691340D01*
X160043934Y-32561155D01*
X160071780Y-32409197D01*
X160075364Y-32394663D01*
X160082441Y-32371954D01*
X160152282Y-32147823D01*
X160176960Y-32103506D01*
X161282931Y-30827386D01*
X161312474Y-30802490D01*
X161332018Y-30790675D01*
X161345241Y-30783734D01*
X161606841Y-30665998D01*
X161620822Y-30660696D01*
X161894668Y-30575362D01*
X161909197Y-30571780D01*
X162191344Y-30520075D01*
X162206201Y-30518271D01*
X162496264Y-30500726D01*
X162503751Y-30500500D01*
X162565892Y-30500500D01*
X221434108Y-30500500D01*
X221496249Y-30500500D01*
X221503736Y-30500726D01*
G37*
%TD.AperFunction*%
%TA.AperFunction,Conductor*%
G36*
X176250000Y-52286988D02*
G01*
X176192993Y-52254075D01*
X176065826Y-52220000D01*
X175934174Y-52220000D01*
X175807007Y-52254075D01*
X175750000Y-52286988D01*
X175750000Y-50613012D01*
X175807007Y-50645925D01*
X175934174Y-50680000D01*
X176065826Y-50680000D01*
X176192993Y-50645925D01*
X176250000Y-50613012D01*
X176250000Y-52286988D01*
G37*
%TD.AperFunction*%
%TA.AperFunction,Conductor*%
G36*
X178285000Y-36105633D02*
G01*
X178498483Y-36048433D01*
X178498492Y-36048429D01*
X178648095Y-35978669D01*
X178717173Y-35968177D01*
X178780957Y-35996697D01*
X178819196Y-36055173D01*
X178824500Y-36091051D01*
X178824500Y-37494902D01*
X178804815Y-37561941D01*
X178788181Y-37582583D01*
X178262705Y-38108058D01*
X178201382Y-38141543D01*
X178142931Y-38140152D01*
X178046697Y-38114366D01*
X178046693Y-38114365D01*
X178046692Y-38114365D01*
X178046691Y-38114364D01*
X178046686Y-38114364D01*
X177820002Y-38094532D01*
X177819998Y-38094532D01*
X177593313Y-38114364D01*
X177593302Y-38114366D01*
X177373511Y-38173258D01*
X177373502Y-38173261D01*
X177167267Y-38269431D01*
X177167265Y-38269432D01*
X176980858Y-38399954D01*
X176819954Y-38560858D01*
X176689432Y-38747265D01*
X176689431Y-38747267D01*
X176593261Y-38953502D01*
X176593258Y-38953511D01*
X176534366Y-39173302D01*
X176534364Y-39173313D01*
X176514532Y-39399998D01*
X176514532Y-39400001D01*
X176534364Y-39626686D01*
X176534366Y-39626697D01*
X176592433Y-39843407D01*
X176590770Y-39913257D01*
X176551607Y-39971119D01*
X176487379Y-39998623D01*
X176472658Y-39999500D01*
X176254463Y-39999500D01*
X176187424Y-39979815D01*
X176166782Y-39963181D01*
X175946819Y-39743218D01*
X175913334Y-39681895D01*
X175910500Y-39655537D01*
X175910500Y-36150358D01*
X175930185Y-36083319D01*
X175982093Y-36037976D01*
X176172830Y-35949035D01*
X176366401Y-35813495D01*
X176533495Y-35646401D01*
X176663730Y-35460405D01*
X176718307Y-35416781D01*
X176787805Y-35409587D01*
X176850160Y-35441110D01*
X176866879Y-35460405D01*
X176996890Y-35646078D01*
X177163917Y-35813105D01*
X177357421Y-35948600D01*
X177571507Y-36048429D01*
X177571516Y-36048433D01*
X177785000Y-36105634D01*
X177785000Y-35208012D01*
X177842007Y-35240925D01*
X177969174Y-35275000D01*
X178100826Y-35275000D01*
X178227993Y-35240925D01*
X178285000Y-35208012D01*
X178285000Y-36105633D01*
G37*
%TD.AperFunction*%
%TA.AperFunction,Conductor*%
G36*
X176849855Y-32901546D02*
G01*
X176866575Y-32920842D01*
X176996501Y-33106396D01*
X176996506Y-33106402D01*
X177163597Y-33273493D01*
X177163603Y-33273498D01*
X177236946Y-33324853D01*
X177330439Y-33390318D01*
X177349594Y-33403730D01*
X177393219Y-33458307D01*
X177400413Y-33527805D01*
X177368890Y-33590160D01*
X177349595Y-33606880D01*
X177163922Y-33736890D01*
X177163920Y-33736891D01*
X176996891Y-33903920D01*
X176996890Y-33903922D01*
X176866880Y-34089595D01*
X176812303Y-34133219D01*
X176742804Y-34140412D01*
X176680450Y-34108890D01*
X176663730Y-34089594D01*
X176533494Y-33903597D01*
X176366402Y-33736506D01*
X176366396Y-33736501D01*
X176180842Y-33606575D01*
X176137217Y-33551998D01*
X176130023Y-33482500D01*
X176161546Y-33420145D01*
X176180842Y-33403425D01*
X176243800Y-33359341D01*
X176366401Y-33273495D01*
X176533495Y-33106401D01*
X176663425Y-32920842D01*
X176718002Y-32877217D01*
X176787500Y-32870023D01*
X176849855Y-32901546D01*
G37*
%TD.AperFunction*%
%TA.AperFunction,Conductor*%
G36*
X197169855Y-32901546D02*
G01*
X197186575Y-32920842D01*
X197316501Y-33106396D01*
X197316506Y-33106402D01*
X197483597Y-33273493D01*
X197483603Y-33273498D01*
X197556946Y-33324853D01*
X197650439Y-33390318D01*
X197669594Y-33403730D01*
X197713219Y-33458307D01*
X197720413Y-33527805D01*
X197688890Y-33590160D01*
X197669595Y-33606880D01*
X197483922Y-33736890D01*
X197483920Y-33736891D01*
X197316891Y-33903920D01*
X197316890Y-33903922D01*
X197186880Y-34089595D01*
X197132303Y-34133219D01*
X197062804Y-34140412D01*
X197000450Y-34108890D01*
X196983730Y-34089594D01*
X196853494Y-33903597D01*
X196686402Y-33736506D01*
X196686396Y-33736501D01*
X196500842Y-33606575D01*
X196457217Y-33551998D01*
X196450023Y-33482500D01*
X196481546Y-33420145D01*
X196500842Y-33403425D01*
X196563800Y-33359341D01*
X196686401Y-33273495D01*
X196853495Y-33106401D01*
X196983425Y-32920842D01*
X197038002Y-32877217D01*
X197107500Y-32870023D01*
X197169855Y-32901546D01*
G37*
%TD.AperFunction*%
%TA.AperFunction,Conductor*%
G36*
X199709855Y-32901546D02*
G01*
X199726575Y-32920842D01*
X199856501Y-33106396D01*
X199856506Y-33106402D01*
X200023597Y-33273493D01*
X200023603Y-33273498D01*
X200209158Y-33403425D01*
X200252783Y-33458002D01*
X200259977Y-33527500D01*
X200228454Y-33589855D01*
X200209158Y-33606575D01*
X200023597Y-33736505D01*
X199856508Y-33903594D01*
X199726269Y-34089595D01*
X199671692Y-34133219D01*
X199602193Y-34140412D01*
X199539839Y-34108890D01*
X199523119Y-34089594D01*
X199393113Y-33903926D01*
X199393108Y-33903920D01*
X199226078Y-33736890D01*
X199040405Y-33606879D01*
X198996780Y-33552302D01*
X198989588Y-33482804D01*
X199021110Y-33420449D01*
X199040406Y-33403730D01*
X199055423Y-33393215D01*
X199226401Y-33273495D01*
X199393495Y-33106401D01*
X199523425Y-32920842D01*
X199578002Y-32877217D01*
X199647500Y-32870023D01*
X199709855Y-32901546D01*
G37*
%TD.AperFunction*%
%TA.AperFunction,Conductor*%
G36*
X174309549Y-32901110D02*
G01*
X174326269Y-32920405D01*
X174456505Y-33106401D01*
X174456506Y-33106402D01*
X174623597Y-33273493D01*
X174623603Y-33273498D01*
X174809158Y-33403425D01*
X174852783Y-33458002D01*
X174859977Y-33527500D01*
X174828454Y-33589855D01*
X174809158Y-33606575D01*
X174623597Y-33736505D01*
X174456505Y-33903597D01*
X174326575Y-34089158D01*
X174271998Y-34132783D01*
X174202500Y-34139977D01*
X174140145Y-34108454D01*
X174123425Y-34089158D01*
X173993494Y-33903597D01*
X173826402Y-33736506D01*
X173826401Y-33736505D01*
X173658844Y-33619180D01*
X173640405Y-33606269D01*
X173596781Y-33551692D01*
X173589588Y-33482193D01*
X173621110Y-33419839D01*
X173640405Y-33403119D01*
X173826082Y-33273105D01*
X173993105Y-33106082D01*
X174123119Y-32920405D01*
X174177696Y-32876781D01*
X174247195Y-32869588D01*
X174309549Y-32901110D01*
G37*
%TD.AperFunction*%
%TA.AperFunction,Conductor*%
G36*
X181930160Y-32901110D02*
G01*
X181946879Y-32920405D01*
X182076890Y-33106078D01*
X182243917Y-33273105D01*
X182429595Y-33403119D01*
X182473219Y-33457696D01*
X182480412Y-33527195D01*
X182448890Y-33589549D01*
X182429595Y-33606269D01*
X182243594Y-33736508D01*
X182076505Y-33903597D01*
X181946575Y-34089158D01*
X181891998Y-34132783D01*
X181822500Y-34139977D01*
X181760145Y-34108454D01*
X181743425Y-34089158D01*
X181613494Y-33903597D01*
X181446402Y-33736506D01*
X181446396Y-33736501D01*
X181260842Y-33606575D01*
X181217217Y-33551998D01*
X181210023Y-33482500D01*
X181241546Y-33420145D01*
X181260842Y-33403425D01*
X181323800Y-33359341D01*
X181446401Y-33273495D01*
X181613495Y-33106401D01*
X181743730Y-32920405D01*
X181798307Y-32876781D01*
X181867805Y-32869587D01*
X181930160Y-32901110D01*
G37*
%TD.AperFunction*%
%TA.AperFunction,Conductor*%
G36*
X184469549Y-32901110D02*
G01*
X184486269Y-32920405D01*
X184616505Y-33106401D01*
X184616506Y-33106402D01*
X184783597Y-33273493D01*
X184783603Y-33273498D01*
X184969158Y-33403425D01*
X185012783Y-33458002D01*
X185019977Y-33527500D01*
X184988454Y-33589855D01*
X184969158Y-33606575D01*
X184783597Y-33736505D01*
X184616505Y-33903597D01*
X184486575Y-34089158D01*
X184431998Y-34132783D01*
X184362500Y-34139977D01*
X184300145Y-34108454D01*
X184283425Y-34089158D01*
X184153494Y-33903597D01*
X183986402Y-33736506D01*
X183986401Y-33736505D01*
X183818844Y-33619180D01*
X183800405Y-33606269D01*
X183756781Y-33551692D01*
X183749588Y-33482193D01*
X183781110Y-33419839D01*
X183800405Y-33403119D01*
X183986082Y-33273105D01*
X184153105Y-33106082D01*
X184283119Y-32920405D01*
X184337696Y-32876781D01*
X184407195Y-32869588D01*
X184469549Y-32901110D01*
G37*
%TD.AperFunction*%
%TA.AperFunction,Conductor*%
G36*
X187009855Y-32901546D02*
G01*
X187026575Y-32920842D01*
X187156501Y-33106396D01*
X187156506Y-33106402D01*
X187323597Y-33273493D01*
X187323603Y-33273498D01*
X187509158Y-33403425D01*
X187552783Y-33458002D01*
X187559977Y-33527500D01*
X187528454Y-33589855D01*
X187509158Y-33606575D01*
X187323597Y-33736505D01*
X187156505Y-33903597D01*
X187026575Y-34089158D01*
X186971998Y-34132783D01*
X186902500Y-34139977D01*
X186840145Y-34108454D01*
X186823425Y-34089158D01*
X186693494Y-33903597D01*
X186526402Y-33736506D01*
X186526396Y-33736501D01*
X186340842Y-33606575D01*
X186297217Y-33551998D01*
X186290023Y-33482500D01*
X186321546Y-33420145D01*
X186340842Y-33403425D01*
X186403800Y-33359341D01*
X186526401Y-33273495D01*
X186693495Y-33106401D01*
X186823425Y-32920842D01*
X186878002Y-32877217D01*
X186947500Y-32870023D01*
X187009855Y-32901546D01*
G37*
%TD.AperFunction*%
%TA.AperFunction,Conductor*%
G36*
X189550160Y-32901110D02*
G01*
X189566879Y-32920405D01*
X189696890Y-33106078D01*
X189863917Y-33273105D01*
X190049595Y-33403119D01*
X190093219Y-33457696D01*
X190100412Y-33527195D01*
X190068890Y-33589549D01*
X190049595Y-33606269D01*
X189863594Y-33736508D01*
X189696505Y-33903597D01*
X189566575Y-34089158D01*
X189511998Y-34132783D01*
X189442500Y-34139977D01*
X189380145Y-34108454D01*
X189363425Y-34089158D01*
X189233494Y-33903597D01*
X189066402Y-33736506D01*
X189066396Y-33736501D01*
X188880842Y-33606575D01*
X188837217Y-33551998D01*
X188830023Y-33482500D01*
X188861546Y-33420145D01*
X188880842Y-33403425D01*
X188943800Y-33359341D01*
X189066401Y-33273495D01*
X189233495Y-33106401D01*
X189363730Y-32920405D01*
X189418307Y-32876781D01*
X189487805Y-32869587D01*
X189550160Y-32901110D01*
G37*
%TD.AperFunction*%
%TA.AperFunction,Conductor*%
G36*
X192089549Y-32901110D02*
G01*
X192106269Y-32920405D01*
X192236505Y-33106401D01*
X192236506Y-33106402D01*
X192403597Y-33273493D01*
X192403603Y-33273498D01*
X192589158Y-33403425D01*
X192632783Y-33458002D01*
X192639977Y-33527500D01*
X192608454Y-33589855D01*
X192589158Y-33606575D01*
X192403597Y-33736505D01*
X192236505Y-33903597D01*
X192106575Y-34089158D01*
X192051998Y-34132783D01*
X191982500Y-34139977D01*
X191920145Y-34108454D01*
X191903425Y-34089158D01*
X191773494Y-33903597D01*
X191606402Y-33736506D01*
X191606401Y-33736505D01*
X191438844Y-33619180D01*
X191420405Y-33606269D01*
X191376781Y-33551692D01*
X191369588Y-33482193D01*
X191401110Y-33419839D01*
X191420405Y-33403119D01*
X191606082Y-33273105D01*
X191773105Y-33106082D01*
X191903119Y-32920405D01*
X191957696Y-32876781D01*
X192027195Y-32869588D01*
X192089549Y-32901110D01*
G37*
%TD.AperFunction*%
%TA.AperFunction,Conductor*%
G36*
X194629855Y-32901546D02*
G01*
X194646575Y-32920842D01*
X194776501Y-33106396D01*
X194776506Y-33106402D01*
X194943597Y-33273493D01*
X194943603Y-33273498D01*
X195129158Y-33403425D01*
X195172783Y-33458002D01*
X195179977Y-33527500D01*
X195148454Y-33589855D01*
X195129158Y-33606575D01*
X194943597Y-33736505D01*
X194776505Y-33903597D01*
X194646575Y-34089158D01*
X194591998Y-34132783D01*
X194522500Y-34139977D01*
X194460145Y-34108454D01*
X194443425Y-34089158D01*
X194313494Y-33903597D01*
X194146402Y-33736506D01*
X194146396Y-33736501D01*
X193960842Y-33606575D01*
X193917217Y-33551998D01*
X193910023Y-33482500D01*
X193941546Y-33420145D01*
X193960842Y-33403425D01*
X194023800Y-33359341D01*
X194146401Y-33273495D01*
X194313495Y-33106401D01*
X194443425Y-32920842D01*
X194498002Y-32877217D01*
X194567500Y-32870023D01*
X194629855Y-32901546D01*
G37*
%TD.AperFunction*%
%TA.AperFunction,Conductor*%
G36*
X202250160Y-32901110D02*
G01*
X202266879Y-32920405D01*
X202396890Y-33106078D01*
X202563917Y-33273105D01*
X202749595Y-33403119D01*
X202793219Y-33457696D01*
X202800412Y-33527195D01*
X202768890Y-33589549D01*
X202749595Y-33606269D01*
X202563594Y-33736508D01*
X202396505Y-33903597D01*
X202266575Y-34089158D01*
X202211998Y-34132783D01*
X202142500Y-34139977D01*
X202080145Y-34108454D01*
X202063425Y-34089158D01*
X201933494Y-33903597D01*
X201766402Y-33736506D01*
X201766396Y-33736501D01*
X201580842Y-33606575D01*
X201537217Y-33551998D01*
X201530023Y-33482500D01*
X201561546Y-33420145D01*
X201580842Y-33403425D01*
X201643800Y-33359341D01*
X201766401Y-33273495D01*
X201933495Y-33106401D01*
X202063730Y-32920405D01*
X202118307Y-32876781D01*
X202187805Y-32869587D01*
X202250160Y-32901110D01*
G37*
%TD.AperFunction*%
%TD*%
M02*
