M48
; DRILL file {KiCad 8.0.8+dfsg-1} date 2025-07-06T17:26:20+0100
; FORMAT={-:-/ absolute / inch / decimal}
; #@! TF.CreationDate,2025-07-06T17:26:20+01:00
; #@! TF.GenerationSoftware,Kicad,Pcbnew,8.0.8+dfsg-1
; #@! TF.FileFunction,Plated,1,2,PTH
FMAT,2
INCH
; #@! TA.AperFunction,Plated,PTH,ViaDrill
T1C0.0118
; #@! TA.AperFunction,Plated,PTH,ComponentDrill
T2C0.0295
; #@! TA.AperFunction,Plated,PTH,ComponentDrill
T3C0.0315
; #@! TA.AperFunction,Plated,PTH,ComponentDrill
T4C0.0354
; #@! TA.AperFunction,Plated,PTH,ComponentDrill
T5C0.0394
; #@! TA.AperFunction,Plated,PTH,ComponentDrill
T6C0.0433
%
G90
G05
T1
X6.4017Y-1.4253
X6.6506Y-1.3705
X6.6772Y-1.9055
X6.6772Y-1.9626
X7.0394Y-1.3228
X7.1496Y-1.3228
X7.3622Y-1.4016
X7.7859Y-1.8736
X7.7874Y-1.5827
X7.8583Y-1.8819
X8.3071Y-1.7559
X8.3937Y-1.5827
X8.4567Y-2.0945
X8.6663Y-2.1132
T2
X8.5039Y-1.5299
X8.5039Y-1.5799
X8.5039Y-1.6299
T3
X6.5748Y-2.015
X6.5748Y-2.315
X6.6457Y-1.6614
X6.6457Y-1.8583
X6.6929Y-2.0157
X6.6929Y-2.3157
X6.7008Y-1.5512
X6.8819Y-1.7402
X6.9803Y-1.7402
X7.0008Y-1.5512
X7.0866Y-1.5512
X7.2835Y-1.5512
X7.4165Y-1.622
X7.4173Y-1.5039
X7.4173Y-1.7402
X7.4173Y-1.8583
X7.7165Y-1.622
X7.7173Y-1.5039
X7.7173Y-1.7402
X7.7173Y-1.8583
X8.5354Y-2.2205
X8.7323Y-2.2205
T4
X6.3622Y-1.5276
X6.4622Y-1.5276
X8.3543Y-1.8465
X8.5512Y-1.748
X8.5512Y-1.9449
T5
X6.5827Y-1.5276
X6.6093Y-1.2691
X6.6093Y-1.3691
X6.7093Y-1.2691
X6.7093Y-1.3691
X6.7795Y-1.8976
X6.8093Y-1.2691
X6.8093Y-1.3691
X6.9093Y-1.2691
X6.9093Y-1.3691
X6.9291Y-1.9756
X6.9291Y-2.0756
X6.9291Y-2.1756
X6.9291Y-2.2756
X7.0093Y-1.2691
X7.0093Y-1.3691
X7.1093Y-1.2691
X7.1093Y-1.3691
X7.1732Y-1.7402
X7.2093Y-1.2691
X7.2093Y-1.3691
X7.3093Y-1.2691
X7.3093Y-1.3691
X7.4093Y-1.2691
X7.4093Y-1.3691
X7.5093Y-1.2691
X7.5093Y-1.3691
X7.6093Y-1.2691
X7.6093Y-1.3691
X7.7093Y-1.2691
X7.7093Y-1.3691
X7.8093Y-1.2691
X7.8093Y-1.3691
X7.9093Y-1.2691
X7.9093Y-1.3691
X8.0093Y-1.2691
X8.0093Y-1.3691
X8.1093Y-1.2691
X8.1093Y-1.3691
X8.2093Y-1.2691
X8.2093Y-1.3691
X8.2283Y-1.9756
X8.2283Y-2.0756
X8.2283Y-2.1756
X8.2283Y-2.2756
X8.3093Y-1.2691
X8.3093Y-1.3691
X8.4093Y-1.2691
X8.4093Y-1.3691
X8.5093Y-1.2691
X8.5093Y-1.3691
X8.5197Y-2.063
X8.7008Y-1.463
X8.7008Y-2.063
T6
X7.9449Y-1.5177
X7.9449Y-1.6949
X8.2008Y-1.5177
X8.2008Y-1.6949
M30
