%TF.GenerationSoftware,KiCad,Pcbnew,8.0.8+dfsg-1*%
%TF.CreationDate,2025-06-25T18:22:30+01:00*%
%TF.ProjectId,WOARCWSPR,574f4152-4357-4535-9052-2e6b69636164,rev?*%
%TF.SameCoordinates,Original*%
%TF.FileFunction,Soldermask,Bot*%
%TF.FilePolarity,Negative*%
%FSLAX46Y46*%
G04 Gerber Fmt 4.6, Leading zero omitted, Abs format (unit mm)*
G04 Created by KiCad (PCBNEW 8.0.8+dfsg-1) date 2025-06-25 18:22:30*
%MOMM*%
%LPD*%
G01*
G04 APERTURE LIST*
G04 Aperture macros list*
%AMRoundRect*
0 Rectangle with rounded corners*
0 $1 Rounding radius*
0 $2 $3 $4 $5 $6 $7 $8 $9 X,Y pos of 4 corners*
0 Add a 4 corners polygon primitive as box body*
4,1,4,$2,$3,$4,$5,$6,$7,$8,$9,$2,$3,0*
0 Add four circle primitives for the rounded corners*
1,1,$1+$1,$2,$3*
1,1,$1+$1,$4,$5*
1,1,$1+$1,$6,$7*
1,1,$1+$1,$8,$9*
0 Add four rect primitives between the rounded corners*
20,1,$1+$1,$2,$3,$4,$5,0*
20,1,$1+$1,$4,$5,$6,$7,0*
20,1,$1+$1,$6,$7,$8,$9,0*
20,1,$1+$1,$8,$9,$2,$3,0*%
G04 Aperture macros list end*
%ADD10C,2.700000*%
%ADD11R,1.600000X1.600000*%
%ADD12C,1.600000*%
%ADD13O,1.600000X1.600000*%
%ADD14R,1.700000X1.700000*%
%ADD15O,1.700000X1.700000*%
%ADD16C,2.000000*%
%ADD17C,1.620000*%
%ADD18O,2.000000X2.000000*%
%ADD19RoundRect,0.250000X-1.600000X0.425000X-1.600000X-0.425000X1.600000X-0.425000X1.600000X0.425000X0*%
%ADD20O,1.500000X1.050000*%
%ADD21R,1.500000X1.050000*%
G04 APERTURE END LIST*
D10*
%TO.C,REF\u002A\u002A*%
X163000000Y-57000000D03*
%TD*%
D11*
%TO.C,C4*%
X166700000Y-45600000D03*
D12*
X169200000Y-45600000D03*
%TD*%
D10*
%TO.C,REF\u002A\u002A*%
X221000000Y-33400000D03*
%TD*%
%TO.C,REF\u002A\u002A*%
X163000000Y-33400000D03*
%TD*%
D12*
%TO.C,R7*%
X170000000Y-51200000D03*
D13*
X170000000Y-58820000D03*
%TD*%
D14*
%TO.C,J8*%
X216000000Y-55800000D03*
%TD*%
%TO.C,J7*%
X182200000Y-44600000D03*
%TD*%
D15*
%TO.C,J6*%
X209000000Y-50180000D03*
X209000000Y-52720000D03*
X209000000Y-55260000D03*
D14*
X209000000Y-57800000D03*
%TD*%
D15*
%TO.C,J5*%
X176000000Y-50180000D03*
X176000000Y-52720000D03*
X176000000Y-55260000D03*
D14*
X176000000Y-57800000D03*
%TD*%
D16*
%TO.C,SW1*%
X201800000Y-38550000D03*
X208300000Y-38550000D03*
X201800000Y-43050000D03*
X208300000Y-43050000D03*
%TD*%
D17*
%TO.C,RV1*%
X217200000Y-44400000D03*
X212200000Y-46900000D03*
X217200000Y-49400000D03*
%TD*%
D12*
%TO.C,R6*%
X168980000Y-39400000D03*
D13*
X176600000Y-39400000D03*
%TD*%
D12*
%TO.C,R5*%
X188400000Y-48200000D03*
D13*
X196020000Y-48200000D03*
%TD*%
D12*
%TO.C,R4*%
X188400000Y-45000000D03*
D13*
X196020000Y-45000000D03*
%TD*%
D12*
%TO.C,R3*%
X196000000Y-41800000D03*
D13*
X188380000Y-41800000D03*
%TD*%
D12*
%TO.C,R2*%
X188400000Y-38600000D03*
D13*
X196020000Y-38600000D03*
%TD*%
D16*
%TO.C,L1*%
X221000000Y-52400000D03*
D18*
X221000000Y-37160000D03*
%TD*%
D19*
%TO.C,J4*%
X161850000Y-52075000D03*
X161850000Y-46425000D03*
%TD*%
D14*
%TO.C,J3*%
X172400000Y-48200000D03*
%TD*%
D15*
%TO.C,J2*%
X216135000Y-32235000D03*
X216135000Y-34775000D03*
X213595000Y-32235000D03*
X213595000Y-34775000D03*
X211055000Y-32235000D03*
X211055000Y-34775000D03*
X208515000Y-32235000D03*
X208515000Y-34775000D03*
X205975000Y-32235000D03*
X205975000Y-34775000D03*
X203435000Y-32235000D03*
X203435000Y-34775000D03*
X200895000Y-32235000D03*
X200895000Y-34775000D03*
X198355000Y-32235000D03*
X198355000Y-34775000D03*
X195815000Y-32235000D03*
X195815000Y-34775000D03*
X193275000Y-32235000D03*
X193275000Y-34775000D03*
X190735000Y-32235000D03*
X190735000Y-34775000D03*
X188195000Y-32235000D03*
X188195000Y-34775000D03*
X185655000Y-32235000D03*
X185655000Y-34775000D03*
X183115000Y-32235000D03*
X183115000Y-34775000D03*
X180575000Y-32235000D03*
X180575000Y-34775000D03*
X178035000Y-32235000D03*
X178035000Y-34775000D03*
X175495000Y-32235000D03*
X175495000Y-34775000D03*
X172955000Y-32235000D03*
X172955000Y-34775000D03*
X170415000Y-32235000D03*
X170415000Y-34775000D03*
X167875000Y-32235000D03*
D14*
X167875000Y-34775000D03*
%TD*%
%TO.C,J1*%
X162800000Y-43000000D03*
%TD*%
D11*
%TO.C,D2*%
X167000000Y-58800000D03*
D13*
X167000000Y-51180000D03*
%TD*%
D12*
%TO.C,C1*%
X177300000Y-44200000D03*
D11*
X174800000Y-44200000D03*
%TD*%
%TO.C,C2*%
X181100000Y-39800000D03*
D12*
X183600000Y-39800000D03*
%TD*%
D11*
%TO.C,C3*%
X219400000Y-56800000D03*
D12*
X221900000Y-56800000D03*
%TD*%
D20*
%TO.C,Q1*%
X216000000Y-38860000D03*
X216000000Y-40130000D03*
D21*
X216000000Y-41400000D03*
%TD*%
M02*
