%TF.GenerationSoftware,KiCad,Pcbnew,8.0.8+dfsg-1*%
%TF.CreationDate,2025-07-06T17:26:20+01:00*%
%TF.ProjectId,WOARCWSPR,574f4152-4357-4535-9052-2e6b69636164,rev?*%
%TF.SameCoordinates,Original*%
%TF.FileFunction,Legend,Bot*%
%TF.FilePolarity,Positive*%
%FSLAX46Y46*%
G04 Gerber Fmt 4.6, Leading zero omitted, Abs format (unit mm)*
G04 Created by KiCad (PCBNEW 8.0.8+dfsg-1) date 2025-07-06 17:26:20*
%MOMM*%
%LPD*%
G01*
G04 APERTURE LIST*
%ADD10C,0.200000*%
%ADD11R,5.080000X1.500000*%
%ADD12R,1.800000X1.800000*%
%ADD13C,1.800000*%
%ADD14C,1.600000*%
%ADD15R,1.600000X1.600000*%
%ADD16R,1.700000X1.700000*%
%ADD17C,2.000000*%
%ADD18O,1.700000X1.700000*%
%ADD19O,2.000000X2.000000*%
%ADD20O,1.600000X1.600000*%
%ADD21C,2.700000*%
%ADD22R,1.500000X1.050000*%
%ADD23O,1.500000X1.050000*%
%ADD24C,1.620000*%
G04 APERTURE END LIST*
D10*
G36*
X206451602Y-56214012D02*
G01*
X206510335Y-56217011D01*
X206564981Y-56224510D01*
X206615539Y-56236509D01*
X206662010Y-56253007D01*
X206711060Y-56277941D01*
X206736591Y-56294679D01*
X206777193Y-56327828D01*
X206812606Y-56365885D01*
X206842830Y-56408852D01*
X206867864Y-56456727D01*
X206871005Y-56463956D01*
X206890197Y-56516795D01*
X206902759Y-56565192D01*
X206911732Y-56616458D01*
X206917116Y-56670591D01*
X206918911Y-56727592D01*
X206918861Y-56737293D01*
X206916468Y-56793885D01*
X206910486Y-56847712D01*
X206900915Y-56898774D01*
X206887754Y-56947071D01*
X206867864Y-56999923D01*
X206854194Y-57028240D01*
X206826194Y-57073901D01*
X206793006Y-57114606D01*
X206754628Y-57150356D01*
X206711060Y-57181151D01*
X206697619Y-57188959D01*
X206647090Y-57212321D01*
X206599462Y-57227433D01*
X206547851Y-57238012D01*
X206492255Y-57244057D01*
X206442882Y-57245631D01*
X206432696Y-57245568D01*
X206373998Y-57242546D01*
X206319438Y-57234989D01*
X206269017Y-57222899D01*
X206222735Y-57206276D01*
X206173970Y-57181151D01*
X206148557Y-57164172D01*
X206108144Y-57130621D01*
X206072897Y-57092185D01*
X206042815Y-57048863D01*
X206017899Y-57000655D01*
X206014758Y-56993381D01*
X205995566Y-56940266D01*
X205983004Y-56891689D01*
X205974031Y-56840295D01*
X205968647Y-56786084D01*
X205966875Y-56729790D01*
X206189357Y-56729790D01*
X206191427Y-56787928D01*
X206197635Y-56841256D01*
X206207982Y-56889777D01*
X206225284Y-56940306D01*
X206248220Y-56984291D01*
X206255878Y-56995530D01*
X206292522Y-57033235D01*
X206338784Y-57059339D01*
X206387151Y-57072662D01*
X206442882Y-57077103D01*
X206451115Y-57077013D01*
X206504782Y-57071303D01*
X206557615Y-57053900D01*
X206601380Y-57024897D01*
X206636078Y-56984291D01*
X206659489Y-56940306D01*
X206677151Y-56889777D01*
X206687712Y-56841256D01*
X206694049Y-56787928D01*
X206696161Y-56729790D01*
X206694049Y-56671189D01*
X206687712Y-56617568D01*
X206677151Y-56568928D01*
X206659489Y-56518475D01*
X206636078Y-56474801D01*
X206628248Y-56463621D01*
X206591146Y-56426114D01*
X206544793Y-56400148D01*
X206496646Y-56386895D01*
X206441416Y-56382477D01*
X206433094Y-56382567D01*
X206378966Y-56388247D01*
X206325950Y-56405558D01*
X206282368Y-56434409D01*
X206248220Y-56474801D01*
X206244599Y-56480625D01*
X206222468Y-56525267D01*
X206205970Y-56576689D01*
X206196313Y-56626159D01*
X206190795Y-56680610D01*
X206189357Y-56729790D01*
X205966875Y-56729790D01*
X205966852Y-56729057D01*
X205966902Y-56719357D01*
X205969295Y-56662800D01*
X205975277Y-56609059D01*
X205984848Y-56558134D01*
X205998009Y-56510026D01*
X206017899Y-56457459D01*
X206031504Y-56429329D01*
X206059372Y-56384014D01*
X206092405Y-56343678D01*
X206130605Y-56308320D01*
X206173970Y-56277941D01*
X206187322Y-56270192D01*
X206237587Y-56247007D01*
X206285042Y-56232009D01*
X206336534Y-56221511D01*
X206392061Y-56215512D01*
X206441416Y-56213949D01*
X206451602Y-56214012D01*
G37*
G36*
X205350139Y-56448422D02*
G01*
X205313747Y-56448422D01*
X205280041Y-56453551D01*
X205295429Y-56642840D01*
X205324249Y-56638199D01*
X205356978Y-56636001D01*
X205405983Y-56640241D01*
X205453163Y-56652960D01*
X205459316Y-56655296D01*
X205503524Y-56680270D01*
X205538450Y-56717090D01*
X205560014Y-56764084D01*
X205568023Y-56816012D01*
X205568492Y-56834082D01*
X205568492Y-57230000D01*
X205777076Y-57230000D01*
X205777076Y-56464054D01*
X205618806Y-56464054D01*
X205588032Y-56587152D01*
X205578262Y-56587152D01*
X205549479Y-56546589D01*
X205513690Y-56510628D01*
X205485938Y-56489211D01*
X205439250Y-56464355D01*
X205391986Y-56451649D01*
X205350139Y-56448422D01*
G37*
G36*
X205037020Y-56167055D02*
G01*
X204986680Y-56174718D01*
X204957397Y-56188792D01*
X204928431Y-56230065D01*
X204923691Y-56268660D01*
X204932117Y-56317081D01*
X204957397Y-56348039D01*
X205004184Y-56367139D01*
X205037020Y-56370265D01*
X205085964Y-56363232D01*
X205117620Y-56348039D01*
X205145746Y-56306613D01*
X205150348Y-56268660D01*
X205142166Y-56219506D01*
X205117620Y-56188792D01*
X205070679Y-56170111D01*
X205037020Y-56167055D01*
G37*
G36*
X204933461Y-56464054D02*
G01*
X204933461Y-57230000D01*
X205142044Y-57230000D01*
X205142044Y-56464054D01*
X204933461Y-56464054D01*
G37*
G36*
X204500598Y-56450075D02*
G01*
X204554615Y-56460919D01*
X204602999Y-56481885D01*
X204645750Y-56512971D01*
X204682868Y-56554180D01*
X204705454Y-56589186D01*
X204727505Y-56636561D01*
X204744043Y-56689793D01*
X204753613Y-56738626D01*
X204759355Y-56791526D01*
X204761270Y-56848492D01*
X204760079Y-56894040D01*
X204755242Y-56947357D01*
X204746684Y-56996655D01*
X204731502Y-57050508D01*
X204710963Y-57098573D01*
X204685066Y-57140851D01*
X204659727Y-57171037D01*
X204619384Y-57204701D01*
X204573360Y-57228338D01*
X204521657Y-57241947D01*
X204472819Y-57245631D01*
X204447580Y-57244687D01*
X204396312Y-57236159D01*
X204349720Y-57218764D01*
X204326533Y-57205279D01*
X204287438Y-57171614D01*
X204255931Y-57130593D01*
X204250314Y-57130593D01*
X204253977Y-57176022D01*
X204255931Y-57225847D01*
X204255931Y-57241479D01*
X204256088Y-57252313D01*
X204261590Y-57301325D01*
X204278566Y-57348789D01*
X204312674Y-57388515D01*
X204362187Y-57411387D01*
X204416887Y-57417578D01*
X204436428Y-57417348D01*
X204494327Y-57413899D01*
X204551145Y-57406311D01*
X204606881Y-57394585D01*
X204661535Y-57378720D01*
X204715108Y-57358715D01*
X204715108Y-57528220D01*
X204682028Y-57540066D01*
X204631550Y-57554171D01*
X204580041Y-57563879D01*
X204530968Y-57569581D01*
X204479123Y-57572916D01*
X204429588Y-57573893D01*
X204383773Y-57572546D01*
X204330573Y-57567073D01*
X204281892Y-57557391D01*
X204229442Y-57540215D01*
X204183501Y-57516976D01*
X204144068Y-57487676D01*
X204132356Y-57476619D01*
X204097314Y-57433037D01*
X204074645Y-57389634D01*
X204058777Y-57340650D01*
X204049709Y-57286084D01*
X204047348Y-57236350D01*
X204047348Y-56847027D01*
X204241765Y-56847027D01*
X204241765Y-56872184D01*
X204241916Y-56886145D01*
X204245534Y-56936665D01*
X204256839Y-56987837D01*
X204280355Y-57031674D01*
X204302215Y-57051550D01*
X204348677Y-57071735D01*
X204398569Y-57077103D01*
X204433717Y-57073531D01*
X204483949Y-57050090D01*
X204515583Y-57012583D01*
X204536672Y-56959003D01*
X204546191Y-56902073D01*
X204548534Y-56848492D01*
X204547242Y-56807113D01*
X204539344Y-56747192D01*
X204524268Y-56698578D01*
X204496699Y-56655163D01*
X204451469Y-56625090D01*
X204401500Y-56616950D01*
X204366950Y-56619509D01*
X204318001Y-56635807D01*
X204279623Y-56670439D01*
X204264871Y-56697088D01*
X204250083Y-56746795D01*
X204243577Y-56796419D01*
X204241765Y-56847027D01*
X204047348Y-56847027D01*
X204047348Y-56464054D01*
X204223691Y-56464054D01*
X204240544Y-56561018D01*
X204246161Y-56561018D01*
X204272552Y-56528581D01*
X204314568Y-56492405D01*
X204362499Y-56467005D01*
X204416342Y-56452381D01*
X204467201Y-56448422D01*
X204500598Y-56450075D01*
G37*
G36*
X203723970Y-56167055D02*
G01*
X203673630Y-56174718D01*
X203644347Y-56188792D01*
X203615381Y-56230065D01*
X203610642Y-56268660D01*
X203619068Y-56317081D01*
X203644347Y-56348039D01*
X203691135Y-56367139D01*
X203723970Y-56370265D01*
X203772914Y-56363232D01*
X203804570Y-56348039D01*
X203832696Y-56306613D01*
X203837299Y-56268660D01*
X203829117Y-56219506D01*
X203804570Y-56188792D01*
X203757630Y-56170111D01*
X203723970Y-56167055D01*
G37*
G36*
X203620411Y-56464054D02*
G01*
X203620411Y-57230000D01*
X203828995Y-57230000D01*
X203828995Y-56464054D01*
X203620411Y-56464054D01*
G37*
G36*
X202968039Y-56448422D02*
G01*
X202916521Y-56451625D01*
X202863367Y-56463127D01*
X202816320Y-56482995D01*
X202775379Y-56511228D01*
X202770690Y-56515345D01*
X202738206Y-56553737D01*
X202715003Y-56602234D01*
X202702314Y-56652959D01*
X202697093Y-56702596D01*
X202696441Y-56729546D01*
X202696441Y-57230000D01*
X202905024Y-57230000D01*
X202905024Y-56782547D01*
X202908516Y-56730529D01*
X202921648Y-56681705D01*
X202934577Y-56658471D01*
X202972618Y-56627330D01*
X203024142Y-56616991D01*
X203028122Y-56616950D01*
X203076950Y-56622108D01*
X203123720Y-56642424D01*
X203158548Y-56682163D01*
X203176966Y-56728478D01*
X203187710Y-56779666D01*
X203192622Y-56832723D01*
X203193475Y-56869497D01*
X203193475Y-57230000D01*
X203402058Y-57230000D01*
X203402058Y-56464054D01*
X203242323Y-56464054D01*
X203214480Y-56562972D01*
X203203244Y-56562972D01*
X203172103Y-56522546D01*
X203133269Y-56491394D01*
X203103105Y-56475778D01*
X203054230Y-56459108D01*
X203003225Y-56450132D01*
X202968039Y-56448422D01*
G37*
G36*
X202174182Y-56448441D02*
G01*
X202224147Y-56450645D01*
X202272919Y-56456522D01*
X202325191Y-56467229D01*
X202366306Y-56478830D01*
X202413672Y-56496157D01*
X202461723Y-56519009D01*
X202393091Y-56661891D01*
X202379783Y-56655968D01*
X202333268Y-56637161D01*
X202286845Y-56621346D01*
X202280178Y-56619335D01*
X202229445Y-56608387D01*
X202177424Y-56604738D01*
X202133159Y-56610348D01*
X202089986Y-56634047D01*
X202065401Y-56674441D01*
X202058478Y-56725882D01*
X202058478Y-56761053D01*
X202191591Y-56761053D01*
X202242861Y-56762484D01*
X202298892Y-56767980D01*
X202348929Y-56777597D01*
X202399731Y-56794026D01*
X202447801Y-56819672D01*
X202453046Y-56823398D01*
X202489007Y-56857725D01*
X202514312Y-56900083D01*
X202528963Y-56950469D01*
X202533042Y-57001144D01*
X202530681Y-57045506D01*
X202520186Y-57097628D01*
X202498344Y-57146669D01*
X202465875Y-57185547D01*
X202439460Y-57205966D01*
X202395232Y-57228674D01*
X202345479Y-57241876D01*
X202296615Y-57245631D01*
X202246261Y-57243390D01*
X202193480Y-57234564D01*
X202146894Y-57217299D01*
X202116564Y-57198539D01*
X202077506Y-57165171D01*
X202043091Y-57126196D01*
X202037473Y-57126196D01*
X201996929Y-57230000D01*
X201851360Y-57230000D01*
X201851360Y-56945457D01*
X202058478Y-56945457D01*
X202059199Y-56962130D01*
X202073084Y-57012853D01*
X202104640Y-57051702D01*
X202119584Y-57062538D01*
X202166949Y-57083108D01*
X202218213Y-57089316D01*
X202244526Y-57087407D01*
X202290997Y-57069776D01*
X202306850Y-57053087D01*
X202318841Y-57004075D01*
X202310254Y-56958895D01*
X202279762Y-56918590D01*
X202241649Y-56898795D01*
X202191565Y-56888675D01*
X202139811Y-56886106D01*
X202058478Y-56886106D01*
X202058478Y-56945457D01*
X201851360Y-56945457D01*
X201851360Y-56719288D01*
X201851680Y-56702376D01*
X201857832Y-56647542D01*
X201871816Y-56599487D01*
X201897385Y-56552867D01*
X201933182Y-56515101D01*
X201966406Y-56492440D01*
X202011593Y-56471929D01*
X202063699Y-56457799D01*
X202113868Y-56450767D01*
X202169120Y-56448422D01*
X202174182Y-56448441D01*
G37*
G36*
X201429064Y-57230000D02*
G01*
X201637648Y-57230000D01*
X201637648Y-56167055D01*
X201429064Y-56167055D01*
X201429064Y-57230000D01*
G37*
G36*
X200406175Y-56382477D02*
G01*
X200456750Y-56386965D01*
X200507824Y-56403085D01*
X200551722Y-56430928D01*
X200588447Y-56470496D01*
X200592533Y-56476266D01*
X200617562Y-56520511D01*
X200636444Y-56571395D01*
X200647735Y-56620293D01*
X200654510Y-56674068D01*
X200656769Y-56732721D01*
X200655320Y-56782205D01*
X200649755Y-56836816D01*
X200640018Y-56886224D01*
X200623384Y-56937290D01*
X200601069Y-56981273D01*
X200597418Y-56986978D01*
X200563117Y-57026408D01*
X200519809Y-57054572D01*
X200467496Y-57071471D01*
X200414333Y-57077015D01*
X200406175Y-57077103D01*
X200356288Y-57074766D01*
X200306642Y-57067752D01*
X200283810Y-57062937D01*
X200232505Y-57049375D01*
X200182141Y-57033564D01*
X200151430Y-57022882D01*
X200151430Y-57196538D01*
X200200683Y-57213551D01*
X200249524Y-57226855D01*
X200281856Y-57233663D01*
X200332231Y-57240956D01*
X200382270Y-57244684D01*
X200425959Y-57245631D01*
X200481772Y-57243381D01*
X200533808Y-57236632D01*
X200582065Y-57225384D01*
X200633589Y-57206574D01*
X200679972Y-57181639D01*
X200721270Y-57151165D01*
X200757543Y-57115736D01*
X200788790Y-57075351D01*
X200815011Y-57030010D01*
X200827739Y-57001877D01*
X200846296Y-56949273D01*
X200858575Y-56901245D01*
X200867505Y-56850504D01*
X200873087Y-56797049D01*
X200875319Y-56740881D01*
X200875366Y-56731256D01*
X200873442Y-56675531D01*
X200867672Y-56622297D01*
X200858055Y-56571552D01*
X200844591Y-56523298D01*
X200827281Y-56477534D01*
X200820655Y-56462833D01*
X200794347Y-56414186D01*
X200763294Y-56370402D01*
X200727495Y-56331480D01*
X200686952Y-56297419D01*
X200661653Y-56280139D01*
X200613782Y-56254348D01*
X200561422Y-56234892D01*
X200512971Y-56223257D01*
X200461222Y-56216276D01*
X200406175Y-56213949D01*
X200355181Y-56216143D01*
X200303956Y-56222723D01*
X200257187Y-56232512D01*
X200206387Y-56246664D01*
X200157088Y-56263933D01*
X200113572Y-56282337D01*
X200182205Y-56456238D01*
X200227810Y-56433317D01*
X200273738Y-56412977D01*
X200295045Y-56404459D01*
X200344205Y-56389432D01*
X200395944Y-56382670D01*
X200406175Y-56382477D01*
G37*
G36*
X199529344Y-56448422D02*
G01*
X199492951Y-56448422D01*
X199459246Y-56453551D01*
X199474633Y-56642840D01*
X199503454Y-56638199D01*
X199536182Y-56636001D01*
X199585187Y-56640241D01*
X199632367Y-56652960D01*
X199638520Y-56655296D01*
X199682728Y-56680270D01*
X199717655Y-56717090D01*
X199739218Y-56764084D01*
X199747227Y-56816012D01*
X199747697Y-56834082D01*
X199747697Y-57230000D01*
X199956280Y-57230000D01*
X199956280Y-56464054D01*
X199798011Y-56464054D01*
X199767236Y-56587152D01*
X199757466Y-56587152D01*
X199728684Y-56546589D01*
X199692895Y-56510628D01*
X199665143Y-56489211D01*
X199618454Y-56464355D01*
X199571191Y-56451649D01*
X199529344Y-56448422D01*
G37*
G36*
X199074046Y-56450011D02*
G01*
X199123826Y-56457071D01*
X199175814Y-56471765D01*
X199223551Y-56493607D01*
X199248027Y-56508737D01*
X199287725Y-56541439D01*
X199321821Y-56581174D01*
X199350314Y-56627941D01*
X199360961Y-56651007D01*
X199377997Y-56701443D01*
X199388245Y-56750283D01*
X199394146Y-56803517D01*
X199395743Y-56852644D01*
X199395546Y-56869016D01*
X199391763Y-56923553D01*
X199383164Y-56973789D01*
X199367441Y-57025935D01*
X199345429Y-57072463D01*
X199328711Y-57098632D01*
X199293991Y-57140297D01*
X199253320Y-57174967D01*
X199206699Y-57202644D01*
X199201162Y-57205289D01*
X199154996Y-57223424D01*
X199105503Y-57236186D01*
X199052681Y-57243574D01*
X199003733Y-57245631D01*
X198956184Y-57244588D01*
X198903632Y-57240479D01*
X198853279Y-57232442D01*
X198830147Y-57226981D01*
X198781558Y-57211614D01*
X198735066Y-57191409D01*
X198735066Y-57029965D01*
X198762982Y-57042467D01*
X198809968Y-57060419D01*
X198859630Y-57074905D01*
X198894547Y-57081871D01*
X198944590Y-57087613D01*
X198993963Y-57089316D01*
X199040527Y-57085355D01*
X199089199Y-57069757D01*
X199131960Y-57039246D01*
X199160535Y-57000407D01*
X199178085Y-56952737D01*
X199184473Y-56901737D01*
X198691591Y-56901737D01*
X198691591Y-56799644D01*
X198691951Y-56778879D01*
X198693419Y-56761053D01*
X198887473Y-56761053D01*
X199180076Y-56761053D01*
X199176353Y-56732488D01*
X199161950Y-56684220D01*
X199133426Y-56642840D01*
X199125737Y-56636030D01*
X199081949Y-56612031D01*
X199033042Y-56604738D01*
X199015151Y-56605429D01*
X198965440Y-56617214D01*
X198924110Y-56648946D01*
X198913942Y-56663339D01*
X198894227Y-56709795D01*
X198887473Y-56761053D01*
X198693419Y-56761053D01*
X198696008Y-56729606D01*
X198706828Y-56675453D01*
X198724138Y-56626726D01*
X198747941Y-56583427D01*
X198783914Y-56539769D01*
X198827462Y-56504176D01*
X198877320Y-56477325D01*
X198925079Y-56461268D01*
X198977475Y-56451634D01*
X199034508Y-56448422D01*
X199074046Y-56450011D01*
G37*
G36*
X198062909Y-56409344D02*
G01*
X198061982Y-56444940D01*
X198057292Y-56495806D01*
X198055237Y-56510947D01*
X198047522Y-56560286D01*
X198054361Y-56560286D01*
X198062463Y-56548623D01*
X198096290Y-56511651D01*
X198138625Y-56480662D01*
X198170775Y-56465078D01*
X198220916Y-56452232D01*
X198274180Y-56448422D01*
X198306305Y-56450006D01*
X198358741Y-56460400D01*
X198406363Y-56480494D01*
X198449169Y-56510288D01*
X198487159Y-56549783D01*
X198510520Y-56583802D01*
X198533326Y-56630811D01*
X198550431Y-56684569D01*
X198560329Y-56734523D01*
X198566268Y-56789164D01*
X198568248Y-56848492D01*
X198566992Y-56895921D01*
X198561892Y-56951043D01*
X198552867Y-57001537D01*
X198536859Y-57056022D01*
X198515200Y-57103844D01*
X198487892Y-57145003D01*
X198467009Y-57168588D01*
X198426938Y-57202294D01*
X198382379Y-57226370D01*
X198333332Y-57240816D01*
X198279797Y-57245631D01*
X198245152Y-57244053D01*
X198192613Y-57234007D01*
X198145464Y-57212658D01*
X198132847Y-57204182D01*
X198093858Y-57170850D01*
X198062909Y-57131814D01*
X198054361Y-57131814D01*
X198013817Y-57230000D01*
X197854326Y-57230000D01*
X197854326Y-56848492D01*
X198048743Y-56848492D01*
X198048743Y-56870963D01*
X198048868Y-56877354D01*
X198052951Y-56930349D01*
X198063741Y-56979670D01*
X198085380Y-57025568D01*
X198112266Y-57052745D01*
X198157878Y-57072071D01*
X198207013Y-57077103D01*
X198232716Y-57075094D01*
X198280628Y-57056955D01*
X198317899Y-57019951D01*
X198329157Y-57000731D01*
X198345949Y-56954134D01*
X198354535Y-56902897D01*
X198356978Y-56849958D01*
X198356367Y-56822518D01*
X198351482Y-56772632D01*
X198340148Y-56724465D01*
X198317899Y-56677034D01*
X198302122Y-56656615D01*
X198260870Y-56626866D01*
X198209944Y-56616950D01*
X198162492Y-56621645D01*
X198117036Y-56640134D01*
X198083182Y-56676301D01*
X198073260Y-56696090D01*
X198058463Y-56743574D01*
X198050896Y-56795324D01*
X198048743Y-56848492D01*
X197854326Y-56848492D01*
X197854326Y-56167055D01*
X198062909Y-56167055D01*
X198062909Y-56409344D01*
G37*
G36*
X197530949Y-56167055D02*
G01*
X197480609Y-56174718D01*
X197451325Y-56188792D01*
X197422360Y-56230065D01*
X197417620Y-56268660D01*
X197426046Y-56317081D01*
X197451325Y-56348039D01*
X197498113Y-56367139D01*
X197530949Y-56370265D01*
X197579893Y-56363232D01*
X197611549Y-56348039D01*
X197639675Y-56306613D01*
X197644277Y-56268660D01*
X197636095Y-56219506D01*
X197611549Y-56188792D01*
X197564608Y-56170111D01*
X197530949Y-56167055D01*
G37*
G36*
X197427390Y-56464054D02*
G01*
X197427390Y-57230000D01*
X197635973Y-57230000D01*
X197635973Y-56464054D01*
X197427390Y-56464054D01*
G37*
G36*
X196887124Y-57077103D02*
G01*
X196838206Y-57073571D01*
X196819958Y-57070265D01*
X196771598Y-57058495D01*
X196755478Y-57053900D01*
X196755478Y-57210949D01*
X196803696Y-57226920D01*
X196838764Y-57235129D01*
X196887286Y-57242667D01*
X196936253Y-57245539D01*
X196947208Y-57245631D01*
X196996622Y-57242471D01*
X197045502Y-57231916D01*
X197069818Y-57223161D01*
X197112581Y-57197021D01*
X197146835Y-57158352D01*
X197155059Y-57145003D01*
X197174259Y-57097192D01*
X197183489Y-57048115D01*
X197186535Y-56996767D01*
X197186566Y-56990642D01*
X197186566Y-56620369D01*
X197285973Y-56620369D01*
X197285973Y-56533419D01*
X197171179Y-56462588D01*
X197111095Y-56299923D01*
X196977983Y-56299923D01*
X196977983Y-56464054D01*
X196763782Y-56464054D01*
X196763782Y-56620369D01*
X196977983Y-56620369D01*
X196977983Y-56989909D01*
X196967149Y-57037824D01*
X196952826Y-57055366D01*
X196906435Y-57075745D01*
X196887124Y-57077103D01*
G37*
G36*
X196630669Y-56565659D02*
G01*
X196623984Y-56516245D01*
X196595743Y-56474556D01*
X196551504Y-56453425D01*
X196510258Y-56448422D01*
X196459708Y-56456691D01*
X196426482Y-56474556D01*
X196398043Y-56516245D01*
X196391311Y-56565659D01*
X196399039Y-56616252D01*
X196426482Y-56655296D01*
X196470180Y-56677613D01*
X196510258Y-56682896D01*
X196559564Y-56675106D01*
X196595743Y-56655296D01*
X196623984Y-56613350D01*
X196630669Y-56565659D01*
G37*
G36*
X196630669Y-57128394D02*
G01*
X196623984Y-57078980D01*
X196595743Y-57037292D01*
X196551504Y-57016160D01*
X196510258Y-57011158D01*
X196459708Y-57019427D01*
X196426482Y-57037292D01*
X196398043Y-57078980D01*
X196391311Y-57128394D01*
X196399039Y-57178988D01*
X196426482Y-57218032D01*
X196470180Y-57240348D01*
X196510258Y-57245631D01*
X196559564Y-57237842D01*
X196595743Y-57218032D01*
X196623984Y-57176086D01*
X196630669Y-57128394D01*
G37*
G36*
X194594661Y-56229581D02*
G01*
X194849406Y-57230000D01*
X195090230Y-57230000D01*
X195226029Y-56711228D01*
X195236531Y-56665554D01*
X195246881Y-56616736D01*
X195250697Y-56599120D01*
X195260572Y-56549275D01*
X195263886Y-56530732D01*
X195271843Y-56482489D01*
X195272191Y-56480174D01*
X195279614Y-56528716D01*
X195280006Y-56530732D01*
X195289514Y-56578943D01*
X195293440Y-56598632D01*
X195303397Y-56647171D01*
X195307362Y-56665066D01*
X195318597Y-56712693D01*
X195452930Y-57230000D01*
X195693754Y-57230000D01*
X195948499Y-56229581D01*
X195739916Y-56229581D01*
X195612421Y-56777662D01*
X195600891Y-56827340D01*
X195594347Y-56859239D01*
X195584944Y-56908393D01*
X195576273Y-56957669D01*
X195568047Y-57008030D01*
X195563572Y-57040467D01*
X195556760Y-56991351D01*
X195551116Y-56956936D01*
X195541895Y-56906121D01*
X195533531Y-56862658D01*
X195522883Y-56813581D01*
X195517411Y-56791828D01*
X195371598Y-56229581D01*
X195171563Y-56229581D01*
X195025994Y-56791828D01*
X195014270Y-56840142D01*
X195009874Y-56861926D01*
X195000288Y-56912059D01*
X194992288Y-56957669D01*
X194984183Y-57008030D01*
X194979588Y-57040467D01*
X194972776Y-56991351D01*
X194967131Y-56956936D01*
X194958094Y-56908210D01*
X194948080Y-56859239D01*
X194937424Y-56809144D01*
X194930739Y-56777662D01*
X194803244Y-56229581D01*
X194594661Y-56229581D01*
G37*
G36*
X193880006Y-56950341D02*
G01*
X193884600Y-57006720D01*
X193898379Y-57057886D01*
X193921345Y-57103839D01*
X193953497Y-57144579D01*
X193975994Y-57165519D01*
X194021738Y-57196735D01*
X194067087Y-57217389D01*
X194118104Y-57232409D01*
X194174787Y-57241798D01*
X194226352Y-57245318D01*
X194248080Y-57245631D01*
X194306247Y-57243622D01*
X194362043Y-57237594D01*
X194415469Y-57227548D01*
X194466525Y-57213483D01*
X194515212Y-57195399D01*
X194530914Y-57188478D01*
X194530914Y-56992840D01*
X194485862Y-57012031D01*
X194439857Y-57030220D01*
X194392897Y-57047408D01*
X194383391Y-57050725D01*
X194335706Y-57064636D01*
X194283474Y-57073987D01*
X194231472Y-57077103D01*
X194179059Y-57072810D01*
X194131510Y-57055368D01*
X194120097Y-57046573D01*
X194092566Y-57004635D01*
X194087124Y-56969392D01*
X194099361Y-56922092D01*
X194113014Y-56904180D01*
X194152246Y-56871932D01*
X194182379Y-56853866D01*
X194225874Y-56831132D01*
X194271408Y-56808559D01*
X194281786Y-56803551D01*
X194325328Y-56781096D01*
X194357501Y-56763251D01*
X194399615Y-56735168D01*
X194435170Y-56705122D01*
X194468937Y-56666714D01*
X194494493Y-56623942D01*
X194495987Y-56620858D01*
X194512182Y-56573521D01*
X194519100Y-56522867D01*
X194519678Y-56501667D01*
X194516484Y-56452772D01*
X194504683Y-56401089D01*
X194484187Y-56355179D01*
X194454995Y-56315043D01*
X194428820Y-56289909D01*
X194385819Y-56260311D01*
X194336530Y-56237983D01*
X194289277Y-56224631D01*
X194237405Y-56216620D01*
X194180914Y-56213949D01*
X194127936Y-56216056D01*
X194076805Y-56222377D01*
X194031926Y-56231779D01*
X193982508Y-56245797D01*
X193931648Y-56263337D01*
X193884159Y-56282337D01*
X193952791Y-56447445D01*
X193998330Y-56427794D01*
X194044258Y-56410174D01*
X194076133Y-56399574D01*
X194124352Y-56387886D01*
X194173693Y-56382744D01*
X194187997Y-56382477D01*
X194238207Y-56388702D01*
X194280321Y-56410809D01*
X194308027Y-56452903D01*
X194312561Y-56484570D01*
X194300654Y-56532869D01*
X194264933Y-56569811D01*
X194222721Y-56595251D01*
X194177627Y-56619494D01*
X194129333Y-56643678D01*
X194123517Y-56646503D01*
X194077697Y-56669840D01*
X194032530Y-56696171D01*
X193992847Y-56723196D01*
X193953061Y-56757880D01*
X193921418Y-56797241D01*
X193909560Y-56816985D01*
X193890425Y-56864916D01*
X193881421Y-56916745D01*
X193880006Y-56950341D01*
G37*
G36*
X193698534Y-57230000D02*
G01*
X193487264Y-57230000D01*
X193487264Y-56870474D01*
X193396161Y-56870474D01*
X193369402Y-56870070D01*
X193319090Y-56866842D01*
X193265797Y-56858995D01*
X193212018Y-56844645D01*
X193165840Y-56824556D01*
X193150374Y-56815683D01*
X193109077Y-56785893D01*
X193072164Y-56747220D01*
X193044696Y-56702679D01*
X193040289Y-56693143D01*
X193022519Y-56644233D01*
X193011858Y-56593271D01*
X193008762Y-56547096D01*
X193222505Y-56547096D01*
X193225018Y-56580731D01*
X193241017Y-56628330D01*
X193275017Y-56665554D01*
X193315506Y-56686274D01*
X193364769Y-56698393D01*
X193417166Y-56701946D01*
X193487264Y-56701946D01*
X193487264Y-56398108D01*
X193390544Y-56398108D01*
X193342134Y-56401746D01*
X193288145Y-56419060D01*
X193250238Y-56450633D01*
X193228412Y-56496464D01*
X193222505Y-56547096D01*
X193008762Y-56547096D01*
X193008304Y-56540258D01*
X193010474Y-56496511D01*
X193018809Y-56448014D01*
X193036434Y-56396946D01*
X193062567Y-56351816D01*
X193097208Y-56312623D01*
X193114794Y-56297783D01*
X193162958Y-56268831D01*
X193212185Y-56250341D01*
X193268746Y-56237690D01*
X193321481Y-56231608D01*
X193379309Y-56229581D01*
X193698534Y-56229581D01*
X193698534Y-57230000D01*
G37*
G36*
X192819260Y-57230000D02*
G01*
X192607990Y-57230000D01*
X192607990Y-56839211D01*
X192494417Y-56839211D01*
X192256524Y-57230000D01*
X192021318Y-57230000D01*
X192315387Y-56788897D01*
X192309275Y-56786067D01*
X192265018Y-56761559D01*
X192223551Y-56731256D01*
X192218275Y-56726770D01*
X192182894Y-56689353D01*
X192154919Y-56645282D01*
X192147461Y-56628989D01*
X192133302Y-56578927D01*
X192129389Y-56530976D01*
X192343230Y-56530976D01*
X192343632Y-56543640D01*
X192356121Y-56594905D01*
X192388904Y-56635512D01*
X192435651Y-56658284D01*
X192484995Y-56667901D01*
X192539357Y-56670683D01*
X192607990Y-56670683D01*
X192607990Y-56398108D01*
X192543510Y-56398108D01*
X192489624Y-56400523D01*
X192439993Y-56408872D01*
X192391591Y-56428639D01*
X192380256Y-56436863D01*
X192351212Y-56479327D01*
X192343230Y-56530976D01*
X192129389Y-56530976D01*
X192129030Y-56526580D01*
X192131409Y-56481582D01*
X192140545Y-56432512D01*
X192159864Y-56382058D01*
X192188510Y-56338920D01*
X192226482Y-56303098D01*
X192266705Y-56278114D01*
X192314467Y-56258298D01*
X192369768Y-56243652D01*
X192421611Y-56235396D01*
X192478690Y-56230730D01*
X192528122Y-56229581D01*
X192819260Y-56229581D01*
X192819260Y-57230000D01*
G37*
G36*
X190304780Y-56229581D02*
G01*
X190559525Y-57230000D01*
X190800348Y-57230000D01*
X190936147Y-56711228D01*
X190946650Y-56665554D01*
X190957000Y-56616736D01*
X190960816Y-56599120D01*
X190970691Y-56549275D01*
X190974005Y-56530732D01*
X190981962Y-56482489D01*
X190982309Y-56480174D01*
X190989733Y-56528716D01*
X190990125Y-56530732D01*
X190999632Y-56578943D01*
X191003558Y-56598632D01*
X191013515Y-56647171D01*
X191017480Y-56665066D01*
X191028715Y-56712693D01*
X191163049Y-57230000D01*
X191403872Y-57230000D01*
X191658618Y-56229581D01*
X191450034Y-56229581D01*
X191322540Y-56777662D01*
X191311009Y-56827340D01*
X191304466Y-56859239D01*
X191295062Y-56908393D01*
X191286392Y-56957669D01*
X191278166Y-57008030D01*
X191273691Y-57040467D01*
X191266879Y-56991351D01*
X191261235Y-56956936D01*
X191252014Y-56906121D01*
X191243649Y-56862658D01*
X191233002Y-56813581D01*
X191227529Y-56791828D01*
X191081716Y-56229581D01*
X190881681Y-56229581D01*
X190736113Y-56791828D01*
X190724389Y-56840142D01*
X190719993Y-56861926D01*
X190710407Y-56912059D01*
X190702407Y-56957669D01*
X190694301Y-57008030D01*
X190689706Y-57040467D01*
X190682894Y-56991351D01*
X190677250Y-56956936D01*
X190668213Y-56908210D01*
X190658199Y-56859239D01*
X190647543Y-56809144D01*
X190640858Y-56777662D01*
X190513363Y-56229581D01*
X190304780Y-56229581D01*
G37*
G36*
X190091311Y-56167055D02*
G01*
X190040972Y-56174718D01*
X190011688Y-56188792D01*
X189982723Y-56230065D01*
X189977983Y-56268660D01*
X189986409Y-56317081D01*
X190011688Y-56348039D01*
X190058476Y-56367139D01*
X190091311Y-56370265D01*
X190140255Y-56363232D01*
X190171912Y-56348039D01*
X190200038Y-56306613D01*
X190204640Y-56268660D01*
X190196458Y-56219506D01*
X190171912Y-56188792D01*
X190124971Y-56170111D01*
X190091311Y-56167055D01*
G37*
G36*
X189987752Y-56464054D02*
G01*
X189987752Y-57230000D01*
X190196336Y-57230000D01*
X190196336Y-56464054D01*
X189987752Y-56464054D01*
G37*
G36*
X189447487Y-57077103D02*
G01*
X189398569Y-57073571D01*
X189380321Y-57070265D01*
X189331960Y-57058495D01*
X189315840Y-57053900D01*
X189315840Y-57210949D01*
X189364059Y-57226920D01*
X189399127Y-57235129D01*
X189447649Y-57242667D01*
X189496616Y-57245539D01*
X189507571Y-57245631D01*
X189556984Y-57242471D01*
X189605864Y-57231916D01*
X189630181Y-57223161D01*
X189672943Y-57197021D01*
X189707198Y-57158352D01*
X189715422Y-57145003D01*
X189734621Y-57097192D01*
X189743852Y-57048115D01*
X189746898Y-56996767D01*
X189746929Y-56990642D01*
X189746929Y-56620369D01*
X189846336Y-56620369D01*
X189846336Y-56533419D01*
X189731542Y-56462588D01*
X189671458Y-56299923D01*
X189538346Y-56299923D01*
X189538346Y-56464054D01*
X189324145Y-56464054D01*
X189324145Y-56620369D01*
X189538346Y-56620369D01*
X189538346Y-56989909D01*
X189527511Y-57037824D01*
X189513189Y-57055366D01*
X189466798Y-57075745D01*
X189447487Y-57077103D01*
G37*
G36*
X188953140Y-56382721D02*
G01*
X188953891Y-56434016D01*
X188956145Y-56483486D01*
X188956559Y-56489944D01*
X188960447Y-56540293D01*
X188962909Y-56562240D01*
X188951674Y-56562240D01*
X188921426Y-56521997D01*
X188881991Y-56488865D01*
X188857885Y-56475533D01*
X188809154Y-56457980D01*
X188760450Y-56449720D01*
X188730390Y-56448422D01*
X188678278Y-56451625D01*
X188624560Y-56463127D01*
X188577070Y-56482995D01*
X188535808Y-56511228D01*
X188531088Y-56515345D01*
X188498283Y-56553737D01*
X188474851Y-56602234D01*
X188462037Y-56652959D01*
X188456765Y-56702596D01*
X188456106Y-56729546D01*
X188456106Y-57230000D01*
X188664689Y-57230000D01*
X188664689Y-56782547D01*
X188669017Y-56726270D01*
X188685005Y-56675329D01*
X188717703Y-56636518D01*
X188765788Y-56618405D01*
X188787787Y-56616950D01*
X188840858Y-56623318D01*
X188886067Y-56645035D01*
X188917480Y-56682163D01*
X188936285Y-56728478D01*
X188947255Y-56779666D01*
X188952269Y-56832723D01*
X188953140Y-56869497D01*
X188953140Y-57230000D01*
X189161723Y-57230000D01*
X189161723Y-56167055D01*
X188953140Y-56167055D01*
X188953140Y-56382721D01*
G37*
G36*
X187947993Y-56449326D02*
G01*
X187998272Y-56454849D01*
X188053822Y-56468104D01*
X188104152Y-56488589D01*
X188149260Y-56516304D01*
X188189148Y-56551249D01*
X188217786Y-56585546D01*
X188245744Y-56632418D01*
X188266713Y-56685524D01*
X188278847Y-56734540D01*
X188286128Y-56787886D01*
X188288555Y-56845561D01*
X188288369Y-56861438D01*
X188284788Y-56914617D01*
X188276648Y-56964080D01*
X188261765Y-57016058D01*
X188240928Y-57063182D01*
X188225173Y-57090073D01*
X188192428Y-57133219D01*
X188154042Y-57169603D01*
X188110013Y-57199225D01*
X188072477Y-57217307D01*
X188020987Y-57234030D01*
X187972169Y-57242731D01*
X187920481Y-57245631D01*
X187888828Y-57244717D01*
X187838889Y-57239128D01*
X187783605Y-57225716D01*
X187733387Y-57204988D01*
X187688236Y-57176943D01*
X187648150Y-57141584D01*
X187619301Y-57106858D01*
X187591137Y-57059551D01*
X187570014Y-57006096D01*
X187557790Y-56956854D01*
X187550455Y-56903342D01*
X187548011Y-56845561D01*
X187760746Y-56845561D01*
X187761326Y-56873268D01*
X187765967Y-56923459D01*
X187776735Y-56971605D01*
X187797871Y-57018485D01*
X187822347Y-57046821D01*
X187866162Y-57070177D01*
X187917550Y-57077103D01*
X187956629Y-57073440D01*
X188004256Y-57054206D01*
X188038695Y-57018485D01*
X188049390Y-56998807D01*
X188065342Y-56951295D01*
X188073499Y-56899234D01*
X188075819Y-56845561D01*
X188075239Y-56817878D01*
X188070599Y-56767869D01*
X188059831Y-56720149D01*
X188038695Y-56674103D01*
X188014218Y-56646475D01*
X187970403Y-56623703D01*
X187919016Y-56616950D01*
X187879937Y-56620522D01*
X187832309Y-56639275D01*
X187797871Y-56674103D01*
X187787176Y-56693358D01*
X187771224Y-56740242D01*
X187763066Y-56791980D01*
X187760746Y-56845561D01*
X187548011Y-56845561D01*
X187548197Y-56829690D01*
X187551778Y-56776621D01*
X187559918Y-56727409D01*
X187574801Y-56675889D01*
X187595638Y-56629406D01*
X187611374Y-56602943D01*
X187643997Y-56560417D01*
X187682146Y-56524461D01*
X187725819Y-56495073D01*
X187763141Y-56476896D01*
X187814663Y-56460085D01*
X187863801Y-56451338D01*
X187916085Y-56448422D01*
X187947993Y-56449326D01*
G37*
G36*
X186674354Y-56464054D02*
G01*
X186674354Y-57230000D01*
X186834089Y-57230000D01*
X186861933Y-57133279D01*
X186873168Y-57133279D01*
X186904309Y-57172927D01*
X186943143Y-57203575D01*
X186973307Y-57219009D01*
X187022183Y-57235232D01*
X187073187Y-57243967D01*
X187108374Y-57245631D01*
X187159987Y-57242440D01*
X187213220Y-57230980D01*
X187260317Y-57211185D01*
X187301277Y-57183055D01*
X187305966Y-57178953D01*
X187338343Y-57140454D01*
X187361470Y-57091880D01*
X187374118Y-57041113D01*
X187379321Y-56991460D01*
X187379972Y-56964508D01*
X187379972Y-56464054D01*
X187171388Y-56464054D01*
X187171388Y-56911507D01*
X187167925Y-56962805D01*
X187154902Y-57011524D01*
X187142079Y-57035094D01*
X187103855Y-57066601D01*
X187052271Y-57077062D01*
X187048290Y-57077103D01*
X186999481Y-57071945D01*
X186952787Y-57051630D01*
X186918108Y-57011891D01*
X186899561Y-56965575D01*
X186888742Y-56914388D01*
X186883796Y-56861330D01*
X186882937Y-56824556D01*
X186882937Y-56464054D01*
X186674354Y-56464054D01*
G37*
G36*
X186134577Y-57077103D02*
G01*
X186085659Y-57073571D01*
X186067411Y-57070265D01*
X186019050Y-57058495D01*
X186002930Y-57053900D01*
X186002930Y-57210949D01*
X186051149Y-57226920D01*
X186086217Y-57235129D01*
X186134739Y-57242667D01*
X186183706Y-57245539D01*
X186194661Y-57245631D01*
X186244074Y-57242471D01*
X186292954Y-57231916D01*
X186317271Y-57223161D01*
X186360033Y-57197021D01*
X186394288Y-57158352D01*
X186402512Y-57145003D01*
X186421711Y-57097192D01*
X186430942Y-57048115D01*
X186433988Y-56996767D01*
X186434019Y-56990642D01*
X186434019Y-56620369D01*
X186533426Y-56620369D01*
X186533426Y-56533419D01*
X186418632Y-56462588D01*
X186358548Y-56299923D01*
X186225436Y-56299923D01*
X186225436Y-56464054D01*
X186011235Y-56464054D01*
X186011235Y-56620369D01*
X186225436Y-56620369D01*
X186225436Y-56989909D01*
X186214601Y-57037824D01*
X186200279Y-57055366D01*
X186153888Y-57075745D01*
X186134577Y-57077103D01*
G37*
G36*
X185083600Y-57230000D02*
G01*
X185294870Y-57230000D01*
X185294870Y-56398108D01*
X185566468Y-56398108D01*
X185566468Y-56229581D01*
X184812002Y-56229581D01*
X184812002Y-56398108D01*
X185083600Y-56398108D01*
X185083600Y-57230000D01*
G37*
G36*
X184497633Y-56450011D02*
G01*
X184547413Y-56457071D01*
X184599401Y-56471765D01*
X184647138Y-56493607D01*
X184671614Y-56508737D01*
X184711312Y-56541439D01*
X184745408Y-56581174D01*
X184773900Y-56627941D01*
X184784548Y-56651007D01*
X184801584Y-56701443D01*
X184811832Y-56750283D01*
X184817732Y-56803517D01*
X184819330Y-56852644D01*
X184819133Y-56869016D01*
X184815350Y-56923553D01*
X184806751Y-56973789D01*
X184791028Y-57025935D01*
X184769016Y-57072463D01*
X184752298Y-57098632D01*
X184717578Y-57140297D01*
X184676907Y-57174967D01*
X184630286Y-57202644D01*
X184624749Y-57205289D01*
X184578583Y-57223424D01*
X184529090Y-57236186D01*
X184476268Y-57243574D01*
X184427320Y-57245631D01*
X184379771Y-57244588D01*
X184327218Y-57240479D01*
X184276866Y-57232442D01*
X184253734Y-57226981D01*
X184205145Y-57211614D01*
X184158653Y-57191409D01*
X184158653Y-57029965D01*
X184186569Y-57042467D01*
X184233555Y-57060419D01*
X184283217Y-57074905D01*
X184318134Y-57081871D01*
X184368177Y-57087613D01*
X184417550Y-57089316D01*
X184464113Y-57085355D01*
X184512786Y-57069757D01*
X184555547Y-57039246D01*
X184584122Y-57000407D01*
X184601672Y-56952737D01*
X184608060Y-56901737D01*
X184115177Y-56901737D01*
X184115177Y-56799644D01*
X184115538Y-56778879D01*
X184117006Y-56761053D01*
X184311060Y-56761053D01*
X184603663Y-56761053D01*
X184599939Y-56732488D01*
X184585537Y-56684220D01*
X184557013Y-56642840D01*
X184549324Y-56636030D01*
X184505536Y-56612031D01*
X184456629Y-56604738D01*
X184438738Y-56605429D01*
X184389027Y-56617214D01*
X184347697Y-56648946D01*
X184337529Y-56663339D01*
X184317814Y-56709795D01*
X184311060Y-56761053D01*
X184117006Y-56761053D01*
X184119595Y-56729606D01*
X184130414Y-56675453D01*
X184147725Y-56626726D01*
X184171527Y-56583427D01*
X184207501Y-56539769D01*
X184251049Y-56504176D01*
X184300907Y-56477325D01*
X184348666Y-56461268D01*
X184401062Y-56451634D01*
X184458094Y-56448422D01*
X184497633Y-56450011D01*
G37*
G36*
X183637127Y-56448441D02*
G01*
X183687092Y-56450645D01*
X183735864Y-56456522D01*
X183788136Y-56467229D01*
X183829251Y-56478830D01*
X183876617Y-56496157D01*
X183924668Y-56519009D01*
X183856036Y-56661891D01*
X183842728Y-56655968D01*
X183796213Y-56637161D01*
X183749790Y-56621346D01*
X183743123Y-56619335D01*
X183692390Y-56608387D01*
X183640369Y-56604738D01*
X183596104Y-56610348D01*
X183552930Y-56634047D01*
X183528346Y-56674441D01*
X183521423Y-56725882D01*
X183521423Y-56761053D01*
X183654535Y-56761053D01*
X183705806Y-56762484D01*
X183761837Y-56767980D01*
X183811874Y-56777597D01*
X183862676Y-56794026D01*
X183910746Y-56819672D01*
X183915990Y-56823398D01*
X183951951Y-56857725D01*
X183977257Y-56900083D01*
X183991908Y-56950469D01*
X183995987Y-57001144D01*
X183993626Y-57045506D01*
X183983131Y-57097628D01*
X183961288Y-57146669D01*
X183928820Y-57185547D01*
X183902405Y-57205966D01*
X183858177Y-57228674D01*
X183808424Y-57241876D01*
X183759560Y-57245631D01*
X183709206Y-57243390D01*
X183656425Y-57234564D01*
X183609839Y-57217299D01*
X183579509Y-57198539D01*
X183540451Y-57165171D01*
X183506036Y-57126196D01*
X183500418Y-57126196D01*
X183459874Y-57230000D01*
X183314305Y-57230000D01*
X183314305Y-56945457D01*
X183521423Y-56945457D01*
X183522144Y-56962130D01*
X183536029Y-57012853D01*
X183567585Y-57051702D01*
X183582529Y-57062538D01*
X183629893Y-57083108D01*
X183681158Y-57089316D01*
X183707471Y-57087407D01*
X183753942Y-57069776D01*
X183769795Y-57053087D01*
X183781786Y-57004075D01*
X183773199Y-56958895D01*
X183742707Y-56918590D01*
X183704594Y-56898795D01*
X183654510Y-56888675D01*
X183602756Y-56886106D01*
X183521423Y-56886106D01*
X183521423Y-56945457D01*
X183314305Y-56945457D01*
X183314305Y-56719288D01*
X183314625Y-56702376D01*
X183320777Y-56647542D01*
X183334760Y-56599487D01*
X183360330Y-56552867D01*
X183396127Y-56515101D01*
X183429351Y-56492440D01*
X183474538Y-56471929D01*
X183526644Y-56457799D01*
X183576813Y-56450767D01*
X183632065Y-56448422D01*
X183637127Y-56448441D01*
G37*
G36*
X182673656Y-56448422D02*
G01*
X182637264Y-56448422D01*
X182603558Y-56453551D01*
X182618946Y-56642840D01*
X182647766Y-56638199D01*
X182680495Y-56636001D01*
X182729500Y-56640241D01*
X182776680Y-56652960D01*
X182782833Y-56655296D01*
X182827041Y-56680270D01*
X182861967Y-56717090D01*
X182883531Y-56764084D01*
X182891540Y-56816012D01*
X182892009Y-56834082D01*
X182892009Y-57230000D01*
X183100593Y-57230000D01*
X183100593Y-56464054D01*
X182942323Y-56464054D01*
X182911549Y-56587152D01*
X182901779Y-56587152D01*
X182872996Y-56546589D01*
X182837207Y-56510628D01*
X182809455Y-56489211D01*
X182762767Y-56464355D01*
X182715503Y-56451649D01*
X182673656Y-56448422D01*
G37*
G36*
X181932135Y-57003831D02*
G01*
X181937264Y-57058816D01*
X181952651Y-57107023D01*
X181982224Y-57153155D01*
X182014200Y-57183105D01*
X182060149Y-57210460D01*
X182108618Y-57227984D01*
X182164801Y-57239525D01*
X182219097Y-57244654D01*
X182258443Y-57245631D01*
X182310558Y-57244361D01*
X182361420Y-57240079D01*
X182395464Y-57234884D01*
X182445686Y-57223123D01*
X182492321Y-57207598D01*
X182510258Y-57200446D01*
X182510258Y-57025568D01*
X182462722Y-57044928D01*
X182412438Y-57061609D01*
X182377390Y-57071242D01*
X182326121Y-57082255D01*
X182276007Y-57088451D01*
X182251360Y-57089316D01*
X182201493Y-57085344D01*
X182163921Y-57071242D01*
X182138259Y-57028813D01*
X182138032Y-57023370D01*
X182148534Y-56988443D01*
X182187629Y-56956902D01*
X182193963Y-56953272D01*
X182238721Y-56930863D01*
X182285192Y-56910289D01*
X182303140Y-56902714D01*
X182349228Y-56881643D01*
X182392791Y-56858854D01*
X182420865Y-56841898D01*
X182458936Y-56810767D01*
X182488070Y-56771528D01*
X182489497Y-56768869D01*
X182506167Y-56720692D01*
X182511636Y-56669621D01*
X182511723Y-56661646D01*
X182506564Y-56611622D01*
X182488424Y-56563337D01*
X182457225Y-56523515D01*
X182429169Y-56501667D01*
X182384473Y-56478373D01*
X182332937Y-56461734D01*
X182282234Y-56452634D01*
X182226295Y-56448630D01*
X182209351Y-56448422D01*
X182156823Y-56450449D01*
X182106219Y-56456528D01*
X182073551Y-56462833D01*
X182024608Y-56476285D01*
X181978716Y-56493263D01*
X181940439Y-56510460D01*
X182003454Y-56664577D01*
X182051486Y-56643941D01*
X182097274Y-56626483D01*
X182109944Y-56622079D01*
X182157435Y-56609632D01*
X182208802Y-56604755D01*
X182212037Y-56604738D01*
X182260852Y-56609675D01*
X182301351Y-56638114D01*
X182304605Y-56655296D01*
X182292637Y-56688513D01*
X182252691Y-56716880D01*
X182246475Y-56720020D01*
X182200648Y-56741097D01*
X182153138Y-56761494D01*
X182144870Y-56764961D01*
X182098136Y-56785237D01*
X182053244Y-56807900D01*
X182031542Y-56820404D01*
X181991667Y-56850536D01*
X181959664Y-56889539D01*
X181958025Y-56892212D01*
X181939442Y-56938025D01*
X181932539Y-56987020D01*
X181932135Y-57003831D01*
G37*
G36*
X205773705Y-53380000D02*
G01*
X205434305Y-52160739D01*
X205701311Y-52160739D01*
X205884494Y-53075771D01*
X206082916Y-52160739D01*
X206331458Y-52160739D01*
X206521381Y-53074012D01*
X206711304Y-52160739D01*
X206978311Y-52160739D01*
X206632170Y-53380000D01*
X206405317Y-53380000D01*
X206205429Y-52428625D01*
X206000558Y-53380000D01*
X205773705Y-53380000D01*
G37*
G36*
X204416399Y-52533551D02*
G01*
X204421298Y-52465650D01*
X204434911Y-52403816D01*
X204457097Y-52348185D01*
X204499767Y-52283887D01*
X204557087Y-52231167D01*
X204609490Y-52199416D01*
X204669802Y-52174488D01*
X204737881Y-52156518D01*
X204813587Y-52145638D01*
X204896775Y-52141981D01*
X204976216Y-52145589D01*
X205048864Y-52156282D01*
X205114497Y-52173867D01*
X205172892Y-52198148D01*
X205223825Y-52228933D01*
X205279744Y-52279760D01*
X205321473Y-52341343D01*
X205348482Y-52413221D01*
X205358762Y-52473609D01*
X205360739Y-52516845D01*
X205356135Y-52582975D01*
X205341876Y-52640644D01*
X205309455Y-52701761D01*
X205259593Y-52751798D01*
X205206268Y-52784646D01*
X205140274Y-52811771D01*
X205082062Y-52828724D01*
X205016064Y-52843056D01*
X204844898Y-52876468D01*
X204786698Y-52889111D01*
X204727150Y-52907539D01*
X204673729Y-52934608D01*
X204630252Y-52981491D01*
X204614712Y-53043855D01*
X204614528Y-53052909D01*
X204627666Y-53113546D01*
X204665607Y-53161424D01*
X204716195Y-53191246D01*
X204781991Y-53209786D01*
X204847435Y-53215981D01*
X204861605Y-53216161D01*
X204922321Y-53212822D01*
X204988011Y-53199428D01*
X205042122Y-53176082D01*
X205091412Y-53135375D01*
X205123222Y-53081338D01*
X205137110Y-53014515D01*
X205382428Y-53014515D01*
X205373832Y-53084594D01*
X205356722Y-53148352D01*
X205331254Y-53205662D01*
X205297585Y-53256401D01*
X205255871Y-53300443D01*
X205206268Y-53337665D01*
X205148934Y-53367940D01*
X205084024Y-53391146D01*
X205011696Y-53407157D01*
X204932105Y-53415849D01*
X204875087Y-53417515D01*
X204789688Y-53413702D01*
X204711401Y-53402407D01*
X204640509Y-53383843D01*
X204577291Y-53358226D01*
X204522029Y-53325769D01*
X204475004Y-53286688D01*
X204436498Y-53241196D01*
X204406791Y-53189508D01*
X204386164Y-53131839D01*
X204374899Y-53068403D01*
X204372728Y-53023014D01*
X204377352Y-52955462D01*
X204391477Y-52896074D01*
X204423068Y-52832696D01*
X204470831Y-52780639D01*
X204521182Y-52746607D01*
X204582733Y-52718900D01*
X204655863Y-52697108D01*
X204696887Y-52688304D01*
X204888569Y-52651667D01*
X204950114Y-52638484D01*
X205011582Y-52621052D01*
X205071861Y-52592683D01*
X205112126Y-52544487D01*
X205120404Y-52493691D01*
X205105763Y-52431542D01*
X205063728Y-52384258D01*
X205006699Y-52356915D01*
X204944285Y-52345146D01*
X204908792Y-52343628D01*
X204839128Y-52348482D01*
X204780039Y-52362884D01*
X204723412Y-52392428D01*
X204682736Y-52434955D01*
X204658404Y-52490048D01*
X204651458Y-52533551D01*
X204416399Y-52533551D01*
G37*
G36*
X204188960Y-53380000D02*
G01*
X203936901Y-53380000D01*
X203936901Y-52948569D01*
X203622707Y-52948569D01*
X203561577Y-52944423D01*
X203487228Y-52926417D01*
X203421746Y-52894905D01*
X203365879Y-52850713D01*
X203320376Y-52794665D01*
X203285986Y-52727584D01*
X203267937Y-52670529D01*
X203256876Y-52608081D01*
X203253869Y-52554068D01*
X203505177Y-52554068D01*
X203511796Y-52617799D01*
X203536610Y-52674753D01*
X203588272Y-52717510D01*
X203654570Y-52735939D01*
X203701549Y-52738715D01*
X203936901Y-52738715D01*
X203936901Y-52370886D01*
X203701549Y-52370886D01*
X203633580Y-52377142D01*
X203572979Y-52400486D01*
X203527609Y-52448821D01*
X203508110Y-52510517D01*
X203505177Y-52554068D01*
X203253869Y-52554068D01*
X203253119Y-52540586D01*
X203256778Y-52474531D01*
X203267676Y-52414436D01*
X203293267Y-52343783D01*
X203331241Y-52284211D01*
X203381320Y-52236000D01*
X203443227Y-52199427D01*
X203516683Y-52174771D01*
X203579187Y-52164267D01*
X203647913Y-52160739D01*
X204188960Y-52160739D01*
X204188960Y-53380000D01*
G37*
G36*
X203094263Y-53380000D02*
G01*
X202842205Y-53380000D01*
X202842205Y-52896106D01*
X202553217Y-52896106D01*
X202490273Y-52902510D01*
X202434112Y-52930471D01*
X202403893Y-52982218D01*
X202396999Y-53040013D01*
X202396999Y-53090425D01*
X202398704Y-53150300D01*
X202398757Y-53170732D01*
X202397615Y-53236072D01*
X202391613Y-53296688D01*
X202374325Y-53353844D01*
X202361828Y-53380000D01*
X202091304Y-53380000D01*
X202091304Y-53334863D01*
X202134079Y-53293584D01*
X202144940Y-53234333D01*
X202146241Y-53170771D01*
X202148670Y-53089239D01*
X202152332Y-53022552D01*
X202160406Y-52953369D01*
X202178095Y-52892128D01*
X202214977Y-52843781D01*
X202274522Y-52808179D01*
X202314640Y-52790300D01*
X202255113Y-52761741D01*
X202205675Y-52726555D01*
X202159668Y-52675444D01*
X202128189Y-52614472D01*
X202113055Y-52556004D01*
X202110673Y-52525052D01*
X202360069Y-52525052D01*
X202366406Y-52585104D01*
X202392346Y-52641389D01*
X202405498Y-52654598D01*
X202459279Y-52679855D01*
X202518726Y-52685737D01*
X202537976Y-52685959D01*
X202842205Y-52685959D01*
X202842205Y-52370886D01*
X202537976Y-52370886D01*
X202477186Y-52373740D01*
X202420396Y-52392149D01*
X202405498Y-52402540D01*
X202371353Y-52452035D01*
X202360245Y-52514676D01*
X202360069Y-52525052D01*
X202110673Y-52525052D01*
X202108011Y-52490467D01*
X202112757Y-52428499D01*
X202126629Y-52370025D01*
X202152947Y-52309154D01*
X202189638Y-52256505D01*
X202200334Y-52244856D01*
X202246080Y-52207602D01*
X202300535Y-52181366D01*
X202364168Y-52165845D01*
X202427742Y-52160818D01*
X202437445Y-52160739D01*
X203094263Y-52160739D01*
X203094263Y-53380000D01*
G37*
G36*
X201162205Y-52821074D02*
G01*
X201162205Y-53380000D01*
X200910146Y-53380000D01*
X200910146Y-52160739D01*
X201163963Y-52160739D01*
X201163963Y-52610928D01*
X201647857Y-52610928D01*
X201647857Y-52160739D01*
X201899916Y-52160739D01*
X201899916Y-53380000D01*
X201647857Y-53380000D01*
X201647857Y-52821074D01*
X201162205Y-52821074D01*
G37*
G36*
X200770928Y-53380000D02*
G01*
X200513886Y-53380000D01*
X200431821Y-53136147D01*
X199973133Y-53136147D01*
X199892240Y-53380000D01*
X199633733Y-53380000D01*
X199791221Y-52926294D01*
X200042009Y-52926294D01*
X200361186Y-52926294D01*
X200201451Y-52448848D01*
X200042009Y-52926294D01*
X199791221Y-52926294D01*
X200056957Y-52160739D01*
X200335980Y-52160739D01*
X200770928Y-53380000D01*
G37*
G36*
X199095324Y-52370886D02*
G01*
X198737459Y-52370886D01*
X198737459Y-52160739D01*
X199718436Y-52160739D01*
X199718436Y-52370886D01*
X199347090Y-52370886D01*
X199347090Y-53380000D01*
X199095324Y-53380000D01*
X199095324Y-52370886D01*
G37*
G36*
X197718087Y-52160739D02*
G01*
X198638981Y-52160739D01*
X198638981Y-52370886D01*
X198012058Y-52370886D01*
X198638981Y-53170146D01*
X198638981Y-53380000D01*
X197718087Y-53380000D01*
X197718087Y-53170146D01*
X198343251Y-53170146D01*
X197718087Y-52370886D01*
X197718087Y-52160739D01*
G37*
G36*
X197291639Y-52854780D02*
G01*
X196705163Y-52854780D01*
X196705163Y-52644926D01*
X197291639Y-52644926D01*
X197291639Y-52370886D01*
X196658269Y-52370886D01*
X196658269Y-52160739D01*
X197543698Y-52160739D01*
X197543698Y-53380000D01*
X196627787Y-53380000D01*
X196627787Y-53170146D01*
X197291639Y-53170146D01*
X197291639Y-52854780D01*
G37*
G36*
X196422330Y-53380000D02*
G01*
X196170272Y-53380000D01*
X196170272Y-52896106D01*
X195881284Y-52896106D01*
X195818340Y-52902510D01*
X195762178Y-52930471D01*
X195731960Y-52982218D01*
X195725066Y-53040013D01*
X195725066Y-53090425D01*
X195726771Y-53150300D01*
X195726824Y-53170732D01*
X195725682Y-53236072D01*
X195719680Y-53296688D01*
X195702392Y-53353844D01*
X195689895Y-53380000D01*
X195419371Y-53380000D01*
X195419371Y-53334863D01*
X195462146Y-53293584D01*
X195473007Y-53234333D01*
X195474308Y-53170771D01*
X195476737Y-53089239D01*
X195480399Y-53022552D01*
X195488473Y-52953369D01*
X195506162Y-52892128D01*
X195543044Y-52843781D01*
X195602589Y-52808179D01*
X195642707Y-52790300D01*
X195583180Y-52761741D01*
X195533742Y-52726555D01*
X195487735Y-52675444D01*
X195456256Y-52614472D01*
X195441122Y-52556004D01*
X195438740Y-52525052D01*
X195688136Y-52525052D01*
X195694473Y-52585104D01*
X195720413Y-52641389D01*
X195733565Y-52654598D01*
X195787346Y-52679855D01*
X195846793Y-52685737D01*
X195866043Y-52685959D01*
X196170272Y-52685959D01*
X196170272Y-52370886D01*
X195866043Y-52370886D01*
X195805253Y-52373740D01*
X195748463Y-52392149D01*
X195733565Y-52402540D01*
X195699420Y-52452035D01*
X195688312Y-52514676D01*
X195688136Y-52525052D01*
X195438740Y-52525052D01*
X195436078Y-52490467D01*
X195440824Y-52428499D01*
X195454696Y-52370025D01*
X195481014Y-52309154D01*
X195517705Y-52256505D01*
X195528401Y-52244856D01*
X195574147Y-52207602D01*
X195628602Y-52181366D01*
X195692235Y-52165845D01*
X195755809Y-52160818D01*
X195765512Y-52160739D01*
X196422330Y-52160739D01*
X196422330Y-53380000D01*
G37*
G36*
X194768549Y-52144657D02*
G01*
X194828472Y-52152670D01*
X194899135Y-52170161D01*
X194964949Y-52195919D01*
X195025767Y-52229904D01*
X195081440Y-52272076D01*
X195122177Y-52311681D01*
X195160932Y-52358025D01*
X195195088Y-52408809D01*
X195224470Y-52463557D01*
X195248902Y-52521791D01*
X195268210Y-52583034D01*
X195282218Y-52646808D01*
X195290752Y-52712637D01*
X195293635Y-52780041D01*
X195290752Y-52847421D01*
X195282218Y-52913352D01*
X195268210Y-52977291D01*
X195248902Y-53038695D01*
X195224470Y-53097021D01*
X195195088Y-53151727D01*
X195160932Y-53202270D01*
X195122177Y-53248108D01*
X195070221Y-53297271D01*
X195013472Y-53337920D01*
X194951815Y-53370131D01*
X194885136Y-53393976D01*
X194813321Y-53409529D01*
X194752095Y-53416052D01*
X194703935Y-53417515D01*
X194640151Y-53414912D01*
X194579770Y-53407078D01*
X194508991Y-53389872D01*
X194443326Y-53364360D01*
X194382660Y-53330468D01*
X194326878Y-53288122D01*
X194285694Y-53248108D01*
X194247949Y-53203236D01*
X194214267Y-53153133D01*
X194184947Y-53098613D01*
X194160287Y-53040490D01*
X194140588Y-52979578D01*
X194126147Y-52916691D01*
X194117263Y-52852643D01*
X194114235Y-52788248D01*
X194114307Y-52786489D01*
X194366294Y-52786489D01*
X194369822Y-52854458D01*
X194380173Y-52917626D01*
X194397001Y-52975581D01*
X194428911Y-53044035D01*
X194470891Y-53101515D01*
X194522117Y-53147046D01*
X194581766Y-53179652D01*
X194649011Y-53198358D01*
X194703935Y-53202679D01*
X194777264Y-53195026D01*
X194843122Y-53172665D01*
X194900798Y-53136497D01*
X194949583Y-53087421D01*
X194988763Y-53026338D01*
X195017630Y-52954147D01*
X195032084Y-52893256D01*
X195040036Y-52827002D01*
X195041577Y-52780041D01*
X195038126Y-52710349D01*
X195027973Y-52645780D01*
X195011419Y-52586712D01*
X194979907Y-52517166D01*
X194938259Y-52458969D01*
X194887185Y-52413018D01*
X194827396Y-52380208D01*
X194759604Y-52361437D01*
X194703935Y-52357110D01*
X194630102Y-52364777D01*
X194564007Y-52387230D01*
X194506300Y-52423649D01*
X194457629Y-52473211D01*
X194418643Y-52535098D01*
X194389993Y-52608487D01*
X194375678Y-52670583D01*
X194367816Y-52738342D01*
X194366294Y-52786489D01*
X194114307Y-52786489D01*
X194117119Y-52718062D01*
X194125652Y-52650023D01*
X194139660Y-52584574D01*
X194158968Y-52522158D01*
X194183401Y-52463217D01*
X194212783Y-52408195D01*
X194246939Y-52357536D01*
X194285694Y-52311681D01*
X194338134Y-52261913D01*
X194394877Y-52221022D01*
X194456319Y-52188828D01*
X194522855Y-52165150D01*
X194594881Y-52149806D01*
X194656720Y-52143410D01*
X194705694Y-52141981D01*
X194768549Y-52144657D01*
G37*
G36*
X206333217Y-55396000D02*
G01*
X205913217Y-54176739D01*
X206166741Y-54176739D01*
X206434040Y-55094995D01*
X206706029Y-54176739D01*
X206959846Y-54176739D01*
X206546587Y-55396000D01*
X206333217Y-55396000D01*
G37*
G36*
X205565543Y-54481775D02*
G01*
X205630490Y-54496270D01*
X205689528Y-54519996D01*
X205742369Y-54552599D01*
X205788724Y-54593727D01*
X205828305Y-54643024D01*
X205860823Y-54700139D01*
X205885991Y-54764717D01*
X205903520Y-54836405D01*
X205913121Y-54914849D01*
X205914975Y-54970724D01*
X205910865Y-55047969D01*
X205898727Y-55119221D01*
X205878847Y-55184131D01*
X205851513Y-55242347D01*
X205817011Y-55293520D01*
X205775628Y-55337297D01*
X205727651Y-55373330D01*
X205673367Y-55401266D01*
X205613063Y-55420756D01*
X205547026Y-55431448D01*
X205499958Y-55433515D01*
X205425735Y-55428270D01*
X205355981Y-55412935D01*
X205291564Y-55388105D01*
X205233354Y-55354381D01*
X205182220Y-55312357D01*
X205139029Y-55262634D01*
X205104652Y-55205807D01*
X205079958Y-55142475D01*
X205311793Y-55142475D01*
X205344363Y-55194610D01*
X205392170Y-55231270D01*
X205453061Y-55250890D01*
X205491751Y-55253850D01*
X205550587Y-55245890D01*
X205604778Y-55219699D01*
X205646210Y-55176767D01*
X205668978Y-55122430D01*
X205677383Y-55063546D01*
X205679916Y-55020842D01*
X205071751Y-55020842D01*
X205069993Y-54980689D01*
X205072438Y-54913969D01*
X205077925Y-54864625D01*
X205315310Y-54864625D01*
X205676399Y-54864625D01*
X205666167Y-54804238D01*
X205645351Y-54745621D01*
X205609235Y-54696093D01*
X205552266Y-54663995D01*
X205498492Y-54656823D01*
X205434261Y-54667150D01*
X205383102Y-54697702D01*
X205345549Y-54747834D01*
X205324594Y-54805901D01*
X205315310Y-54864625D01*
X205077925Y-54864625D01*
X205079445Y-54850959D01*
X205090518Y-54792950D01*
X205105163Y-54741233D01*
X205131819Y-54682498D01*
X205165907Y-54630312D01*
X205206864Y-54585071D01*
X205254127Y-54547170D01*
X205307133Y-54517004D01*
X205365319Y-54494968D01*
X205428120Y-54481456D01*
X205494975Y-54476865D01*
X205565543Y-54481775D01*
G37*
G36*
X204912896Y-54495623D02*
G01*
X204912896Y-55396000D01*
X204677836Y-55396000D01*
X204677836Y-54917674D01*
X204672792Y-54857913D01*
X204653420Y-54799612D01*
X204612457Y-54750058D01*
X204551720Y-54720352D01*
X204483919Y-54710660D01*
X204471207Y-54710459D01*
X204411199Y-54715095D01*
X204397348Y-54717200D01*
X204397348Y-54478623D01*
X204425778Y-54476865D01*
X204484511Y-54484193D01*
X204547656Y-54510599D01*
X204596043Y-54547705D01*
X204638096Y-54597397D01*
X204672828Y-54658946D01*
X204677836Y-54670305D01*
X204677836Y-54495623D01*
X204912896Y-54495623D01*
G37*
G36*
X203513970Y-54783438D02*
G01*
X203521870Y-54715568D01*
X203542766Y-54655165D01*
X203576083Y-54602717D01*
X203621242Y-54558711D01*
X203677666Y-54523635D01*
X203744780Y-54497977D01*
X203822005Y-54482224D01*
X203886212Y-54477204D01*
X203908764Y-54476865D01*
X203971125Y-54479887D01*
X204046634Y-54493039D01*
X204112819Y-54516116D01*
X204169031Y-54548572D01*
X204214620Y-54589862D01*
X204248937Y-54639438D01*
X204271334Y-54696756D01*
X204281160Y-54761268D01*
X204281577Y-54778456D01*
X204275233Y-54837083D01*
X204252519Y-54895963D01*
X204231165Y-54925295D01*
X204182128Y-54961905D01*
X204126774Y-54985557D01*
X204083447Y-55000326D01*
X203802958Y-55087081D01*
X203749077Y-55110698D01*
X203723824Y-55160354D01*
X203754836Y-55215984D01*
X203809679Y-55239437D01*
X203869004Y-55247996D01*
X203898506Y-55248868D01*
X203957201Y-55245264D01*
X204015788Y-55229782D01*
X204038018Y-55217214D01*
X204073571Y-55169641D01*
X204083447Y-55132217D01*
X204313524Y-55132217D01*
X204304488Y-55202301D01*
X204282511Y-55263252D01*
X204247702Y-55315005D01*
X204200170Y-55357495D01*
X204140027Y-55390656D01*
X204067382Y-55414423D01*
X204004759Y-55426045D01*
X203935212Y-55432318D01*
X203885024Y-55433515D01*
X203817443Y-55430698D01*
X203756121Y-55422232D01*
X203692429Y-55405184D01*
X203637120Y-55380379D01*
X203596329Y-55352915D01*
X203551083Y-55307431D01*
X203517267Y-55253044D01*
X203496092Y-55192173D01*
X203488764Y-55127235D01*
X203494960Y-55065863D01*
X203517925Y-55005343D01*
X203557959Y-54956652D01*
X203615190Y-54919679D01*
X203666671Y-54900382D01*
X203964159Y-54815092D01*
X204018940Y-54793907D01*
X204046517Y-54745043D01*
X204017686Y-54690496D01*
X203959930Y-54666424D01*
X203910230Y-54661806D01*
X203844542Y-54667549D01*
X203789302Y-54688292D01*
X203749560Y-54735770D01*
X203740823Y-54783438D01*
X203513970Y-54783438D01*
G37*
G36*
X203081367Y-54495623D02*
G01*
X203316427Y-54495623D01*
X203316427Y-55396000D01*
X203081367Y-55396000D01*
X203081367Y-54495623D01*
G37*
G36*
X203081367Y-54176739D02*
G01*
X203316427Y-54176739D01*
X203316427Y-54386886D01*
X203081367Y-54386886D01*
X203081367Y-54176739D01*
G37*
G36*
X202531883Y-54481636D02*
G01*
X202600996Y-54495715D01*
X202663823Y-54518750D01*
X202720057Y-54550389D01*
X202769389Y-54590279D01*
X202811512Y-54638069D01*
X202846120Y-54693406D01*
X202872906Y-54755938D01*
X202891562Y-54825314D01*
X202901780Y-54901180D01*
X202903754Y-54955190D01*
X202899329Y-55035594D01*
X202886254Y-55109583D01*
X202864826Y-55176830D01*
X202835346Y-55237009D01*
X202798110Y-55289795D01*
X202753417Y-55334861D01*
X202701567Y-55371881D01*
X202642857Y-55400529D01*
X202577586Y-55420479D01*
X202506052Y-55431405D01*
X202455031Y-55433515D01*
X202379901Y-55428791D01*
X202310689Y-55414860D01*
X202247714Y-55392080D01*
X202191300Y-55360810D01*
X202141768Y-55321411D01*
X202099439Y-55274241D01*
X202064635Y-55219660D01*
X202037678Y-55158028D01*
X202018889Y-55089702D01*
X202008591Y-55015044D01*
X202006601Y-54961931D01*
X202006771Y-54958707D01*
X202241660Y-54958707D01*
X202245659Y-55019263D01*
X202261304Y-55087023D01*
X202287739Y-55144565D01*
X202332135Y-55198012D01*
X202388541Y-55231984D01*
X202455031Y-55243885D01*
X202522174Y-55232111D01*
X202578699Y-55198290D01*
X202622891Y-55144669D01*
X202649057Y-55086483D01*
X202664474Y-55017411D01*
X202668401Y-54955190D01*
X202664474Y-54893066D01*
X202649057Y-54824081D01*
X202622891Y-54765952D01*
X202578699Y-54712368D01*
X202522174Y-54678560D01*
X202455031Y-54666788D01*
X202387343Y-54678583D01*
X202330718Y-54712553D01*
X202286698Y-54766578D01*
X202260755Y-54825387D01*
X202245527Y-54895422D01*
X202241660Y-54958707D01*
X202006771Y-54958707D01*
X202010943Y-54879464D01*
X202023809Y-54803868D01*
X202044961Y-54735414D01*
X202074159Y-54674372D01*
X202111164Y-54621014D01*
X202155738Y-54575611D01*
X202207640Y-54538432D01*
X202266633Y-54509751D01*
X202332476Y-54489836D01*
X202404931Y-54478960D01*
X202456789Y-54476865D01*
X202531883Y-54481636D01*
G37*
G36*
X201830746Y-54495623D02*
G01*
X201830746Y-55396000D01*
X201595687Y-55396000D01*
X201595687Y-54855832D01*
X201585415Y-54790356D01*
X201555926Y-54737956D01*
X201509208Y-54700604D01*
X201447248Y-54680269D01*
X201405764Y-54677046D01*
X201346835Y-54684923D01*
X201292337Y-54717969D01*
X201261765Y-54776402D01*
X201254528Y-54839126D01*
X201254528Y-55396000D01*
X201019469Y-55396000D01*
X201019469Y-54790766D01*
X201024535Y-54719551D01*
X201039550Y-54656896D01*
X201064245Y-54603089D01*
X201108311Y-54548711D01*
X201166546Y-54509172D01*
X201222980Y-54488604D01*
X201287872Y-54478181D01*
X201323405Y-54476865D01*
X201388383Y-54481596D01*
X201445827Y-54496169D01*
X201504651Y-54526368D01*
X201556159Y-54571637D01*
X201595687Y-54623117D01*
X201595687Y-54495623D01*
X201830746Y-54495623D01*
G37*
G36*
X200044354Y-54574464D02*
G01*
X200044354Y-55396000D01*
X199809295Y-55396000D01*
X199809295Y-54204876D01*
X199965512Y-54204876D01*
X199989080Y-54266019D01*
X200025117Y-54316963D01*
X200073557Y-54357640D01*
X200134332Y-54387984D01*
X200191788Y-54404773D01*
X200257062Y-54414873D01*
X200330118Y-54418247D01*
X200330118Y-54574464D01*
X200044354Y-54574464D01*
G37*
G36*
X199151598Y-55150975D02*
G01*
X199403656Y-55150975D01*
X199403656Y-55396000D01*
X199151598Y-55396000D01*
X199151598Y-55150975D01*
G37*
G36*
X198644549Y-54574464D02*
G01*
X198644549Y-55396000D01*
X198409490Y-55396000D01*
X198409490Y-54204876D01*
X198565708Y-54204876D01*
X198589276Y-54266019D01*
X198625313Y-54316963D01*
X198673752Y-54357640D01*
X198734527Y-54387984D01*
X198791984Y-54404773D01*
X198857257Y-54414873D01*
X198930314Y-54418247D01*
X198930314Y-54574464D01*
X198644549Y-54574464D01*
G37*
%LPC*%
D11*
%TO.C,J4*%
X162600000Y-52250000D03*
X162600000Y-43750000D03*
%TD*%
D12*
%TO.C,D1*%
X161600000Y-38800000D03*
D13*
X164140000Y-38800000D03*
%TD*%
D14*
%TO.C,C4*%
X168800000Y-42200000D03*
X168800000Y-47200000D03*
%TD*%
%TO.C,C3*%
X221800000Y-56400000D03*
X216800000Y-56400000D03*
%TD*%
%TO.C,C2*%
X185000000Y-39400000D03*
X180000000Y-39400000D03*
%TD*%
D15*
%TO.C,C1*%
X174800000Y-44200000D03*
D14*
X177300000Y-44200000D03*
%TD*%
D16*
%TO.C,J3*%
X172200000Y-48200000D03*
%TD*%
D17*
%TO.C,SW1*%
X201800000Y-38550000D03*
X208300000Y-38550000D03*
X201800000Y-43050000D03*
X208300000Y-43050000D03*
%TD*%
D16*
%TO.C,J2*%
X167875000Y-34775000D03*
D18*
X167875000Y-32235000D03*
X170415000Y-34775000D03*
X170415000Y-32235000D03*
X172955000Y-34775000D03*
X172955000Y-32235000D03*
X175495000Y-34775000D03*
X175495000Y-32235000D03*
X178035000Y-34775000D03*
X178035000Y-32235000D03*
X180575000Y-34775000D03*
X180575000Y-32235000D03*
X183115000Y-34775000D03*
X183115000Y-32235000D03*
X185655000Y-34775000D03*
X185655000Y-32235000D03*
X188195000Y-34775000D03*
X188195000Y-32235000D03*
X190735000Y-34775000D03*
X190735000Y-32235000D03*
X193275000Y-34775000D03*
X193275000Y-32235000D03*
X195815000Y-34775000D03*
X195815000Y-32235000D03*
X198355000Y-34775000D03*
X198355000Y-32235000D03*
X200895000Y-34775000D03*
X200895000Y-32235000D03*
X203435000Y-34775000D03*
X203435000Y-32235000D03*
X205975000Y-34775000D03*
X205975000Y-32235000D03*
X208515000Y-34775000D03*
X208515000Y-32235000D03*
X211055000Y-34775000D03*
X211055000Y-32235000D03*
X213595000Y-34775000D03*
X213595000Y-32235000D03*
X216135000Y-34775000D03*
X216135000Y-32235000D03*
%TD*%
D17*
%TO.C,L1*%
X221000000Y-52400000D03*
D19*
X221000000Y-37160000D03*
%TD*%
D16*
%TO.C,J8*%
X216400000Y-52400000D03*
%TD*%
D14*
%TO.C,R2*%
X188400000Y-38200000D03*
D20*
X196020000Y-38200000D03*
%TD*%
D16*
%TO.C,J6*%
X209000000Y-57800000D03*
D18*
X209000000Y-55260000D03*
X209000000Y-52720000D03*
X209000000Y-50180000D03*
%TD*%
D15*
%TO.C,D2*%
X167000000Y-58800000D03*
D20*
X167000000Y-51180000D03*
%TD*%
D16*
%TO.C,J7*%
X182200000Y-44200000D03*
%TD*%
D14*
%TO.C,R3*%
X196000000Y-41200000D03*
D20*
X188380000Y-41200000D03*
%TD*%
D16*
%TO.C,J5*%
X176000000Y-57800000D03*
D18*
X176000000Y-55260000D03*
X176000000Y-52720000D03*
X176000000Y-50180000D03*
%TD*%
D16*
%TO.C,J1*%
X167200000Y-38800000D03*
%TD*%
D21*
%TO.C,REF\u002A\u002A*%
X163000000Y-33400000D03*
%TD*%
D14*
%TO.C,R7*%
X170000000Y-51200000D03*
D20*
X170000000Y-58820000D03*
%TD*%
D14*
%TO.C,R4*%
X188400000Y-44200000D03*
D20*
X196020000Y-44200000D03*
%TD*%
D21*
%TO.C,REF\u002A\u002A*%
X163000000Y-57000000D03*
%TD*%
D14*
%TO.C,R6*%
X170200000Y-39400000D03*
D20*
X177820000Y-39400000D03*
%TD*%
D22*
%TO.C,Q1*%
X216000000Y-41400000D03*
D23*
X216000000Y-40130000D03*
X216000000Y-38860000D03*
%TD*%
D24*
%TO.C,RV1*%
X217200000Y-44400000D03*
X212200000Y-46900000D03*
X217200000Y-49400000D03*
%TD*%
D14*
%TO.C,R5*%
X188400000Y-47200000D03*
D20*
X196020000Y-47200000D03*
%TD*%
D21*
%TO.C,REF\u002A\u002A*%
X221000000Y-33400000D03*
%TD*%
%LPD*%
M02*
